G04 #@! TF.GenerationSoftware,KiCad,Pcbnew,7.0.6*
G04 #@! TF.CreationDate,2023-08-02T15:09:41-04:00*
G04 #@! TF.ProjectId,Turing Machine State,54757269-6e67-4204-9d61-6368696e6520,rev?*
G04 #@! TF.SameCoordinates,Original*
G04 #@! TF.FileFunction,Legend,Bot*
G04 #@! TF.FilePolarity,Positive*
%FSLAX46Y46*%
G04 Gerber Fmt 4.6, Leading zero omitted, Abs format (unit mm)*
G04 Created by KiCad (PCBNEW 7.0.6) date 2023-08-02 15:09:41*
%MOMM*%
%LPD*%
G01*
G04 APERTURE LIST*
%ADD10C,0.150000*%
%ADD11C,0.100000*%
%ADD12C,1.300000*%
%ADD13O,1.600000X1.600000*%
%ADD14R,1.600000X1.600000*%
%ADD15O,1.700000X1.700000*%
%ADD16R,1.700000X1.700000*%
%ADD17R,1.300000X1.300000*%
G04 APERTURE END LIST*
D10*
X92500000Y-111500000D02*
X92500000Y-114500000D01*
X73250000Y-70500000D02*
X73250000Y-71500000D01*
X73250000Y-92500000D02*
X73250000Y-93500000D01*
X90500000Y-89500000D02*
X90500000Y-92500000D01*
X124500000Y-89500000D02*
X124500000Y-92500000D01*
X124250000Y-92500000D02*
X124250000Y-93500000D01*
X126750000Y-92500000D02*
X126750000Y-93500000D01*
X56500000Y-111500000D02*
X56500000Y-114500000D01*
X90250000Y-114500000D02*
X90250000Y-115500000D01*
X57500000Y-48500000D02*
X57500000Y-50750000D01*
X126500000Y-111500000D02*
X126500000Y-114500000D01*
X58500000Y-45500000D02*
X58500000Y-48500000D01*
X90500000Y-111500000D02*
X90500000Y-114500000D01*
X74500000Y-70500000D02*
X74500000Y-72750000D01*
X72500000Y-89500000D02*
X76500000Y-89500000D01*
X76500000Y-92500000D01*
X72500000Y-92500000D01*
X72500000Y-89500000D01*
X58500000Y-111500000D02*
X58500000Y-114500000D01*
X55500000Y-67500000D02*
X59500000Y-67500000D01*
X59500000Y-70500000D01*
X55500000Y-70500000D01*
X55500000Y-67500000D01*
X57500000Y-92500000D02*
X57500000Y-94750000D01*
X74500000Y-114500000D02*
X74500000Y-116750000D01*
X73250000Y-114500000D02*
X73250000Y-115500000D01*
X107500000Y-111500000D02*
X107500000Y-114500000D01*
X107500000Y-67500000D02*
X107500000Y-70500000D01*
X56500000Y-89500000D02*
X56500000Y-92500000D01*
X55500000Y-111500000D02*
X59500000Y-111500000D01*
X59500000Y-114500000D01*
X55500000Y-114500000D01*
X55500000Y-111500000D01*
X72500000Y-67500000D02*
X76500000Y-67500000D01*
X76500000Y-70500000D01*
X72500000Y-70500000D01*
X72500000Y-67500000D01*
X57500000Y-70500000D02*
X57500000Y-72750000D01*
X57500000Y-114500000D02*
X57500000Y-116750000D01*
X126500000Y-67500000D02*
X126500000Y-70500000D01*
X56250000Y-92500000D02*
X56250000Y-93500000D01*
X72500000Y-111500000D02*
X76500000Y-111500000D01*
X76500000Y-114500000D01*
X72500000Y-114500000D01*
X72500000Y-111500000D01*
X92750000Y-92500000D02*
X92750000Y-93500000D01*
X75750000Y-70500000D02*
X75750000Y-71500000D01*
X73500000Y-111500000D02*
X73500000Y-114500000D01*
X109500000Y-67500000D02*
X109500000Y-70500000D01*
X56500000Y-67500000D02*
X56500000Y-70500000D01*
X124500000Y-111500000D02*
X124500000Y-114500000D01*
X56250000Y-70500000D02*
X56250000Y-71500000D01*
X90500000Y-67500000D02*
X90500000Y-70500000D01*
X109500000Y-89500000D02*
X109500000Y-92500000D01*
X75500000Y-67500000D02*
X75500000Y-70500000D01*
X125500000Y-92500000D02*
X125500000Y-94750000D01*
X106500000Y-67500000D02*
X110500000Y-67500000D01*
X110500000Y-70500000D01*
X106500000Y-70500000D01*
X106500000Y-67500000D01*
X106500000Y-89500000D02*
X110500000Y-89500000D01*
X110500000Y-92500000D01*
X106500000Y-92500000D01*
X106500000Y-89500000D01*
X55500000Y-45500000D02*
X59500000Y-45500000D01*
X59500000Y-48500000D01*
X55500000Y-48500000D01*
X55500000Y-45500000D01*
X107250000Y-92500000D02*
X107250000Y-93500000D01*
X58750000Y-92500000D02*
X58750000Y-93500000D01*
X126500000Y-89500000D02*
X126500000Y-92500000D01*
X107250000Y-70500000D02*
X107250000Y-71500000D01*
X109500000Y-111500000D02*
X109500000Y-114500000D01*
X58500000Y-89500000D02*
X58500000Y-92500000D01*
X123500000Y-67500000D02*
X127500000Y-67500000D01*
X127500000Y-70500000D01*
X123500000Y-70500000D01*
X123500000Y-67500000D01*
X90250000Y-70500000D02*
X90250000Y-71500000D01*
X108500000Y-114500000D02*
X108500000Y-116750000D01*
X75500000Y-111500000D02*
X75500000Y-114500000D01*
X75750000Y-114500000D02*
X75750000Y-115500000D01*
X58750000Y-70500000D02*
X58750000Y-71500000D01*
X55500000Y-89500000D02*
X59500000Y-89500000D01*
X59500000Y-92500000D01*
X55500000Y-92500000D01*
X55500000Y-89500000D01*
X107500000Y-89500000D02*
X107500000Y-92500000D01*
X58750000Y-48500000D02*
X58750000Y-49500000D01*
X126750000Y-70500000D02*
X126750000Y-71500000D01*
X73500000Y-89500000D02*
X73500000Y-92500000D01*
X74500000Y-92500000D02*
X74500000Y-94750000D01*
X109750000Y-114500000D02*
X109750000Y-115500000D01*
X124500000Y-67500000D02*
X124500000Y-70500000D01*
X124250000Y-114500000D02*
X124250000Y-115500000D01*
X123500000Y-111500000D02*
X127500000Y-111500000D01*
X127500000Y-114500000D01*
X123500000Y-114500000D01*
X123500000Y-111500000D01*
X107250000Y-114500000D02*
X107250000Y-115500000D01*
X56500000Y-45500000D02*
X56500000Y-48500000D01*
X109750000Y-92500000D02*
X109750000Y-93500000D01*
X92750000Y-114500000D02*
X92750000Y-115500000D01*
X92500000Y-89500000D02*
X92500000Y-92500000D01*
X125500000Y-114500000D02*
X125500000Y-116750000D01*
X75500000Y-89500000D02*
X75500000Y-92500000D01*
X73500000Y-67500000D02*
X73500000Y-70500000D01*
X58500000Y-67500000D02*
X58500000Y-70500000D01*
X108500000Y-70500000D02*
X108500000Y-72750000D01*
X125500000Y-70500000D02*
X125500000Y-72750000D01*
X89500000Y-89500000D02*
X93500000Y-89500000D01*
X93500000Y-92500000D01*
X89500000Y-92500000D01*
X89500000Y-89500000D01*
X123500000Y-89500000D02*
X127500000Y-89500000D01*
X127500000Y-92500000D01*
X123500000Y-92500000D01*
X123500000Y-89500000D01*
X89500000Y-67500000D02*
X93500000Y-67500000D01*
X93500000Y-70500000D01*
X89500000Y-70500000D01*
X89500000Y-67500000D01*
X92750000Y-70500000D02*
X92750000Y-71500000D01*
X58750000Y-114500000D02*
X58750000Y-115500000D01*
X108500000Y-92500000D02*
X108500000Y-94750000D01*
X56250000Y-48500000D02*
X56250000Y-49500000D01*
X109750000Y-70500000D02*
X109750000Y-71500000D01*
X124250000Y-70500000D02*
X124250000Y-71500000D01*
X92500000Y-67500000D02*
X92500000Y-70500000D01*
X106500000Y-111500000D02*
X110500000Y-111500000D01*
X110500000Y-114500000D01*
X106500000Y-114500000D01*
X106500000Y-111500000D01*
X75750000Y-92500000D02*
X75750000Y-93500000D01*
X91500000Y-92500000D02*
X91500000Y-94750000D01*
X90250000Y-92500000D02*
X90250000Y-93500000D01*
X91500000Y-114500000D02*
X91500000Y-116750000D01*
X89500000Y-111500000D02*
X93500000Y-111500000D01*
X93500000Y-114500000D01*
X89500000Y-114500000D01*
X89500000Y-111500000D01*
X91500000Y-70500000D02*
X91500000Y-72750000D01*
X56250000Y-114500000D02*
X56250000Y-115500000D01*
X126750000Y-114500000D02*
X126750000Y-115500000D01*
D11*
X58124687Y-89077180D02*
X58172306Y-89124800D01*
X58172306Y-89124800D02*
X58315163Y-89172419D01*
X58315163Y-89172419D02*
X58410401Y-89172419D01*
X58410401Y-89172419D02*
X58553258Y-89124800D01*
X58553258Y-89124800D02*
X58648496Y-89029561D01*
X58648496Y-89029561D02*
X58696115Y-88934323D01*
X58696115Y-88934323D02*
X58743734Y-88743847D01*
X58743734Y-88743847D02*
X58743734Y-88600990D01*
X58743734Y-88600990D02*
X58696115Y-88410514D01*
X58696115Y-88410514D02*
X58648496Y-88315276D01*
X58648496Y-88315276D02*
X58553258Y-88220038D01*
X58553258Y-88220038D02*
X58410401Y-88172419D01*
X58410401Y-88172419D02*
X58315163Y-88172419D01*
X58315163Y-88172419D02*
X58172306Y-88220038D01*
X58172306Y-88220038D02*
X58124687Y-88267657D01*
X57172306Y-89172419D02*
X57743734Y-89172419D01*
X57458020Y-89172419D02*
X57458020Y-88172419D01*
X57458020Y-88172419D02*
X57553258Y-88315276D01*
X57553258Y-88315276D02*
X57648496Y-88410514D01*
X57648496Y-88410514D02*
X57743734Y-88458133D01*
X56553258Y-88172419D02*
X56458020Y-88172419D01*
X56458020Y-88172419D02*
X56362782Y-88220038D01*
X56362782Y-88220038D02*
X56315163Y-88267657D01*
X56315163Y-88267657D02*
X56267544Y-88362895D01*
X56267544Y-88362895D02*
X56219925Y-88553371D01*
X56219925Y-88553371D02*
X56219925Y-88791466D01*
X56219925Y-88791466D02*
X56267544Y-88981942D01*
X56267544Y-88981942D02*
X56315163Y-89077180D01*
X56315163Y-89077180D02*
X56362782Y-89124800D01*
X56362782Y-89124800D02*
X56458020Y-89172419D01*
X56458020Y-89172419D02*
X56553258Y-89172419D01*
X56553258Y-89172419D02*
X56648496Y-89124800D01*
X56648496Y-89124800D02*
X56696115Y-89077180D01*
X56696115Y-89077180D02*
X56743734Y-88981942D01*
X56743734Y-88981942D02*
X56791353Y-88791466D01*
X56791353Y-88791466D02*
X56791353Y-88553371D01*
X56791353Y-88553371D02*
X56743734Y-88362895D01*
X56743734Y-88362895D02*
X56696115Y-88267657D01*
X56696115Y-88267657D02*
X56648496Y-88220038D01*
X56648496Y-88220038D02*
X56553258Y-88172419D01*
X58124687Y-111077180D02*
X58172306Y-111124800D01*
X58172306Y-111124800D02*
X58315163Y-111172419D01*
X58315163Y-111172419D02*
X58410401Y-111172419D01*
X58410401Y-111172419D02*
X58553258Y-111124800D01*
X58553258Y-111124800D02*
X58648496Y-111029561D01*
X58648496Y-111029561D02*
X58696115Y-110934323D01*
X58696115Y-110934323D02*
X58743734Y-110743847D01*
X58743734Y-110743847D02*
X58743734Y-110600990D01*
X58743734Y-110600990D02*
X58696115Y-110410514D01*
X58696115Y-110410514D02*
X58648496Y-110315276D01*
X58648496Y-110315276D02*
X58553258Y-110220038D01*
X58553258Y-110220038D02*
X58410401Y-110172419D01*
X58410401Y-110172419D02*
X58315163Y-110172419D01*
X58315163Y-110172419D02*
X58172306Y-110220038D01*
X58172306Y-110220038D02*
X58124687Y-110267657D01*
X57172306Y-111172419D02*
X57743734Y-111172419D01*
X57458020Y-111172419D02*
X57458020Y-110172419D01*
X57458020Y-110172419D02*
X57553258Y-110315276D01*
X57553258Y-110315276D02*
X57648496Y-110410514D01*
X57648496Y-110410514D02*
X57743734Y-110458133D01*
X56219925Y-111172419D02*
X56791353Y-111172419D01*
X56505639Y-111172419D02*
X56505639Y-110172419D01*
X56505639Y-110172419D02*
X56600877Y-110315276D01*
X56600877Y-110315276D02*
X56696115Y-110410514D01*
X56696115Y-110410514D02*
X56791353Y-110458133D01*
X126224687Y-111077180D02*
X126272306Y-111124800D01*
X126272306Y-111124800D02*
X126415163Y-111172419D01*
X126415163Y-111172419D02*
X126510401Y-111172419D01*
X126510401Y-111172419D02*
X126653258Y-111124800D01*
X126653258Y-111124800D02*
X126748496Y-111029561D01*
X126748496Y-111029561D02*
X126796115Y-110934323D01*
X126796115Y-110934323D02*
X126843734Y-110743847D01*
X126843734Y-110743847D02*
X126843734Y-110600990D01*
X126843734Y-110600990D02*
X126796115Y-110410514D01*
X126796115Y-110410514D02*
X126748496Y-110315276D01*
X126748496Y-110315276D02*
X126653258Y-110220038D01*
X126653258Y-110220038D02*
X126510401Y-110172419D01*
X126510401Y-110172419D02*
X126415163Y-110172419D01*
X126415163Y-110172419D02*
X126272306Y-110220038D01*
X126272306Y-110220038D02*
X126224687Y-110267657D01*
X125272306Y-111172419D02*
X125843734Y-111172419D01*
X125558020Y-111172419D02*
X125558020Y-110172419D01*
X125558020Y-110172419D02*
X125653258Y-110315276D01*
X125653258Y-110315276D02*
X125748496Y-110410514D01*
X125748496Y-110410514D02*
X125843734Y-110458133D01*
X124891353Y-110267657D02*
X124843734Y-110220038D01*
X124843734Y-110220038D02*
X124748496Y-110172419D01*
X124748496Y-110172419D02*
X124510401Y-110172419D01*
X124510401Y-110172419D02*
X124415163Y-110220038D01*
X124415163Y-110220038D02*
X124367544Y-110267657D01*
X124367544Y-110267657D02*
X124319925Y-110362895D01*
X124319925Y-110362895D02*
X124319925Y-110458133D01*
X124319925Y-110458133D02*
X124367544Y-110600990D01*
X124367544Y-110600990D02*
X124938972Y-111172419D01*
X124938972Y-111172419D02*
X124319925Y-111172419D01*
X57724687Y-45077180D02*
X57772306Y-45124800D01*
X57772306Y-45124800D02*
X57915163Y-45172419D01*
X57915163Y-45172419D02*
X58010401Y-45172419D01*
X58010401Y-45172419D02*
X58153258Y-45124800D01*
X58153258Y-45124800D02*
X58248496Y-45029561D01*
X58248496Y-45029561D02*
X58296115Y-44934323D01*
X58296115Y-44934323D02*
X58343734Y-44743847D01*
X58343734Y-44743847D02*
X58343734Y-44600990D01*
X58343734Y-44600990D02*
X58296115Y-44410514D01*
X58296115Y-44410514D02*
X58248496Y-44315276D01*
X58248496Y-44315276D02*
X58153258Y-44220038D01*
X58153258Y-44220038D02*
X58010401Y-44172419D01*
X58010401Y-44172419D02*
X57915163Y-44172419D01*
X57915163Y-44172419D02*
X57772306Y-44220038D01*
X57772306Y-44220038D02*
X57724687Y-44267657D01*
X57153258Y-44600990D02*
X57248496Y-44553371D01*
X57248496Y-44553371D02*
X57296115Y-44505752D01*
X57296115Y-44505752D02*
X57343734Y-44410514D01*
X57343734Y-44410514D02*
X57343734Y-44362895D01*
X57343734Y-44362895D02*
X57296115Y-44267657D01*
X57296115Y-44267657D02*
X57248496Y-44220038D01*
X57248496Y-44220038D02*
X57153258Y-44172419D01*
X57153258Y-44172419D02*
X56962782Y-44172419D01*
X56962782Y-44172419D02*
X56867544Y-44220038D01*
X56867544Y-44220038D02*
X56819925Y-44267657D01*
X56819925Y-44267657D02*
X56772306Y-44362895D01*
X56772306Y-44362895D02*
X56772306Y-44410514D01*
X56772306Y-44410514D02*
X56819925Y-44505752D01*
X56819925Y-44505752D02*
X56867544Y-44553371D01*
X56867544Y-44553371D02*
X56962782Y-44600990D01*
X56962782Y-44600990D02*
X57153258Y-44600990D01*
X57153258Y-44600990D02*
X57248496Y-44648609D01*
X57248496Y-44648609D02*
X57296115Y-44696228D01*
X57296115Y-44696228D02*
X57343734Y-44791466D01*
X57343734Y-44791466D02*
X57343734Y-44981942D01*
X57343734Y-44981942D02*
X57296115Y-45077180D01*
X57296115Y-45077180D02*
X57248496Y-45124800D01*
X57248496Y-45124800D02*
X57153258Y-45172419D01*
X57153258Y-45172419D02*
X56962782Y-45172419D01*
X56962782Y-45172419D02*
X56867544Y-45124800D01*
X56867544Y-45124800D02*
X56819925Y-45077180D01*
X56819925Y-45077180D02*
X56772306Y-44981942D01*
X56772306Y-44981942D02*
X56772306Y-44791466D01*
X56772306Y-44791466D02*
X56819925Y-44696228D01*
X56819925Y-44696228D02*
X56867544Y-44648609D01*
X56867544Y-44648609D02*
X56962782Y-44600990D01*
X125724687Y-67077180D02*
X125772306Y-67124800D01*
X125772306Y-67124800D02*
X125915163Y-67172419D01*
X125915163Y-67172419D02*
X126010401Y-67172419D01*
X126010401Y-67172419D02*
X126153258Y-67124800D01*
X126153258Y-67124800D02*
X126248496Y-67029561D01*
X126248496Y-67029561D02*
X126296115Y-66934323D01*
X126296115Y-66934323D02*
X126343734Y-66743847D01*
X126343734Y-66743847D02*
X126343734Y-66600990D01*
X126343734Y-66600990D02*
X126296115Y-66410514D01*
X126296115Y-66410514D02*
X126248496Y-66315276D01*
X126248496Y-66315276D02*
X126153258Y-66220038D01*
X126153258Y-66220038D02*
X126010401Y-66172419D01*
X126010401Y-66172419D02*
X125915163Y-66172419D01*
X125915163Y-66172419D02*
X125772306Y-66220038D01*
X125772306Y-66220038D02*
X125724687Y-66267657D01*
X124867544Y-66505752D02*
X124867544Y-67172419D01*
X125105639Y-66124800D02*
X125343734Y-66839085D01*
X125343734Y-66839085D02*
X124724687Y-66839085D01*
X91624687Y-89077180D02*
X91672306Y-89124800D01*
X91672306Y-89124800D02*
X91815163Y-89172419D01*
X91815163Y-89172419D02*
X91910401Y-89172419D01*
X91910401Y-89172419D02*
X92053258Y-89124800D01*
X92053258Y-89124800D02*
X92148496Y-89029561D01*
X92148496Y-89029561D02*
X92196115Y-88934323D01*
X92196115Y-88934323D02*
X92243734Y-88743847D01*
X92243734Y-88743847D02*
X92243734Y-88600990D01*
X92243734Y-88600990D02*
X92196115Y-88410514D01*
X92196115Y-88410514D02*
X92148496Y-88315276D01*
X92148496Y-88315276D02*
X92053258Y-88220038D01*
X92053258Y-88220038D02*
X91910401Y-88172419D01*
X91910401Y-88172419D02*
X91815163Y-88172419D01*
X91815163Y-88172419D02*
X91672306Y-88220038D01*
X91672306Y-88220038D02*
X91624687Y-88267657D01*
X91243734Y-88267657D02*
X91196115Y-88220038D01*
X91196115Y-88220038D02*
X91100877Y-88172419D01*
X91100877Y-88172419D02*
X90862782Y-88172419D01*
X90862782Y-88172419D02*
X90767544Y-88220038D01*
X90767544Y-88220038D02*
X90719925Y-88267657D01*
X90719925Y-88267657D02*
X90672306Y-88362895D01*
X90672306Y-88362895D02*
X90672306Y-88458133D01*
X90672306Y-88458133D02*
X90719925Y-88600990D01*
X90719925Y-88600990D02*
X91291353Y-89172419D01*
X91291353Y-89172419D02*
X90672306Y-89172419D01*
X108624687Y-89077180D02*
X108672306Y-89124800D01*
X108672306Y-89124800D02*
X108815163Y-89172419D01*
X108815163Y-89172419D02*
X108910401Y-89172419D01*
X108910401Y-89172419D02*
X109053258Y-89124800D01*
X109053258Y-89124800D02*
X109148496Y-89029561D01*
X109148496Y-89029561D02*
X109196115Y-88934323D01*
X109196115Y-88934323D02*
X109243734Y-88743847D01*
X109243734Y-88743847D02*
X109243734Y-88600990D01*
X109243734Y-88600990D02*
X109196115Y-88410514D01*
X109196115Y-88410514D02*
X109148496Y-88315276D01*
X109148496Y-88315276D02*
X109053258Y-88220038D01*
X109053258Y-88220038D02*
X108910401Y-88172419D01*
X108910401Y-88172419D02*
X108815163Y-88172419D01*
X108815163Y-88172419D02*
X108672306Y-88220038D01*
X108672306Y-88220038D02*
X108624687Y-88267657D01*
X107672306Y-89172419D02*
X108243734Y-89172419D01*
X107958020Y-89172419D02*
X107958020Y-88172419D01*
X107958020Y-88172419D02*
X108053258Y-88315276D01*
X108053258Y-88315276D02*
X108148496Y-88410514D01*
X108148496Y-88410514D02*
X108243734Y-88458133D01*
X74624687Y-89077180D02*
X74672306Y-89124800D01*
X74672306Y-89124800D02*
X74815163Y-89172419D01*
X74815163Y-89172419D02*
X74910401Y-89172419D01*
X74910401Y-89172419D02*
X75053258Y-89124800D01*
X75053258Y-89124800D02*
X75148496Y-89029561D01*
X75148496Y-89029561D02*
X75196115Y-88934323D01*
X75196115Y-88934323D02*
X75243734Y-88743847D01*
X75243734Y-88743847D02*
X75243734Y-88600990D01*
X75243734Y-88600990D02*
X75196115Y-88410514D01*
X75196115Y-88410514D02*
X75148496Y-88315276D01*
X75148496Y-88315276D02*
X75053258Y-88220038D01*
X75053258Y-88220038D02*
X74910401Y-88172419D01*
X74910401Y-88172419D02*
X74815163Y-88172419D01*
X74815163Y-88172419D02*
X74672306Y-88220038D01*
X74672306Y-88220038D02*
X74624687Y-88267657D01*
X74291353Y-88172419D02*
X73672306Y-88172419D01*
X73672306Y-88172419D02*
X74005639Y-88553371D01*
X74005639Y-88553371D02*
X73862782Y-88553371D01*
X73862782Y-88553371D02*
X73767544Y-88600990D01*
X73767544Y-88600990D02*
X73719925Y-88648609D01*
X73719925Y-88648609D02*
X73672306Y-88743847D01*
X73672306Y-88743847D02*
X73672306Y-88981942D01*
X73672306Y-88981942D02*
X73719925Y-89077180D01*
X73719925Y-89077180D02*
X73767544Y-89124800D01*
X73767544Y-89124800D02*
X73862782Y-89172419D01*
X73862782Y-89172419D02*
X74148496Y-89172419D01*
X74148496Y-89172419D02*
X74243734Y-89124800D01*
X74243734Y-89124800D02*
X74291353Y-89077180D01*
X91724687Y-67077180D02*
X91772306Y-67124800D01*
X91772306Y-67124800D02*
X91915163Y-67172419D01*
X91915163Y-67172419D02*
X92010401Y-67172419D01*
X92010401Y-67172419D02*
X92153258Y-67124800D01*
X92153258Y-67124800D02*
X92248496Y-67029561D01*
X92248496Y-67029561D02*
X92296115Y-66934323D01*
X92296115Y-66934323D02*
X92343734Y-66743847D01*
X92343734Y-66743847D02*
X92343734Y-66600990D01*
X92343734Y-66600990D02*
X92296115Y-66410514D01*
X92296115Y-66410514D02*
X92248496Y-66315276D01*
X92248496Y-66315276D02*
X92153258Y-66220038D01*
X92153258Y-66220038D02*
X92010401Y-66172419D01*
X92010401Y-66172419D02*
X91915163Y-66172419D01*
X91915163Y-66172419D02*
X91772306Y-66220038D01*
X91772306Y-66220038D02*
X91724687Y-66267657D01*
X90867544Y-66172419D02*
X91058020Y-66172419D01*
X91058020Y-66172419D02*
X91153258Y-66220038D01*
X91153258Y-66220038D02*
X91200877Y-66267657D01*
X91200877Y-66267657D02*
X91296115Y-66410514D01*
X91296115Y-66410514D02*
X91343734Y-66600990D01*
X91343734Y-66600990D02*
X91343734Y-66981942D01*
X91343734Y-66981942D02*
X91296115Y-67077180D01*
X91296115Y-67077180D02*
X91248496Y-67124800D01*
X91248496Y-67124800D02*
X91153258Y-67172419D01*
X91153258Y-67172419D02*
X90962782Y-67172419D01*
X90962782Y-67172419D02*
X90867544Y-67124800D01*
X90867544Y-67124800D02*
X90819925Y-67077180D01*
X90819925Y-67077180D02*
X90772306Y-66981942D01*
X90772306Y-66981942D02*
X90772306Y-66743847D01*
X90772306Y-66743847D02*
X90819925Y-66648609D01*
X90819925Y-66648609D02*
X90867544Y-66600990D01*
X90867544Y-66600990D02*
X90962782Y-66553371D01*
X90962782Y-66553371D02*
X91153258Y-66553371D01*
X91153258Y-66553371D02*
X91248496Y-66600990D01*
X91248496Y-66600990D02*
X91296115Y-66648609D01*
X91296115Y-66648609D02*
X91343734Y-66743847D01*
X109024687Y-111077180D02*
X109072306Y-111124800D01*
X109072306Y-111124800D02*
X109215163Y-111172419D01*
X109215163Y-111172419D02*
X109310401Y-111172419D01*
X109310401Y-111172419D02*
X109453258Y-111124800D01*
X109453258Y-111124800D02*
X109548496Y-111029561D01*
X109548496Y-111029561D02*
X109596115Y-110934323D01*
X109596115Y-110934323D02*
X109643734Y-110743847D01*
X109643734Y-110743847D02*
X109643734Y-110600990D01*
X109643734Y-110600990D02*
X109596115Y-110410514D01*
X109596115Y-110410514D02*
X109548496Y-110315276D01*
X109548496Y-110315276D02*
X109453258Y-110220038D01*
X109453258Y-110220038D02*
X109310401Y-110172419D01*
X109310401Y-110172419D02*
X109215163Y-110172419D01*
X109215163Y-110172419D02*
X109072306Y-110220038D01*
X109072306Y-110220038D02*
X109024687Y-110267657D01*
X108072306Y-111172419D02*
X108643734Y-111172419D01*
X108358020Y-111172419D02*
X108358020Y-110172419D01*
X108358020Y-110172419D02*
X108453258Y-110315276D01*
X108453258Y-110315276D02*
X108548496Y-110410514D01*
X108548496Y-110410514D02*
X108643734Y-110458133D01*
X107738972Y-110172419D02*
X107119925Y-110172419D01*
X107119925Y-110172419D02*
X107453258Y-110553371D01*
X107453258Y-110553371D02*
X107310401Y-110553371D01*
X107310401Y-110553371D02*
X107215163Y-110600990D01*
X107215163Y-110600990D02*
X107167544Y-110648609D01*
X107167544Y-110648609D02*
X107119925Y-110743847D01*
X107119925Y-110743847D02*
X107119925Y-110981942D01*
X107119925Y-110981942D02*
X107167544Y-111077180D01*
X107167544Y-111077180D02*
X107215163Y-111124800D01*
X107215163Y-111124800D02*
X107310401Y-111172419D01*
X107310401Y-111172419D02*
X107596115Y-111172419D01*
X107596115Y-111172419D02*
X107691353Y-111124800D01*
X107691353Y-111124800D02*
X107738972Y-111077180D01*
X92224687Y-111077180D02*
X92272306Y-111124800D01*
X92272306Y-111124800D02*
X92415163Y-111172419D01*
X92415163Y-111172419D02*
X92510401Y-111172419D01*
X92510401Y-111172419D02*
X92653258Y-111124800D01*
X92653258Y-111124800D02*
X92748496Y-111029561D01*
X92748496Y-111029561D02*
X92796115Y-110934323D01*
X92796115Y-110934323D02*
X92843734Y-110743847D01*
X92843734Y-110743847D02*
X92843734Y-110600990D01*
X92843734Y-110600990D02*
X92796115Y-110410514D01*
X92796115Y-110410514D02*
X92748496Y-110315276D01*
X92748496Y-110315276D02*
X92653258Y-110220038D01*
X92653258Y-110220038D02*
X92510401Y-110172419D01*
X92510401Y-110172419D02*
X92415163Y-110172419D01*
X92415163Y-110172419D02*
X92272306Y-110220038D01*
X92272306Y-110220038D02*
X92224687Y-110267657D01*
X91272306Y-111172419D02*
X91843734Y-111172419D01*
X91558020Y-111172419D02*
X91558020Y-110172419D01*
X91558020Y-110172419D02*
X91653258Y-110315276D01*
X91653258Y-110315276D02*
X91748496Y-110410514D01*
X91748496Y-110410514D02*
X91843734Y-110458133D01*
X90415163Y-110505752D02*
X90415163Y-111172419D01*
X90653258Y-110124800D02*
X90891353Y-110839085D01*
X90891353Y-110839085D02*
X90272306Y-110839085D01*
X75124687Y-111077180D02*
X75172306Y-111124800D01*
X75172306Y-111124800D02*
X75315163Y-111172419D01*
X75315163Y-111172419D02*
X75410401Y-111172419D01*
X75410401Y-111172419D02*
X75553258Y-111124800D01*
X75553258Y-111124800D02*
X75648496Y-111029561D01*
X75648496Y-111029561D02*
X75696115Y-110934323D01*
X75696115Y-110934323D02*
X75743734Y-110743847D01*
X75743734Y-110743847D02*
X75743734Y-110600990D01*
X75743734Y-110600990D02*
X75696115Y-110410514D01*
X75696115Y-110410514D02*
X75648496Y-110315276D01*
X75648496Y-110315276D02*
X75553258Y-110220038D01*
X75553258Y-110220038D02*
X75410401Y-110172419D01*
X75410401Y-110172419D02*
X75315163Y-110172419D01*
X75315163Y-110172419D02*
X75172306Y-110220038D01*
X75172306Y-110220038D02*
X75124687Y-110267657D01*
X74172306Y-111172419D02*
X74743734Y-111172419D01*
X74458020Y-111172419D02*
X74458020Y-110172419D01*
X74458020Y-110172419D02*
X74553258Y-110315276D01*
X74553258Y-110315276D02*
X74648496Y-110410514D01*
X74648496Y-110410514D02*
X74743734Y-110458133D01*
X73267544Y-110172419D02*
X73743734Y-110172419D01*
X73743734Y-110172419D02*
X73791353Y-110648609D01*
X73791353Y-110648609D02*
X73743734Y-110600990D01*
X73743734Y-110600990D02*
X73648496Y-110553371D01*
X73648496Y-110553371D02*
X73410401Y-110553371D01*
X73410401Y-110553371D02*
X73315163Y-110600990D01*
X73315163Y-110600990D02*
X73267544Y-110648609D01*
X73267544Y-110648609D02*
X73219925Y-110743847D01*
X73219925Y-110743847D02*
X73219925Y-110981942D01*
X73219925Y-110981942D02*
X73267544Y-111077180D01*
X73267544Y-111077180D02*
X73315163Y-111124800D01*
X73315163Y-111124800D02*
X73410401Y-111172419D01*
X73410401Y-111172419D02*
X73648496Y-111172419D01*
X73648496Y-111172419D02*
X73743734Y-111124800D01*
X73743734Y-111124800D02*
X73791353Y-111077180D01*
X125624687Y-89077180D02*
X125672306Y-89124800D01*
X125672306Y-89124800D02*
X125815163Y-89172419D01*
X125815163Y-89172419D02*
X125910401Y-89172419D01*
X125910401Y-89172419D02*
X126053258Y-89124800D01*
X126053258Y-89124800D02*
X126148496Y-89029561D01*
X126148496Y-89029561D02*
X126196115Y-88934323D01*
X126196115Y-88934323D02*
X126243734Y-88743847D01*
X126243734Y-88743847D02*
X126243734Y-88600990D01*
X126243734Y-88600990D02*
X126196115Y-88410514D01*
X126196115Y-88410514D02*
X126148496Y-88315276D01*
X126148496Y-88315276D02*
X126053258Y-88220038D01*
X126053258Y-88220038D02*
X125910401Y-88172419D01*
X125910401Y-88172419D02*
X125815163Y-88172419D01*
X125815163Y-88172419D02*
X125672306Y-88220038D01*
X125672306Y-88220038D02*
X125624687Y-88267657D01*
X125005639Y-88172419D02*
X124910401Y-88172419D01*
X124910401Y-88172419D02*
X124815163Y-88220038D01*
X124815163Y-88220038D02*
X124767544Y-88267657D01*
X124767544Y-88267657D02*
X124719925Y-88362895D01*
X124719925Y-88362895D02*
X124672306Y-88553371D01*
X124672306Y-88553371D02*
X124672306Y-88791466D01*
X124672306Y-88791466D02*
X124719925Y-88981942D01*
X124719925Y-88981942D02*
X124767544Y-89077180D01*
X124767544Y-89077180D02*
X124815163Y-89124800D01*
X124815163Y-89124800D02*
X124910401Y-89172419D01*
X124910401Y-89172419D02*
X125005639Y-89172419D01*
X125005639Y-89172419D02*
X125100877Y-89124800D01*
X125100877Y-89124800D02*
X125148496Y-89077180D01*
X125148496Y-89077180D02*
X125196115Y-88981942D01*
X125196115Y-88981942D02*
X125243734Y-88791466D01*
X125243734Y-88791466D02*
X125243734Y-88553371D01*
X125243734Y-88553371D02*
X125196115Y-88362895D01*
X125196115Y-88362895D02*
X125148496Y-88267657D01*
X125148496Y-88267657D02*
X125100877Y-88220038D01*
X125100877Y-88220038D02*
X125005639Y-88172419D01*
X57624687Y-67077180D02*
X57672306Y-67124800D01*
X57672306Y-67124800D02*
X57815163Y-67172419D01*
X57815163Y-67172419D02*
X57910401Y-67172419D01*
X57910401Y-67172419D02*
X58053258Y-67124800D01*
X58053258Y-67124800D02*
X58148496Y-67029561D01*
X58148496Y-67029561D02*
X58196115Y-66934323D01*
X58196115Y-66934323D02*
X58243734Y-66743847D01*
X58243734Y-66743847D02*
X58243734Y-66600990D01*
X58243734Y-66600990D02*
X58196115Y-66410514D01*
X58196115Y-66410514D02*
X58148496Y-66315276D01*
X58148496Y-66315276D02*
X58053258Y-66220038D01*
X58053258Y-66220038D02*
X57910401Y-66172419D01*
X57910401Y-66172419D02*
X57815163Y-66172419D01*
X57815163Y-66172419D02*
X57672306Y-66220038D01*
X57672306Y-66220038D02*
X57624687Y-66267657D01*
X57148496Y-67172419D02*
X56958020Y-67172419D01*
X56958020Y-67172419D02*
X56862782Y-67124800D01*
X56862782Y-67124800D02*
X56815163Y-67077180D01*
X56815163Y-67077180D02*
X56719925Y-66934323D01*
X56719925Y-66934323D02*
X56672306Y-66743847D01*
X56672306Y-66743847D02*
X56672306Y-66362895D01*
X56672306Y-66362895D02*
X56719925Y-66267657D01*
X56719925Y-66267657D02*
X56767544Y-66220038D01*
X56767544Y-66220038D02*
X56862782Y-66172419D01*
X56862782Y-66172419D02*
X57053258Y-66172419D01*
X57053258Y-66172419D02*
X57148496Y-66220038D01*
X57148496Y-66220038D02*
X57196115Y-66267657D01*
X57196115Y-66267657D02*
X57243734Y-66362895D01*
X57243734Y-66362895D02*
X57243734Y-66600990D01*
X57243734Y-66600990D02*
X57196115Y-66696228D01*
X57196115Y-66696228D02*
X57148496Y-66743847D01*
X57148496Y-66743847D02*
X57053258Y-66791466D01*
X57053258Y-66791466D02*
X56862782Y-66791466D01*
X56862782Y-66791466D02*
X56767544Y-66743847D01*
X56767544Y-66743847D02*
X56719925Y-66696228D01*
X56719925Y-66696228D02*
X56672306Y-66600990D01*
X108724687Y-67077180D02*
X108772306Y-67124800D01*
X108772306Y-67124800D02*
X108915163Y-67172419D01*
X108915163Y-67172419D02*
X109010401Y-67172419D01*
X109010401Y-67172419D02*
X109153258Y-67124800D01*
X109153258Y-67124800D02*
X109248496Y-67029561D01*
X109248496Y-67029561D02*
X109296115Y-66934323D01*
X109296115Y-66934323D02*
X109343734Y-66743847D01*
X109343734Y-66743847D02*
X109343734Y-66600990D01*
X109343734Y-66600990D02*
X109296115Y-66410514D01*
X109296115Y-66410514D02*
X109248496Y-66315276D01*
X109248496Y-66315276D02*
X109153258Y-66220038D01*
X109153258Y-66220038D02*
X109010401Y-66172419D01*
X109010401Y-66172419D02*
X108915163Y-66172419D01*
X108915163Y-66172419D02*
X108772306Y-66220038D01*
X108772306Y-66220038D02*
X108724687Y-66267657D01*
X107819925Y-66172419D02*
X108296115Y-66172419D01*
X108296115Y-66172419D02*
X108343734Y-66648609D01*
X108343734Y-66648609D02*
X108296115Y-66600990D01*
X108296115Y-66600990D02*
X108200877Y-66553371D01*
X108200877Y-66553371D02*
X107962782Y-66553371D01*
X107962782Y-66553371D02*
X107867544Y-66600990D01*
X107867544Y-66600990D02*
X107819925Y-66648609D01*
X107819925Y-66648609D02*
X107772306Y-66743847D01*
X107772306Y-66743847D02*
X107772306Y-66981942D01*
X107772306Y-66981942D02*
X107819925Y-67077180D01*
X107819925Y-67077180D02*
X107867544Y-67124800D01*
X107867544Y-67124800D02*
X107962782Y-67172419D01*
X107962782Y-67172419D02*
X108200877Y-67172419D01*
X108200877Y-67172419D02*
X108296115Y-67124800D01*
X108296115Y-67124800D02*
X108343734Y-67077180D01*
X74624687Y-66977180D02*
X74672306Y-67024800D01*
X74672306Y-67024800D02*
X74815163Y-67072419D01*
X74815163Y-67072419D02*
X74910401Y-67072419D01*
X74910401Y-67072419D02*
X75053258Y-67024800D01*
X75053258Y-67024800D02*
X75148496Y-66929561D01*
X75148496Y-66929561D02*
X75196115Y-66834323D01*
X75196115Y-66834323D02*
X75243734Y-66643847D01*
X75243734Y-66643847D02*
X75243734Y-66500990D01*
X75243734Y-66500990D02*
X75196115Y-66310514D01*
X75196115Y-66310514D02*
X75148496Y-66215276D01*
X75148496Y-66215276D02*
X75053258Y-66120038D01*
X75053258Y-66120038D02*
X74910401Y-66072419D01*
X74910401Y-66072419D02*
X74815163Y-66072419D01*
X74815163Y-66072419D02*
X74672306Y-66120038D01*
X74672306Y-66120038D02*
X74624687Y-66167657D01*
X74291353Y-66072419D02*
X73624687Y-66072419D01*
X73624687Y-66072419D02*
X74053258Y-67072419D01*
%LPC*%
D12*
X58771400Y-94139600D03*
X109771400Y-94139600D03*
X74501400Y-117409600D03*
X126771400Y-94139600D03*
X92771400Y-116139600D03*
X108501400Y-73409600D03*
X125501400Y-73409600D03*
X75771400Y-94139600D03*
X91501400Y-73409600D03*
X57501400Y-51409600D03*
X57501400Y-117409600D03*
X57501400Y-95409600D03*
X125501400Y-117409600D03*
X109771400Y-116139600D03*
X91501400Y-117409600D03*
X108501400Y-95409600D03*
D13*
X116170000Y-45750000D03*
D14*
X111090000Y-53370000D03*
D13*
X113630000Y-53370000D03*
X116170000Y-53370000D03*
X118710000Y-53370000D03*
X121250000Y-53370000D03*
X123790000Y-53370000D03*
X126330000Y-53370000D03*
X128870000Y-53370000D03*
X118710000Y-45750000D03*
X126330000Y-45750000D03*
X128870000Y-45750000D03*
X123790000Y-45750000D03*
X121250000Y-45750000D03*
X111090000Y-45750000D03*
X113630000Y-45750000D03*
D12*
X74501400Y-95409600D03*
X75771400Y-116139600D03*
D15*
X50250000Y-74090000D03*
X50250000Y-76630000D03*
X50250000Y-79170000D03*
X50250000Y-81710000D03*
X50250000Y-84250000D03*
X50250000Y-86790000D03*
X50250000Y-99490000D03*
D16*
X50250000Y-71550000D03*
D15*
X50250000Y-89330000D03*
X50250000Y-91870000D03*
X50250000Y-94410000D03*
X50250000Y-96950000D03*
D12*
X74501400Y-73409600D03*
X58771400Y-50139600D03*
D14*
X72491600Y-57327800D03*
D13*
X95351600Y-42087800D03*
X100431600Y-57327800D03*
X92811600Y-57327800D03*
X90271600Y-57327800D03*
X87731600Y-57327800D03*
X85191600Y-57327800D03*
X82651600Y-57327800D03*
X80111600Y-57327800D03*
X77571600Y-57327800D03*
X75031600Y-57327800D03*
X75031600Y-42087800D03*
X77571600Y-42087800D03*
X80111600Y-42087800D03*
X82651600Y-42087800D03*
X85191600Y-42087800D03*
X87731600Y-42087800D03*
X90271600Y-42087800D03*
X92811600Y-42087800D03*
X95351600Y-57327800D03*
X97891600Y-57327800D03*
X97891600Y-42087800D03*
X100431600Y-42087800D03*
X72491600Y-42087800D03*
D12*
X108501400Y-117409600D03*
D15*
X133000000Y-73590000D03*
X133000000Y-76130000D03*
X133000000Y-78670000D03*
X133000000Y-81210000D03*
X133000000Y-83750000D03*
X133000000Y-86290000D03*
X133000000Y-98990000D03*
D16*
X133000000Y-71050000D03*
D15*
X133000000Y-88830000D03*
X133000000Y-91370000D03*
X133000000Y-93910000D03*
X133000000Y-96450000D03*
D12*
X58771400Y-72139600D03*
D15*
X121210000Y-41000000D03*
X128830000Y-41000000D03*
X126290000Y-41000000D03*
X123750000Y-41000000D03*
X131370000Y-41000000D03*
D16*
X108510000Y-41000000D03*
D15*
X118670000Y-41000000D03*
X116130000Y-41000000D03*
X113590000Y-41000000D03*
X111050000Y-41000000D03*
D12*
X92771400Y-94139600D03*
X91501400Y-95409600D03*
X109771400Y-72139600D03*
X58771400Y-116139600D03*
X57501400Y-73409600D03*
X92771400Y-72139600D03*
X75771400Y-72139600D03*
X126771400Y-72139600D03*
X125501400Y-95409600D03*
X126771400Y-116139600D03*
D17*
X56231400Y-72139600D03*
X90231400Y-94139600D03*
X107231400Y-116139600D03*
X56231400Y-50139600D03*
X73231400Y-116139600D03*
X56231400Y-116139600D03*
X56231400Y-94139600D03*
X124231400Y-94139600D03*
X124231400Y-72139600D03*
X90231400Y-116139600D03*
X73231400Y-72139600D03*
X73231400Y-94139600D03*
X90231400Y-72139600D03*
X107231400Y-72139600D03*
X124231400Y-116139600D03*
X107231400Y-94139600D03*
%LPD*%
M02*
