%TF.GenerationSoftware,KiCad,Pcbnew,7.0.6*%
%TF.CreationDate,2023-08-02T15:10:34-04:00*%
%TF.ProjectId,Turing Machine State,54757269-6e67-4204-9d61-6368696e6520,rev?*%
%TF.SameCoordinates,Original*%
%TF.FileFunction,Drillmap*%
%TF.FilePolarity,Positive*%
%FSLAX45Y45*%
G04 Gerber Fmt 4.5, Leading zero omitted, Abs format (unit mm)*
G04 Created by KiCad (PCBNEW 7.0.6) date 2023-08-02 15:10:34*
%MOMM*%
%LPD*%
G01*
G04 APERTURE LIST*
%ADD10C,0.100000*%
%ADD11C,0.200000*%
%ADD12C,0.040000*%
%ADD13C,0.075000*%
%ADD14C,0.080000*%
G04 APERTURE END LIST*
D10*
X4800000Y-3500000D02*
X13500000Y-3500000D01*
X13500000Y-12500000D01*
X4800000Y-12500000D01*
X4800000Y-3500000D01*
D11*
D12*
X6055000Y-7655000D02*
X6095000Y-7695000D01*
X6095000Y-7655000D02*
X6055000Y-7695000D01*
X7705000Y-7655000D02*
X7745000Y-7695000D01*
X7745000Y-7655000D02*
X7705000Y-7695000D01*
X9405000Y-7655000D02*
X9445000Y-7695000D01*
X9445000Y-7655000D02*
X9405000Y-7695000D01*
X11105000Y-7655000D02*
X11145000Y-7695000D01*
X11145000Y-7655000D02*
X11105000Y-7695000D01*
X11330000Y-8355000D02*
X11370000Y-8395000D01*
X11370000Y-8355000D02*
X11330000Y-8395000D01*
X11430000Y-8455000D02*
X11470000Y-8495000D01*
X11470000Y-8455000D02*
X11430000Y-8495000D01*
X11530000Y-8655000D02*
X11570000Y-8695000D01*
X11570000Y-8655000D02*
X11530000Y-8695000D01*
X11655000Y-8555000D02*
X11695000Y-8595000D01*
X11695000Y-8555000D02*
X11655000Y-8595000D01*
X11755000Y-7755000D02*
X11795000Y-7795000D01*
X11795000Y-7755000D02*
X11755000Y-7795000D01*
X11855000Y-7855000D02*
X11895000Y-7895000D01*
X11895000Y-7855000D02*
X11855000Y-7895000D01*
X11955000Y-7955000D02*
X11995000Y-7995000D01*
X11995000Y-7955000D02*
X11955000Y-7995000D01*
X12055000Y-8055000D02*
X12095000Y-8095000D01*
X12095000Y-8055000D02*
X12055000Y-8095000D01*
X12155000Y-8155000D02*
X12195000Y-8195000D01*
X12195000Y-8155000D02*
X12155000Y-8195000D01*
X12255000Y-8255000D02*
X12295000Y-8295000D01*
X12295000Y-8255000D02*
X12255000Y-8295000D01*
X12805000Y-7655000D02*
X12845000Y-7695000D01*
X12845000Y-7655000D02*
X12805000Y-7695000D01*
D13*
X5660640Y-5013960D02*
G75*
G03*
X5660640Y-5013960I-37500J0D01*
G01*
X5660640Y-7213960D02*
G75*
G03*
X5660640Y-7213960I-37500J0D01*
G01*
X5660640Y-9413960D02*
G75*
G03*
X5660640Y-9413960I-37500J0D01*
G01*
X5660640Y-11613960D02*
G75*
G03*
X5660640Y-11613960I-37500J0D01*
G01*
X5787640Y-5140960D02*
G75*
G03*
X5787640Y-5140960I-37500J0D01*
G01*
X5787640Y-7340960D02*
G75*
G03*
X5787640Y-7340960I-37500J0D01*
G01*
X5787640Y-9540960D02*
G75*
G03*
X5787640Y-9540960I-37500J0D01*
G01*
X5787640Y-11740960D02*
G75*
G03*
X5787640Y-11740960I-37500J0D01*
G01*
X5914640Y-5013960D02*
G75*
G03*
X5914640Y-5013960I-37500J0D01*
G01*
X5914640Y-7213960D02*
G75*
G03*
X5914640Y-7213960I-37500J0D01*
G01*
X5914640Y-9413960D02*
G75*
G03*
X5914640Y-9413960I-37500J0D01*
G01*
X5914640Y-11613960D02*
G75*
G03*
X5914640Y-11613960I-37500J0D01*
G01*
X7360640Y-7213960D02*
G75*
G03*
X7360640Y-7213960I-37500J0D01*
G01*
X7360640Y-9413960D02*
G75*
G03*
X7360640Y-9413960I-37500J0D01*
G01*
X7360640Y-11613960D02*
G75*
G03*
X7360640Y-11613960I-37500J0D01*
G01*
X7487640Y-7340960D02*
G75*
G03*
X7487640Y-7340960I-37500J0D01*
G01*
X7487640Y-9540960D02*
G75*
G03*
X7487640Y-9540960I-37500J0D01*
G01*
X7487640Y-11740960D02*
G75*
G03*
X7487640Y-11740960I-37500J0D01*
G01*
X7614640Y-7213960D02*
G75*
G03*
X7614640Y-7213960I-37500J0D01*
G01*
X7614640Y-9413960D02*
G75*
G03*
X7614640Y-9413960I-37500J0D01*
G01*
X7614640Y-11613960D02*
G75*
G03*
X7614640Y-11613960I-37500J0D01*
G01*
X9060640Y-7213960D02*
G75*
G03*
X9060640Y-7213960I-37500J0D01*
G01*
X9060640Y-9413960D02*
G75*
G03*
X9060640Y-9413960I-37500J0D01*
G01*
X9060640Y-11613960D02*
G75*
G03*
X9060640Y-11613960I-37500J0D01*
G01*
X9187640Y-7340960D02*
G75*
G03*
X9187640Y-7340960I-37500J0D01*
G01*
X9187640Y-9540960D02*
G75*
G03*
X9187640Y-9540960I-37500J0D01*
G01*
X9187640Y-11740960D02*
G75*
G03*
X9187640Y-11740960I-37500J0D01*
G01*
X9314640Y-7213960D02*
G75*
G03*
X9314640Y-7213960I-37500J0D01*
G01*
X9314640Y-9413960D02*
G75*
G03*
X9314640Y-9413960I-37500J0D01*
G01*
X9314640Y-11613960D02*
G75*
G03*
X9314640Y-11613960I-37500J0D01*
G01*
X10760640Y-7213960D02*
G75*
G03*
X10760640Y-7213960I-37500J0D01*
G01*
X10760640Y-9413960D02*
G75*
G03*
X10760640Y-9413960I-37500J0D01*
G01*
X10760640Y-11613960D02*
G75*
G03*
X10760640Y-11613960I-37500J0D01*
G01*
X10887640Y-7340960D02*
G75*
G03*
X10887640Y-7340960I-37500J0D01*
G01*
X10887640Y-9540960D02*
G75*
G03*
X10887640Y-9540960I-37500J0D01*
G01*
X10887640Y-11740960D02*
G75*
G03*
X10887640Y-11740960I-37500J0D01*
G01*
X11014640Y-7213960D02*
G75*
G03*
X11014640Y-7213960I-37500J0D01*
G01*
X11014640Y-9413960D02*
G75*
G03*
X11014640Y-9413960I-37500J0D01*
G01*
X11014640Y-11613960D02*
G75*
G03*
X11014640Y-11613960I-37500J0D01*
G01*
X12460640Y-7213960D02*
G75*
G03*
X12460640Y-7213960I-37500J0D01*
G01*
X12460640Y-9413960D02*
G75*
G03*
X12460640Y-9413960I-37500J0D01*
G01*
X12460640Y-11613960D02*
G75*
G03*
X12460640Y-11613960I-37500J0D01*
G01*
X12587640Y-7340960D02*
G75*
G03*
X12587640Y-7340960I-37500J0D01*
G01*
X12587640Y-9540960D02*
G75*
G03*
X12587640Y-9540960I-37500J0D01*
G01*
X12587640Y-11740960D02*
G75*
G03*
X12587640Y-11740960I-37500J0D01*
G01*
X12714640Y-7213960D02*
G75*
G03*
X12714640Y-7213960I-37500J0D01*
G01*
X12714640Y-9413960D02*
G75*
G03*
X12714640Y-9413960I-37500J0D01*
G01*
X12714640Y-11613960D02*
G75*
G03*
X12714640Y-11613960I-37500J0D01*
G01*
D14*
X7250000Y-6210000D02*
X7250000Y-6290000D01*
X7210000Y-6250000D02*
X7290000Y-6250000D01*
X7277444Y-4237065D02*
X7277444Y-4180495D01*
X7220875Y-4180495D01*
X7220875Y-4237065D01*
X7277444Y-4237065D01*
X7277444Y-5761064D02*
X7277444Y-5704495D01*
X7220875Y-5704495D01*
X7220875Y-5761064D01*
X7277444Y-5761064D01*
X7531444Y-4237065D02*
X7531444Y-4180495D01*
X7474875Y-4180495D01*
X7474875Y-4237065D01*
X7531444Y-4237065D01*
X7531444Y-5761064D02*
X7531444Y-5704495D01*
X7474875Y-5704495D01*
X7474875Y-5761064D01*
X7531444Y-5761064D01*
X7785444Y-4237065D02*
X7785444Y-4180495D01*
X7728875Y-4180495D01*
X7728875Y-4237065D01*
X7785444Y-4237065D01*
X7785444Y-5761064D02*
X7785444Y-5704495D01*
X7728875Y-5704495D01*
X7728875Y-5761064D01*
X7785444Y-5761064D01*
X8039444Y-4237065D02*
X8039444Y-4180495D01*
X7982875Y-4180495D01*
X7982875Y-4237065D01*
X8039444Y-4237065D01*
X8039444Y-5761064D02*
X8039444Y-5704495D01*
X7982875Y-5704495D01*
X7982875Y-5761064D01*
X8039444Y-5761064D01*
X8293444Y-4237065D02*
X8293444Y-4180495D01*
X8236875Y-4180495D01*
X8236875Y-4237065D01*
X8293444Y-4237065D01*
X8293444Y-5761064D02*
X8293444Y-5704495D01*
X8236875Y-5704495D01*
X8236875Y-5761064D01*
X8293444Y-5761064D01*
X8547445Y-4237065D02*
X8547445Y-4180495D01*
X8490876Y-4180495D01*
X8490876Y-4237065D01*
X8547445Y-4237065D01*
X8547445Y-5761064D02*
X8547445Y-5704495D01*
X8490876Y-5704495D01*
X8490876Y-5761064D01*
X8547445Y-5761064D01*
X8801445Y-4237065D02*
X8801445Y-4180495D01*
X8744876Y-4180495D01*
X8744876Y-4237065D01*
X8801445Y-4237065D01*
X8801445Y-5761064D02*
X8801445Y-5704495D01*
X8744876Y-5704495D01*
X8744876Y-5761064D01*
X8801445Y-5761064D01*
X9055445Y-4237065D02*
X9055445Y-4180495D01*
X8998876Y-4180495D01*
X8998876Y-4237065D01*
X9055445Y-4237065D01*
X9055445Y-5761064D02*
X9055445Y-5704495D01*
X8998876Y-5704495D01*
X8998876Y-5761064D01*
X9055445Y-5761064D01*
X9309445Y-4237065D02*
X9309445Y-4180495D01*
X9252876Y-4180495D01*
X9252876Y-4237065D01*
X9309445Y-4237065D01*
X9309445Y-5761064D02*
X9309445Y-5704495D01*
X9252876Y-5704495D01*
X9252876Y-5761064D01*
X9309445Y-5761064D01*
X9563445Y-4237065D02*
X9563445Y-4180495D01*
X9506876Y-4180495D01*
X9506876Y-4237065D01*
X9563445Y-4237065D01*
X9563445Y-5761064D02*
X9563445Y-5704495D01*
X9506876Y-5704495D01*
X9506876Y-5761064D01*
X9563445Y-5761064D01*
X9817445Y-4237065D02*
X9817445Y-4180495D01*
X9760876Y-4180495D01*
X9760876Y-4237065D01*
X9817445Y-4237065D01*
X9817445Y-5761064D02*
X9817445Y-5704495D01*
X9760876Y-5704495D01*
X9760876Y-5761064D01*
X9817445Y-5761064D01*
X10071445Y-4237065D02*
X10071445Y-4180495D01*
X10014876Y-4180495D01*
X10014876Y-4237065D01*
X10071445Y-4237065D01*
X10071445Y-5761064D02*
X10071445Y-5704495D01*
X10014876Y-5704495D01*
X10014876Y-5761064D01*
X10071445Y-5761064D01*
X11137285Y-4603285D02*
X11137285Y-4546716D01*
X11080716Y-4546716D01*
X11080716Y-4603285D01*
X11137285Y-4603285D01*
X11137285Y-5365285D02*
X11137285Y-5308716D01*
X11080716Y-5308716D01*
X11080716Y-5365285D01*
X11137285Y-5365285D01*
X11391284Y-4603285D02*
X11391284Y-4546716D01*
X11334715Y-4546716D01*
X11334715Y-4603285D01*
X11391284Y-4603285D01*
X11391284Y-5365285D02*
X11391284Y-5308716D01*
X11334715Y-5308716D01*
X11334715Y-5365285D01*
X11391284Y-5365285D01*
X11645284Y-4603285D02*
X11645284Y-4546716D01*
X11588715Y-4546716D01*
X11588715Y-4603285D01*
X11645284Y-4603285D01*
X11645284Y-5365285D02*
X11645284Y-5308716D01*
X11588715Y-5308716D01*
X11588715Y-5365285D01*
X11645284Y-5365285D01*
X11899284Y-4603285D02*
X11899284Y-4546716D01*
X11842715Y-4546716D01*
X11842715Y-4603285D01*
X11899284Y-4603285D01*
X11899284Y-5365285D02*
X11899284Y-5308716D01*
X11842715Y-5308716D01*
X11842715Y-5365285D01*
X11899284Y-5365285D01*
X12153284Y-4603285D02*
X12153284Y-4546716D01*
X12096715Y-4546716D01*
X12096715Y-4603285D01*
X12153284Y-4603285D01*
X12153284Y-5365285D02*
X12153284Y-5308716D01*
X12096715Y-5308716D01*
X12096715Y-5365285D01*
X12153284Y-5365285D01*
X12407284Y-4603285D02*
X12407284Y-4546716D01*
X12350715Y-4546716D01*
X12350715Y-4603285D01*
X12407284Y-4603285D01*
X12407284Y-5365285D02*
X12407284Y-5308716D01*
X12350715Y-5308716D01*
X12350715Y-5365285D01*
X12407284Y-5365285D01*
X12661284Y-4603285D02*
X12661284Y-4546716D01*
X12604715Y-4546716D01*
X12604715Y-4603285D01*
X12661284Y-4603285D01*
X12661284Y-5365285D02*
X12661284Y-5308716D01*
X12604715Y-5308716D01*
X12604715Y-5365285D01*
X12661284Y-5365285D01*
X12915284Y-4603285D02*
X12915284Y-4546716D01*
X12858715Y-4546716D01*
X12858715Y-4603285D01*
X12915284Y-4603285D01*
X12915284Y-5365285D02*
X12915284Y-5308716D01*
X12858715Y-5308716D01*
X12858715Y-5365285D01*
X12915284Y-5365285D01*
D10*
X5025000Y-7205000D02*
X5075000Y-7155000D01*
X5025000Y-7105000D01*
X4975000Y-7155000D01*
X5025000Y-7205000D01*
X5025000Y-7459000D02*
X5075000Y-7409000D01*
X5025000Y-7359000D01*
X4975000Y-7409000D01*
X5025000Y-7459000D01*
X5025000Y-7713000D02*
X5075000Y-7663000D01*
X5025000Y-7613000D01*
X4975000Y-7663000D01*
X5025000Y-7713000D01*
X5025000Y-7967000D02*
X5075000Y-7917000D01*
X5025000Y-7867000D01*
X4975000Y-7917000D01*
X5025000Y-7967000D01*
X5025000Y-8221000D02*
X5075000Y-8171000D01*
X5025000Y-8121000D01*
X4975000Y-8171000D01*
X5025000Y-8221000D01*
X5025000Y-8475000D02*
X5075000Y-8425000D01*
X5025000Y-8375000D01*
X4975000Y-8425000D01*
X5025000Y-8475000D01*
X5025000Y-8729000D02*
X5075000Y-8679000D01*
X5025000Y-8629000D01*
X4975000Y-8679000D01*
X5025000Y-8729000D01*
X5025000Y-8983000D02*
X5075000Y-8933000D01*
X5025000Y-8883000D01*
X4975000Y-8933000D01*
X5025000Y-8983000D01*
X5025000Y-9237000D02*
X5075000Y-9187000D01*
X5025000Y-9137000D01*
X4975000Y-9187000D01*
X5025000Y-9237000D01*
X5025000Y-9491000D02*
X5075000Y-9441000D01*
X5025000Y-9391000D01*
X4975000Y-9441000D01*
X5025000Y-9491000D01*
X5025000Y-9745000D02*
X5075000Y-9695000D01*
X5025000Y-9645000D01*
X4975000Y-9695000D01*
X5025000Y-9745000D01*
X5025000Y-9999000D02*
X5075000Y-9949000D01*
X5025000Y-9899000D01*
X4975000Y-9949000D01*
X5025000Y-9999000D01*
X10851000Y-4150000D02*
X10901000Y-4100000D01*
X10851000Y-4050000D01*
X10801000Y-4100000D01*
X10851000Y-4150000D01*
X11105000Y-4150000D02*
X11155000Y-4100000D01*
X11105000Y-4050000D01*
X11055000Y-4100000D01*
X11105000Y-4150000D01*
X11359000Y-4150000D02*
X11409000Y-4100000D01*
X11359000Y-4050000D01*
X11309000Y-4100000D01*
X11359000Y-4150000D01*
X11613000Y-4150000D02*
X11663000Y-4100000D01*
X11613000Y-4050000D01*
X11563000Y-4100000D01*
X11613000Y-4150000D01*
X11867000Y-4150000D02*
X11917000Y-4100000D01*
X11867000Y-4050000D01*
X11817000Y-4100000D01*
X11867000Y-4150000D01*
X12121000Y-4150000D02*
X12171000Y-4100000D01*
X12121000Y-4050000D01*
X12071000Y-4100000D01*
X12121000Y-4150000D01*
X12375000Y-4150000D02*
X12425000Y-4100000D01*
X12375000Y-4050000D01*
X12325000Y-4100000D01*
X12375000Y-4150000D01*
X12629000Y-4150000D02*
X12679000Y-4100000D01*
X12629000Y-4050000D01*
X12579000Y-4100000D01*
X12629000Y-4150000D01*
X12883000Y-4150000D02*
X12933000Y-4100000D01*
X12883000Y-4050000D01*
X12833000Y-4100000D01*
X12883000Y-4150000D01*
X13137000Y-4150000D02*
X13187000Y-4100000D01*
X13137000Y-4050000D01*
X13087000Y-4100000D01*
X13137000Y-4150000D01*
X13300000Y-7155000D02*
X13350000Y-7105000D01*
X13300000Y-7055000D01*
X13250000Y-7105000D01*
X13300000Y-7155000D01*
X13300000Y-7409000D02*
X13350000Y-7359000D01*
X13300000Y-7309000D01*
X13250000Y-7359000D01*
X13300000Y-7409000D01*
X13300000Y-7663000D02*
X13350000Y-7613000D01*
X13300000Y-7563000D01*
X13250000Y-7613000D01*
X13300000Y-7663000D01*
X13300000Y-7917000D02*
X13350000Y-7867000D01*
X13300000Y-7817000D01*
X13250000Y-7867000D01*
X13300000Y-7917000D01*
X13300000Y-8171000D02*
X13350000Y-8121000D01*
X13300000Y-8071000D01*
X13250000Y-8121000D01*
X13300000Y-8171000D01*
X13300000Y-8425000D02*
X13350000Y-8375000D01*
X13300000Y-8325000D01*
X13250000Y-8375000D01*
X13300000Y-8425000D01*
X13300000Y-8679000D02*
X13350000Y-8629000D01*
X13300000Y-8579000D01*
X13250000Y-8629000D01*
X13300000Y-8679000D01*
X13300000Y-8933000D02*
X13350000Y-8883000D01*
X13300000Y-8833000D01*
X13250000Y-8883000D01*
X13300000Y-8933000D01*
X13300000Y-9187000D02*
X13350000Y-9137000D01*
X13300000Y-9087000D01*
X13250000Y-9137000D01*
X13300000Y-9187000D01*
X13300000Y-9441000D02*
X13350000Y-9391000D01*
X13300000Y-9341000D01*
X13250000Y-9391000D01*
X13300000Y-9441000D01*
X13300000Y-9695000D02*
X13350000Y-9645000D01*
X13300000Y-9595000D01*
X13250000Y-9645000D01*
X13300000Y-9695000D01*
X13300000Y-9949000D02*
X13350000Y-9899000D01*
X13300000Y-9849000D01*
X13250000Y-9899000D01*
X13300000Y-9949000D01*
D11*
X5055777Y-12816484D02*
X5055777Y-12616484D01*
X5055777Y-12616484D02*
X5103396Y-12616484D01*
X5103396Y-12616484D02*
X5131967Y-12626008D01*
X5131967Y-12626008D02*
X5151015Y-12645055D01*
X5151015Y-12645055D02*
X5160539Y-12664103D01*
X5160539Y-12664103D02*
X5170063Y-12702198D01*
X5170063Y-12702198D02*
X5170063Y-12730769D01*
X5170063Y-12730769D02*
X5160539Y-12768865D01*
X5160539Y-12768865D02*
X5151015Y-12787912D01*
X5151015Y-12787912D02*
X5131967Y-12806960D01*
X5131967Y-12806960D02*
X5103396Y-12816484D01*
X5103396Y-12816484D02*
X5055777Y-12816484D01*
X5255777Y-12816484D02*
X5255777Y-12683150D01*
X5255777Y-12721246D02*
X5265301Y-12702198D01*
X5265301Y-12702198D02*
X5274824Y-12692674D01*
X5274824Y-12692674D02*
X5293872Y-12683150D01*
X5293872Y-12683150D02*
X5312920Y-12683150D01*
X5379586Y-12816484D02*
X5379586Y-12683150D01*
X5379586Y-12616484D02*
X5370063Y-12626008D01*
X5370063Y-12626008D02*
X5379586Y-12635531D01*
X5379586Y-12635531D02*
X5389110Y-12626008D01*
X5389110Y-12626008D02*
X5379586Y-12616484D01*
X5379586Y-12616484D02*
X5379586Y-12635531D01*
X5503396Y-12816484D02*
X5484348Y-12806960D01*
X5484348Y-12806960D02*
X5474824Y-12787912D01*
X5474824Y-12787912D02*
X5474824Y-12616484D01*
X5608158Y-12816484D02*
X5589110Y-12806960D01*
X5589110Y-12806960D02*
X5579586Y-12787912D01*
X5579586Y-12787912D02*
X5579586Y-12616484D01*
X5836729Y-12816484D02*
X5836729Y-12616484D01*
X5836729Y-12616484D02*
X5903396Y-12759341D01*
X5903396Y-12759341D02*
X5970062Y-12616484D01*
X5970062Y-12616484D02*
X5970062Y-12816484D01*
X6151015Y-12816484D02*
X6151015Y-12711722D01*
X6151015Y-12711722D02*
X6141491Y-12692674D01*
X6141491Y-12692674D02*
X6122443Y-12683150D01*
X6122443Y-12683150D02*
X6084348Y-12683150D01*
X6084348Y-12683150D02*
X6065301Y-12692674D01*
X6151015Y-12806960D02*
X6131967Y-12816484D01*
X6131967Y-12816484D02*
X6084348Y-12816484D01*
X6084348Y-12816484D02*
X6065301Y-12806960D01*
X6065301Y-12806960D02*
X6055777Y-12787912D01*
X6055777Y-12787912D02*
X6055777Y-12768865D01*
X6055777Y-12768865D02*
X6065301Y-12749817D01*
X6065301Y-12749817D02*
X6084348Y-12740293D01*
X6084348Y-12740293D02*
X6131967Y-12740293D01*
X6131967Y-12740293D02*
X6151015Y-12730769D01*
X6246253Y-12683150D02*
X6246253Y-12883150D01*
X6246253Y-12692674D02*
X6265301Y-12683150D01*
X6265301Y-12683150D02*
X6303396Y-12683150D01*
X6303396Y-12683150D02*
X6322443Y-12692674D01*
X6322443Y-12692674D02*
X6331967Y-12702198D01*
X6331967Y-12702198D02*
X6341491Y-12721246D01*
X6341491Y-12721246D02*
X6341491Y-12778388D01*
X6341491Y-12778388D02*
X6331967Y-12797436D01*
X6331967Y-12797436D02*
X6322443Y-12806960D01*
X6322443Y-12806960D02*
X6303396Y-12816484D01*
X6303396Y-12816484D02*
X6265301Y-12816484D01*
X6265301Y-12816484D02*
X6246253Y-12806960D01*
X6427205Y-12797436D02*
X6436729Y-12806960D01*
X6436729Y-12806960D02*
X6427205Y-12816484D01*
X6427205Y-12816484D02*
X6417682Y-12806960D01*
X6417682Y-12806960D02*
X6427205Y-12797436D01*
X6427205Y-12797436D02*
X6427205Y-12816484D01*
X6427205Y-12692674D02*
X6436729Y-12702198D01*
X6436729Y-12702198D02*
X6427205Y-12711722D01*
X6427205Y-12711722D02*
X6417682Y-12702198D01*
X6417682Y-12702198D02*
X6427205Y-12692674D01*
X6427205Y-12692674D02*
X6427205Y-12711722D01*
D12*
X4755000Y-13125000D02*
X4795000Y-13165000D01*
X4795000Y-13125000D02*
X4755000Y-13165000D01*
D11*
X5093872Y-13036484D02*
X5112920Y-13036484D01*
X5112920Y-13036484D02*
X5131967Y-13046008D01*
X5131967Y-13046008D02*
X5141491Y-13055531D01*
X5141491Y-13055531D02*
X5151015Y-13074579D01*
X5151015Y-13074579D02*
X5160539Y-13112674D01*
X5160539Y-13112674D02*
X5160539Y-13160293D01*
X5160539Y-13160293D02*
X5151015Y-13198388D01*
X5151015Y-13198388D02*
X5141491Y-13217436D01*
X5141491Y-13217436D02*
X5131967Y-13226960D01*
X5131967Y-13226960D02*
X5112920Y-13236484D01*
X5112920Y-13236484D02*
X5093872Y-13236484D01*
X5093872Y-13236484D02*
X5074824Y-13226960D01*
X5074824Y-13226960D02*
X5065301Y-13217436D01*
X5065301Y-13217436D02*
X5055777Y-13198388D01*
X5055777Y-13198388D02*
X5046253Y-13160293D01*
X5046253Y-13160293D02*
X5046253Y-13112674D01*
X5046253Y-13112674D02*
X5055777Y-13074579D01*
X5055777Y-13074579D02*
X5065301Y-13055531D01*
X5065301Y-13055531D02*
X5074824Y-13046008D01*
X5074824Y-13046008D02*
X5093872Y-13036484D01*
X5246253Y-13217436D02*
X5255777Y-13226960D01*
X5255777Y-13226960D02*
X5246253Y-13236484D01*
X5246253Y-13236484D02*
X5236729Y-13226960D01*
X5236729Y-13226960D02*
X5246253Y-13217436D01*
X5246253Y-13217436D02*
X5246253Y-13236484D01*
X5427205Y-13103150D02*
X5427205Y-13236484D01*
X5379586Y-13026960D02*
X5331967Y-13169817D01*
X5331967Y-13169817D02*
X5455777Y-13169817D01*
X5570063Y-13036484D02*
X5589110Y-13036484D01*
X5589110Y-13036484D02*
X5608158Y-13046008D01*
X5608158Y-13046008D02*
X5617682Y-13055531D01*
X5617682Y-13055531D02*
X5627205Y-13074579D01*
X5627205Y-13074579D02*
X5636729Y-13112674D01*
X5636729Y-13112674D02*
X5636729Y-13160293D01*
X5636729Y-13160293D02*
X5627205Y-13198388D01*
X5627205Y-13198388D02*
X5617682Y-13217436D01*
X5617682Y-13217436D02*
X5608158Y-13226960D01*
X5608158Y-13226960D02*
X5589110Y-13236484D01*
X5589110Y-13236484D02*
X5570063Y-13236484D01*
X5570063Y-13236484D02*
X5551015Y-13226960D01*
X5551015Y-13226960D02*
X5541491Y-13217436D01*
X5541491Y-13217436D02*
X5531967Y-13198388D01*
X5531967Y-13198388D02*
X5522444Y-13160293D01*
X5522444Y-13160293D02*
X5522444Y-13112674D01*
X5522444Y-13112674D02*
X5531967Y-13074579D01*
X5531967Y-13074579D02*
X5541491Y-13055531D01*
X5541491Y-13055531D02*
X5551015Y-13046008D01*
X5551015Y-13046008D02*
X5570063Y-13036484D01*
X5760539Y-13036484D02*
X5779586Y-13036484D01*
X5779586Y-13036484D02*
X5798634Y-13046008D01*
X5798634Y-13046008D02*
X5808158Y-13055531D01*
X5808158Y-13055531D02*
X5817682Y-13074579D01*
X5817682Y-13074579D02*
X5827205Y-13112674D01*
X5827205Y-13112674D02*
X5827205Y-13160293D01*
X5827205Y-13160293D02*
X5817682Y-13198388D01*
X5817682Y-13198388D02*
X5808158Y-13217436D01*
X5808158Y-13217436D02*
X5798634Y-13226960D01*
X5798634Y-13226960D02*
X5779586Y-13236484D01*
X5779586Y-13236484D02*
X5760539Y-13236484D01*
X5760539Y-13236484D02*
X5741491Y-13226960D01*
X5741491Y-13226960D02*
X5731967Y-13217436D01*
X5731967Y-13217436D02*
X5722443Y-13198388D01*
X5722443Y-13198388D02*
X5712920Y-13160293D01*
X5712920Y-13160293D02*
X5712920Y-13112674D01*
X5712920Y-13112674D02*
X5722443Y-13074579D01*
X5722443Y-13074579D02*
X5731967Y-13055531D01*
X5731967Y-13055531D02*
X5741491Y-13046008D01*
X5741491Y-13046008D02*
X5760539Y-13036484D01*
X5912920Y-13236484D02*
X5912920Y-13103150D01*
X5912920Y-13122198D02*
X5922443Y-13112674D01*
X5922443Y-13112674D02*
X5941491Y-13103150D01*
X5941491Y-13103150D02*
X5970063Y-13103150D01*
X5970063Y-13103150D02*
X5989110Y-13112674D01*
X5989110Y-13112674D02*
X5998634Y-13131722D01*
X5998634Y-13131722D02*
X5998634Y-13236484D01*
X5998634Y-13131722D02*
X6008158Y-13112674D01*
X6008158Y-13112674D02*
X6027205Y-13103150D01*
X6027205Y-13103150D02*
X6055777Y-13103150D01*
X6055777Y-13103150D02*
X6074824Y-13112674D01*
X6074824Y-13112674D02*
X6084348Y-13131722D01*
X6084348Y-13131722D02*
X6084348Y-13236484D01*
X6179586Y-13236484D02*
X6179586Y-13103150D01*
X6179586Y-13122198D02*
X6189110Y-13112674D01*
X6189110Y-13112674D02*
X6208158Y-13103150D01*
X6208158Y-13103150D02*
X6236729Y-13103150D01*
X6236729Y-13103150D02*
X6255777Y-13112674D01*
X6255777Y-13112674D02*
X6265301Y-13131722D01*
X6265301Y-13131722D02*
X6265301Y-13236484D01*
X6265301Y-13131722D02*
X6274824Y-13112674D01*
X6274824Y-13112674D02*
X6293872Y-13103150D01*
X6293872Y-13103150D02*
X6322443Y-13103150D01*
X6322443Y-13103150D02*
X6341491Y-13112674D01*
X6341491Y-13112674D02*
X6351015Y-13131722D01*
X6351015Y-13131722D02*
X6351015Y-13236484D01*
X6741491Y-13026960D02*
X6570063Y-13284103D01*
X6998634Y-13036484D02*
X7017682Y-13036484D01*
X7017682Y-13036484D02*
X7036729Y-13046008D01*
X7036729Y-13046008D02*
X7046253Y-13055531D01*
X7046253Y-13055531D02*
X7055777Y-13074579D01*
X7055777Y-13074579D02*
X7065301Y-13112674D01*
X7065301Y-13112674D02*
X7065301Y-13160293D01*
X7065301Y-13160293D02*
X7055777Y-13198388D01*
X7055777Y-13198388D02*
X7046253Y-13217436D01*
X7046253Y-13217436D02*
X7036729Y-13226960D01*
X7036729Y-13226960D02*
X7017682Y-13236484D01*
X7017682Y-13236484D02*
X6998634Y-13236484D01*
X6998634Y-13236484D02*
X6979586Y-13226960D01*
X6979586Y-13226960D02*
X6970063Y-13217436D01*
X6970063Y-13217436D02*
X6960539Y-13198388D01*
X6960539Y-13198388D02*
X6951015Y-13160293D01*
X6951015Y-13160293D02*
X6951015Y-13112674D01*
X6951015Y-13112674D02*
X6960539Y-13074579D01*
X6960539Y-13074579D02*
X6970063Y-13055531D01*
X6970063Y-13055531D02*
X6979586Y-13046008D01*
X6979586Y-13046008D02*
X6998634Y-13036484D01*
X7151015Y-13217436D02*
X7160539Y-13226960D01*
X7160539Y-13226960D02*
X7151015Y-13236484D01*
X7151015Y-13236484D02*
X7141491Y-13226960D01*
X7141491Y-13226960D02*
X7151015Y-13217436D01*
X7151015Y-13217436D02*
X7151015Y-13236484D01*
X7284348Y-13036484D02*
X7303396Y-13036484D01*
X7303396Y-13036484D02*
X7322444Y-13046008D01*
X7322444Y-13046008D02*
X7331967Y-13055531D01*
X7331967Y-13055531D02*
X7341491Y-13074579D01*
X7341491Y-13074579D02*
X7351015Y-13112674D01*
X7351015Y-13112674D02*
X7351015Y-13160293D01*
X7351015Y-13160293D02*
X7341491Y-13198388D01*
X7341491Y-13198388D02*
X7331967Y-13217436D01*
X7331967Y-13217436D02*
X7322444Y-13226960D01*
X7322444Y-13226960D02*
X7303396Y-13236484D01*
X7303396Y-13236484D02*
X7284348Y-13236484D01*
X7284348Y-13236484D02*
X7265301Y-13226960D01*
X7265301Y-13226960D02*
X7255777Y-13217436D01*
X7255777Y-13217436D02*
X7246253Y-13198388D01*
X7246253Y-13198388D02*
X7236729Y-13160293D01*
X7236729Y-13160293D02*
X7236729Y-13112674D01*
X7236729Y-13112674D02*
X7246253Y-13074579D01*
X7246253Y-13074579D02*
X7255777Y-13055531D01*
X7255777Y-13055531D02*
X7265301Y-13046008D01*
X7265301Y-13046008D02*
X7284348Y-13036484D01*
X7541491Y-13236484D02*
X7427206Y-13236484D01*
X7484348Y-13236484D02*
X7484348Y-13036484D01*
X7484348Y-13036484D02*
X7465301Y-13065055D01*
X7465301Y-13065055D02*
X7446253Y-13084103D01*
X7446253Y-13084103D02*
X7427206Y-13093627D01*
X7722444Y-13036484D02*
X7627206Y-13036484D01*
X7627206Y-13036484D02*
X7617682Y-13131722D01*
X7617682Y-13131722D02*
X7627206Y-13122198D01*
X7627206Y-13122198D02*
X7646253Y-13112674D01*
X7646253Y-13112674D02*
X7693872Y-13112674D01*
X7693872Y-13112674D02*
X7712920Y-13122198D01*
X7712920Y-13122198D02*
X7722444Y-13131722D01*
X7722444Y-13131722D02*
X7731967Y-13150769D01*
X7731967Y-13150769D02*
X7731967Y-13198388D01*
X7731967Y-13198388D02*
X7722444Y-13217436D01*
X7722444Y-13217436D02*
X7712920Y-13226960D01*
X7712920Y-13226960D02*
X7693872Y-13236484D01*
X7693872Y-13236484D02*
X7646253Y-13236484D01*
X7646253Y-13236484D02*
X7627206Y-13226960D01*
X7627206Y-13226960D02*
X7617682Y-13217436D01*
X7798634Y-13036484D02*
X7931967Y-13036484D01*
X7931967Y-13036484D02*
X7846253Y-13236484D01*
X7998634Y-13036484D02*
X7998634Y-13074579D01*
X8074825Y-13036484D02*
X8074825Y-13074579D01*
X8370063Y-13312674D02*
X8360539Y-13303150D01*
X8360539Y-13303150D02*
X8341491Y-13274579D01*
X8341491Y-13274579D02*
X8331968Y-13255531D01*
X8331968Y-13255531D02*
X8322444Y-13226960D01*
X8322444Y-13226960D02*
X8312920Y-13179341D01*
X8312920Y-13179341D02*
X8312920Y-13141246D01*
X8312920Y-13141246D02*
X8322444Y-13093627D01*
X8322444Y-13093627D02*
X8331968Y-13065055D01*
X8331968Y-13065055D02*
X8341491Y-13046008D01*
X8341491Y-13046008D02*
X8360539Y-13017436D01*
X8360539Y-13017436D02*
X8370063Y-13007912D01*
X8551015Y-13236484D02*
X8436730Y-13236484D01*
X8493872Y-13236484D02*
X8493872Y-13036484D01*
X8493872Y-13036484D02*
X8474825Y-13065055D01*
X8474825Y-13065055D02*
X8455777Y-13084103D01*
X8455777Y-13084103D02*
X8436730Y-13093627D01*
X8731968Y-13036484D02*
X8636730Y-13036484D01*
X8636730Y-13036484D02*
X8627206Y-13131722D01*
X8627206Y-13131722D02*
X8636730Y-13122198D01*
X8636730Y-13122198D02*
X8655777Y-13112674D01*
X8655777Y-13112674D02*
X8703396Y-13112674D01*
X8703396Y-13112674D02*
X8722444Y-13122198D01*
X8722444Y-13122198D02*
X8731968Y-13131722D01*
X8731968Y-13131722D02*
X8741491Y-13150769D01*
X8741491Y-13150769D02*
X8741491Y-13198388D01*
X8741491Y-13198388D02*
X8731968Y-13217436D01*
X8731968Y-13217436D02*
X8722444Y-13226960D01*
X8722444Y-13226960D02*
X8703396Y-13236484D01*
X8703396Y-13236484D02*
X8655777Y-13236484D01*
X8655777Y-13236484D02*
X8636730Y-13226960D01*
X8636730Y-13226960D02*
X8627206Y-13217436D01*
X8979587Y-13236484D02*
X8979587Y-13036484D01*
X9065301Y-13236484D02*
X9065301Y-13131722D01*
X9065301Y-13131722D02*
X9055777Y-13112674D01*
X9055777Y-13112674D02*
X9036730Y-13103150D01*
X9036730Y-13103150D02*
X9008158Y-13103150D01*
X9008158Y-13103150D02*
X8989111Y-13112674D01*
X8989111Y-13112674D02*
X8979587Y-13122198D01*
X9189111Y-13236484D02*
X9170063Y-13226960D01*
X9170063Y-13226960D02*
X9160539Y-13217436D01*
X9160539Y-13217436D02*
X9151015Y-13198388D01*
X9151015Y-13198388D02*
X9151015Y-13141246D01*
X9151015Y-13141246D02*
X9160539Y-13122198D01*
X9160539Y-13122198D02*
X9170063Y-13112674D01*
X9170063Y-13112674D02*
X9189111Y-13103150D01*
X9189111Y-13103150D02*
X9217682Y-13103150D01*
X9217682Y-13103150D02*
X9236730Y-13112674D01*
X9236730Y-13112674D02*
X9246253Y-13122198D01*
X9246253Y-13122198D02*
X9255777Y-13141246D01*
X9255777Y-13141246D02*
X9255777Y-13198388D01*
X9255777Y-13198388D02*
X9246253Y-13217436D01*
X9246253Y-13217436D02*
X9236730Y-13226960D01*
X9236730Y-13226960D02*
X9217682Y-13236484D01*
X9217682Y-13236484D02*
X9189111Y-13236484D01*
X9370063Y-13236484D02*
X9351015Y-13226960D01*
X9351015Y-13226960D02*
X9341492Y-13207912D01*
X9341492Y-13207912D02*
X9341492Y-13036484D01*
X9522444Y-13226960D02*
X9503396Y-13236484D01*
X9503396Y-13236484D02*
X9465301Y-13236484D01*
X9465301Y-13236484D02*
X9446253Y-13226960D01*
X9446253Y-13226960D02*
X9436730Y-13207912D01*
X9436730Y-13207912D02*
X9436730Y-13131722D01*
X9436730Y-13131722D02*
X9446253Y-13112674D01*
X9446253Y-13112674D02*
X9465301Y-13103150D01*
X9465301Y-13103150D02*
X9503396Y-13103150D01*
X9503396Y-13103150D02*
X9522444Y-13112674D01*
X9522444Y-13112674D02*
X9531968Y-13131722D01*
X9531968Y-13131722D02*
X9531968Y-13150769D01*
X9531968Y-13150769D02*
X9436730Y-13169817D01*
X9608158Y-13226960D02*
X9627206Y-13236484D01*
X9627206Y-13236484D02*
X9665301Y-13236484D01*
X9665301Y-13236484D02*
X9684349Y-13226960D01*
X9684349Y-13226960D02*
X9693873Y-13207912D01*
X9693873Y-13207912D02*
X9693873Y-13198388D01*
X9693873Y-13198388D02*
X9684349Y-13179341D01*
X9684349Y-13179341D02*
X9665301Y-13169817D01*
X9665301Y-13169817D02*
X9636730Y-13169817D01*
X9636730Y-13169817D02*
X9617682Y-13160293D01*
X9617682Y-13160293D02*
X9608158Y-13141246D01*
X9608158Y-13141246D02*
X9608158Y-13131722D01*
X9608158Y-13131722D02*
X9617682Y-13112674D01*
X9617682Y-13112674D02*
X9636730Y-13103150D01*
X9636730Y-13103150D02*
X9665301Y-13103150D01*
X9665301Y-13103150D02*
X9684349Y-13112674D01*
X9760539Y-13312674D02*
X9770063Y-13303150D01*
X9770063Y-13303150D02*
X9789111Y-13274579D01*
X9789111Y-13274579D02*
X9798634Y-13255531D01*
X9798634Y-13255531D02*
X9808158Y-13226960D01*
X9808158Y-13226960D02*
X9817682Y-13179341D01*
X9817682Y-13179341D02*
X9817682Y-13141246D01*
X9817682Y-13141246D02*
X9808158Y-13093627D01*
X9808158Y-13093627D02*
X9798634Y-13065055D01*
X9798634Y-13065055D02*
X9789111Y-13046008D01*
X9789111Y-13046008D02*
X9770063Y-13017436D01*
X9770063Y-13017436D02*
X9760539Y-13007912D01*
D13*
X4795000Y-13409000D02*
G75*
G03*
X4795000Y-13409000I-37500J0D01*
G01*
D11*
X5093872Y-13300484D02*
X5112920Y-13300484D01*
X5112920Y-13300484D02*
X5131967Y-13310008D01*
X5131967Y-13310008D02*
X5141491Y-13319531D01*
X5141491Y-13319531D02*
X5151015Y-13338579D01*
X5151015Y-13338579D02*
X5160539Y-13376674D01*
X5160539Y-13376674D02*
X5160539Y-13424293D01*
X5160539Y-13424293D02*
X5151015Y-13462388D01*
X5151015Y-13462388D02*
X5141491Y-13481436D01*
X5141491Y-13481436D02*
X5131967Y-13490960D01*
X5131967Y-13490960D02*
X5112920Y-13500484D01*
X5112920Y-13500484D02*
X5093872Y-13500484D01*
X5093872Y-13500484D02*
X5074824Y-13490960D01*
X5074824Y-13490960D02*
X5065301Y-13481436D01*
X5065301Y-13481436D02*
X5055777Y-13462388D01*
X5055777Y-13462388D02*
X5046253Y-13424293D01*
X5046253Y-13424293D02*
X5046253Y-13376674D01*
X5046253Y-13376674D02*
X5055777Y-13338579D01*
X5055777Y-13338579D02*
X5065301Y-13319531D01*
X5065301Y-13319531D02*
X5074824Y-13310008D01*
X5074824Y-13310008D02*
X5093872Y-13300484D01*
X5246253Y-13481436D02*
X5255777Y-13490960D01*
X5255777Y-13490960D02*
X5246253Y-13500484D01*
X5246253Y-13500484D02*
X5236729Y-13490960D01*
X5236729Y-13490960D02*
X5246253Y-13481436D01*
X5246253Y-13481436D02*
X5246253Y-13500484D01*
X5322444Y-13300484D02*
X5455777Y-13300484D01*
X5455777Y-13300484D02*
X5370063Y-13500484D01*
X5627205Y-13300484D02*
X5531967Y-13300484D01*
X5531967Y-13300484D02*
X5522444Y-13395722D01*
X5522444Y-13395722D02*
X5531967Y-13386198D01*
X5531967Y-13386198D02*
X5551015Y-13376674D01*
X5551015Y-13376674D02*
X5598634Y-13376674D01*
X5598634Y-13376674D02*
X5617682Y-13386198D01*
X5617682Y-13386198D02*
X5627205Y-13395722D01*
X5627205Y-13395722D02*
X5636729Y-13414769D01*
X5636729Y-13414769D02*
X5636729Y-13462388D01*
X5636729Y-13462388D02*
X5627205Y-13481436D01*
X5627205Y-13481436D02*
X5617682Y-13490960D01*
X5617682Y-13490960D02*
X5598634Y-13500484D01*
X5598634Y-13500484D02*
X5551015Y-13500484D01*
X5551015Y-13500484D02*
X5531967Y-13490960D01*
X5531967Y-13490960D02*
X5522444Y-13481436D01*
X5760539Y-13300484D02*
X5779586Y-13300484D01*
X5779586Y-13300484D02*
X5798634Y-13310008D01*
X5798634Y-13310008D02*
X5808158Y-13319531D01*
X5808158Y-13319531D02*
X5817682Y-13338579D01*
X5817682Y-13338579D02*
X5827205Y-13376674D01*
X5827205Y-13376674D02*
X5827205Y-13424293D01*
X5827205Y-13424293D02*
X5817682Y-13462388D01*
X5817682Y-13462388D02*
X5808158Y-13481436D01*
X5808158Y-13481436D02*
X5798634Y-13490960D01*
X5798634Y-13490960D02*
X5779586Y-13500484D01*
X5779586Y-13500484D02*
X5760539Y-13500484D01*
X5760539Y-13500484D02*
X5741491Y-13490960D01*
X5741491Y-13490960D02*
X5731967Y-13481436D01*
X5731967Y-13481436D02*
X5722443Y-13462388D01*
X5722443Y-13462388D02*
X5712920Y-13424293D01*
X5712920Y-13424293D02*
X5712920Y-13376674D01*
X5712920Y-13376674D02*
X5722443Y-13338579D01*
X5722443Y-13338579D02*
X5731967Y-13319531D01*
X5731967Y-13319531D02*
X5741491Y-13310008D01*
X5741491Y-13310008D02*
X5760539Y-13300484D01*
X5912920Y-13500484D02*
X5912920Y-13367150D01*
X5912920Y-13386198D02*
X5922443Y-13376674D01*
X5922443Y-13376674D02*
X5941491Y-13367150D01*
X5941491Y-13367150D02*
X5970063Y-13367150D01*
X5970063Y-13367150D02*
X5989110Y-13376674D01*
X5989110Y-13376674D02*
X5998634Y-13395722D01*
X5998634Y-13395722D02*
X5998634Y-13500484D01*
X5998634Y-13395722D02*
X6008158Y-13376674D01*
X6008158Y-13376674D02*
X6027205Y-13367150D01*
X6027205Y-13367150D02*
X6055777Y-13367150D01*
X6055777Y-13367150D02*
X6074824Y-13376674D01*
X6074824Y-13376674D02*
X6084348Y-13395722D01*
X6084348Y-13395722D02*
X6084348Y-13500484D01*
X6179586Y-13500484D02*
X6179586Y-13367150D01*
X6179586Y-13386198D02*
X6189110Y-13376674D01*
X6189110Y-13376674D02*
X6208158Y-13367150D01*
X6208158Y-13367150D02*
X6236729Y-13367150D01*
X6236729Y-13367150D02*
X6255777Y-13376674D01*
X6255777Y-13376674D02*
X6265301Y-13395722D01*
X6265301Y-13395722D02*
X6265301Y-13500484D01*
X6265301Y-13395722D02*
X6274824Y-13376674D01*
X6274824Y-13376674D02*
X6293872Y-13367150D01*
X6293872Y-13367150D02*
X6322443Y-13367150D01*
X6322443Y-13367150D02*
X6341491Y-13376674D01*
X6341491Y-13376674D02*
X6351015Y-13395722D01*
X6351015Y-13395722D02*
X6351015Y-13500484D01*
X6741491Y-13290960D02*
X6570063Y-13548103D01*
X6998634Y-13300484D02*
X7017682Y-13300484D01*
X7017682Y-13300484D02*
X7036729Y-13310008D01*
X7036729Y-13310008D02*
X7046253Y-13319531D01*
X7046253Y-13319531D02*
X7055777Y-13338579D01*
X7055777Y-13338579D02*
X7065301Y-13376674D01*
X7065301Y-13376674D02*
X7065301Y-13424293D01*
X7065301Y-13424293D02*
X7055777Y-13462388D01*
X7055777Y-13462388D02*
X7046253Y-13481436D01*
X7046253Y-13481436D02*
X7036729Y-13490960D01*
X7036729Y-13490960D02*
X7017682Y-13500484D01*
X7017682Y-13500484D02*
X6998634Y-13500484D01*
X6998634Y-13500484D02*
X6979586Y-13490960D01*
X6979586Y-13490960D02*
X6970063Y-13481436D01*
X6970063Y-13481436D02*
X6960539Y-13462388D01*
X6960539Y-13462388D02*
X6951015Y-13424293D01*
X6951015Y-13424293D02*
X6951015Y-13376674D01*
X6951015Y-13376674D02*
X6960539Y-13338579D01*
X6960539Y-13338579D02*
X6970063Y-13319531D01*
X6970063Y-13319531D02*
X6979586Y-13310008D01*
X6979586Y-13310008D02*
X6998634Y-13300484D01*
X7151015Y-13481436D02*
X7160539Y-13490960D01*
X7160539Y-13490960D02*
X7151015Y-13500484D01*
X7151015Y-13500484D02*
X7141491Y-13490960D01*
X7141491Y-13490960D02*
X7151015Y-13481436D01*
X7151015Y-13481436D02*
X7151015Y-13500484D01*
X7284348Y-13300484D02*
X7303396Y-13300484D01*
X7303396Y-13300484D02*
X7322444Y-13310008D01*
X7322444Y-13310008D02*
X7331967Y-13319531D01*
X7331967Y-13319531D02*
X7341491Y-13338579D01*
X7341491Y-13338579D02*
X7351015Y-13376674D01*
X7351015Y-13376674D02*
X7351015Y-13424293D01*
X7351015Y-13424293D02*
X7341491Y-13462388D01*
X7341491Y-13462388D02*
X7331967Y-13481436D01*
X7331967Y-13481436D02*
X7322444Y-13490960D01*
X7322444Y-13490960D02*
X7303396Y-13500484D01*
X7303396Y-13500484D02*
X7284348Y-13500484D01*
X7284348Y-13500484D02*
X7265301Y-13490960D01*
X7265301Y-13490960D02*
X7255777Y-13481436D01*
X7255777Y-13481436D02*
X7246253Y-13462388D01*
X7246253Y-13462388D02*
X7236729Y-13424293D01*
X7236729Y-13424293D02*
X7236729Y-13376674D01*
X7236729Y-13376674D02*
X7246253Y-13338579D01*
X7246253Y-13338579D02*
X7255777Y-13319531D01*
X7255777Y-13319531D02*
X7265301Y-13310008D01*
X7265301Y-13310008D02*
X7284348Y-13300484D01*
X7427206Y-13319531D02*
X7436729Y-13310008D01*
X7436729Y-13310008D02*
X7455777Y-13300484D01*
X7455777Y-13300484D02*
X7503396Y-13300484D01*
X7503396Y-13300484D02*
X7522444Y-13310008D01*
X7522444Y-13310008D02*
X7531967Y-13319531D01*
X7531967Y-13319531D02*
X7541491Y-13338579D01*
X7541491Y-13338579D02*
X7541491Y-13357627D01*
X7541491Y-13357627D02*
X7531967Y-13386198D01*
X7531967Y-13386198D02*
X7417682Y-13500484D01*
X7417682Y-13500484D02*
X7541491Y-13500484D01*
X7636729Y-13500484D02*
X7674825Y-13500484D01*
X7674825Y-13500484D02*
X7693872Y-13490960D01*
X7693872Y-13490960D02*
X7703396Y-13481436D01*
X7703396Y-13481436D02*
X7722444Y-13452865D01*
X7722444Y-13452865D02*
X7731967Y-13414769D01*
X7731967Y-13414769D02*
X7731967Y-13338579D01*
X7731967Y-13338579D02*
X7722444Y-13319531D01*
X7722444Y-13319531D02*
X7712920Y-13310008D01*
X7712920Y-13310008D02*
X7693872Y-13300484D01*
X7693872Y-13300484D02*
X7655777Y-13300484D01*
X7655777Y-13300484D02*
X7636729Y-13310008D01*
X7636729Y-13310008D02*
X7627206Y-13319531D01*
X7627206Y-13319531D02*
X7617682Y-13338579D01*
X7617682Y-13338579D02*
X7617682Y-13386198D01*
X7617682Y-13386198D02*
X7627206Y-13405246D01*
X7627206Y-13405246D02*
X7636729Y-13414769D01*
X7636729Y-13414769D02*
X7655777Y-13424293D01*
X7655777Y-13424293D02*
X7693872Y-13424293D01*
X7693872Y-13424293D02*
X7712920Y-13414769D01*
X7712920Y-13414769D02*
X7722444Y-13405246D01*
X7722444Y-13405246D02*
X7731967Y-13386198D01*
X7912920Y-13300484D02*
X7817682Y-13300484D01*
X7817682Y-13300484D02*
X7808158Y-13395722D01*
X7808158Y-13395722D02*
X7817682Y-13386198D01*
X7817682Y-13386198D02*
X7836729Y-13376674D01*
X7836729Y-13376674D02*
X7884348Y-13376674D01*
X7884348Y-13376674D02*
X7903396Y-13386198D01*
X7903396Y-13386198D02*
X7912920Y-13395722D01*
X7912920Y-13395722D02*
X7922444Y-13414769D01*
X7922444Y-13414769D02*
X7922444Y-13462388D01*
X7922444Y-13462388D02*
X7912920Y-13481436D01*
X7912920Y-13481436D02*
X7903396Y-13490960D01*
X7903396Y-13490960D02*
X7884348Y-13500484D01*
X7884348Y-13500484D02*
X7836729Y-13500484D01*
X7836729Y-13500484D02*
X7817682Y-13490960D01*
X7817682Y-13490960D02*
X7808158Y-13481436D01*
X7998634Y-13300484D02*
X7998634Y-13338579D01*
X8074825Y-13300484D02*
X8074825Y-13338579D01*
X8370063Y-13576674D02*
X8360539Y-13567150D01*
X8360539Y-13567150D02*
X8341491Y-13538579D01*
X8341491Y-13538579D02*
X8331968Y-13519531D01*
X8331968Y-13519531D02*
X8322444Y-13490960D01*
X8322444Y-13490960D02*
X8312920Y-13443341D01*
X8312920Y-13443341D02*
X8312920Y-13405246D01*
X8312920Y-13405246D02*
X8322444Y-13357627D01*
X8322444Y-13357627D02*
X8331968Y-13329055D01*
X8331968Y-13329055D02*
X8341491Y-13310008D01*
X8341491Y-13310008D02*
X8360539Y-13281436D01*
X8360539Y-13281436D02*
X8370063Y-13271912D01*
X8531968Y-13367150D02*
X8531968Y-13500484D01*
X8484349Y-13290960D02*
X8436730Y-13433817D01*
X8436730Y-13433817D02*
X8560539Y-13433817D01*
X8665301Y-13386198D02*
X8646253Y-13376674D01*
X8646253Y-13376674D02*
X8636730Y-13367150D01*
X8636730Y-13367150D02*
X8627206Y-13348103D01*
X8627206Y-13348103D02*
X8627206Y-13338579D01*
X8627206Y-13338579D02*
X8636730Y-13319531D01*
X8636730Y-13319531D02*
X8646253Y-13310008D01*
X8646253Y-13310008D02*
X8665301Y-13300484D01*
X8665301Y-13300484D02*
X8703396Y-13300484D01*
X8703396Y-13300484D02*
X8722444Y-13310008D01*
X8722444Y-13310008D02*
X8731968Y-13319531D01*
X8731968Y-13319531D02*
X8741491Y-13338579D01*
X8741491Y-13338579D02*
X8741491Y-13348103D01*
X8741491Y-13348103D02*
X8731968Y-13367150D01*
X8731968Y-13367150D02*
X8722444Y-13376674D01*
X8722444Y-13376674D02*
X8703396Y-13386198D01*
X8703396Y-13386198D02*
X8665301Y-13386198D01*
X8665301Y-13386198D02*
X8646253Y-13395722D01*
X8646253Y-13395722D02*
X8636730Y-13405246D01*
X8636730Y-13405246D02*
X8627206Y-13424293D01*
X8627206Y-13424293D02*
X8627206Y-13462388D01*
X8627206Y-13462388D02*
X8636730Y-13481436D01*
X8636730Y-13481436D02*
X8646253Y-13490960D01*
X8646253Y-13490960D02*
X8665301Y-13500484D01*
X8665301Y-13500484D02*
X8703396Y-13500484D01*
X8703396Y-13500484D02*
X8722444Y-13490960D01*
X8722444Y-13490960D02*
X8731968Y-13481436D01*
X8731968Y-13481436D02*
X8741491Y-13462388D01*
X8741491Y-13462388D02*
X8741491Y-13424293D01*
X8741491Y-13424293D02*
X8731968Y-13405246D01*
X8731968Y-13405246D02*
X8722444Y-13395722D01*
X8722444Y-13395722D02*
X8703396Y-13386198D01*
X8979587Y-13500484D02*
X8979587Y-13300484D01*
X9065301Y-13500484D02*
X9065301Y-13395722D01*
X9065301Y-13395722D02*
X9055777Y-13376674D01*
X9055777Y-13376674D02*
X9036730Y-13367150D01*
X9036730Y-13367150D02*
X9008158Y-13367150D01*
X9008158Y-13367150D02*
X8989111Y-13376674D01*
X8989111Y-13376674D02*
X8979587Y-13386198D01*
X9189111Y-13500484D02*
X9170063Y-13490960D01*
X9170063Y-13490960D02*
X9160539Y-13481436D01*
X9160539Y-13481436D02*
X9151015Y-13462388D01*
X9151015Y-13462388D02*
X9151015Y-13405246D01*
X9151015Y-13405246D02*
X9160539Y-13386198D01*
X9160539Y-13386198D02*
X9170063Y-13376674D01*
X9170063Y-13376674D02*
X9189111Y-13367150D01*
X9189111Y-13367150D02*
X9217682Y-13367150D01*
X9217682Y-13367150D02*
X9236730Y-13376674D01*
X9236730Y-13376674D02*
X9246253Y-13386198D01*
X9246253Y-13386198D02*
X9255777Y-13405246D01*
X9255777Y-13405246D02*
X9255777Y-13462388D01*
X9255777Y-13462388D02*
X9246253Y-13481436D01*
X9246253Y-13481436D02*
X9236730Y-13490960D01*
X9236730Y-13490960D02*
X9217682Y-13500484D01*
X9217682Y-13500484D02*
X9189111Y-13500484D01*
X9370063Y-13500484D02*
X9351015Y-13490960D01*
X9351015Y-13490960D02*
X9341492Y-13471912D01*
X9341492Y-13471912D02*
X9341492Y-13300484D01*
X9522444Y-13490960D02*
X9503396Y-13500484D01*
X9503396Y-13500484D02*
X9465301Y-13500484D01*
X9465301Y-13500484D02*
X9446253Y-13490960D01*
X9446253Y-13490960D02*
X9436730Y-13471912D01*
X9436730Y-13471912D02*
X9436730Y-13395722D01*
X9436730Y-13395722D02*
X9446253Y-13376674D01*
X9446253Y-13376674D02*
X9465301Y-13367150D01*
X9465301Y-13367150D02*
X9503396Y-13367150D01*
X9503396Y-13367150D02*
X9522444Y-13376674D01*
X9522444Y-13376674D02*
X9531968Y-13395722D01*
X9531968Y-13395722D02*
X9531968Y-13414769D01*
X9531968Y-13414769D02*
X9436730Y-13433817D01*
X9608158Y-13490960D02*
X9627206Y-13500484D01*
X9627206Y-13500484D02*
X9665301Y-13500484D01*
X9665301Y-13500484D02*
X9684349Y-13490960D01*
X9684349Y-13490960D02*
X9693873Y-13471912D01*
X9693873Y-13471912D02*
X9693873Y-13462388D01*
X9693873Y-13462388D02*
X9684349Y-13443341D01*
X9684349Y-13443341D02*
X9665301Y-13433817D01*
X9665301Y-13433817D02*
X9636730Y-13433817D01*
X9636730Y-13433817D02*
X9617682Y-13424293D01*
X9617682Y-13424293D02*
X9608158Y-13405246D01*
X9608158Y-13405246D02*
X9608158Y-13395722D01*
X9608158Y-13395722D02*
X9617682Y-13376674D01*
X9617682Y-13376674D02*
X9636730Y-13367150D01*
X9636730Y-13367150D02*
X9665301Y-13367150D01*
X9665301Y-13367150D02*
X9684349Y-13376674D01*
X9760539Y-13576674D02*
X9770063Y-13567150D01*
X9770063Y-13567150D02*
X9789111Y-13538579D01*
X9789111Y-13538579D02*
X9798634Y-13519531D01*
X9798634Y-13519531D02*
X9808158Y-13490960D01*
X9808158Y-13490960D02*
X9817682Y-13443341D01*
X9817682Y-13443341D02*
X9817682Y-13405246D01*
X9817682Y-13405246D02*
X9808158Y-13357627D01*
X9808158Y-13357627D02*
X9798634Y-13329055D01*
X9798634Y-13329055D02*
X9789111Y-13310008D01*
X9789111Y-13310008D02*
X9770063Y-13281436D01*
X9770063Y-13281436D02*
X9760539Y-13271912D01*
D14*
X4755000Y-13633000D02*
X4755000Y-13713000D01*
X4715000Y-13673000D02*
X4795000Y-13673000D01*
D11*
X5093872Y-13564484D02*
X5112920Y-13564484D01*
X5112920Y-13564484D02*
X5131967Y-13574008D01*
X5131967Y-13574008D02*
X5141491Y-13583531D01*
X5141491Y-13583531D02*
X5151015Y-13602579D01*
X5151015Y-13602579D02*
X5160539Y-13640674D01*
X5160539Y-13640674D02*
X5160539Y-13688293D01*
X5160539Y-13688293D02*
X5151015Y-13726388D01*
X5151015Y-13726388D02*
X5141491Y-13745436D01*
X5141491Y-13745436D02*
X5131967Y-13754960D01*
X5131967Y-13754960D02*
X5112920Y-13764484D01*
X5112920Y-13764484D02*
X5093872Y-13764484D01*
X5093872Y-13764484D02*
X5074824Y-13754960D01*
X5074824Y-13754960D02*
X5065301Y-13745436D01*
X5065301Y-13745436D02*
X5055777Y-13726388D01*
X5055777Y-13726388D02*
X5046253Y-13688293D01*
X5046253Y-13688293D02*
X5046253Y-13640674D01*
X5046253Y-13640674D02*
X5055777Y-13602579D01*
X5055777Y-13602579D02*
X5065301Y-13583531D01*
X5065301Y-13583531D02*
X5074824Y-13574008D01*
X5074824Y-13574008D02*
X5093872Y-13564484D01*
X5246253Y-13745436D02*
X5255777Y-13754960D01*
X5255777Y-13754960D02*
X5246253Y-13764484D01*
X5246253Y-13764484D02*
X5236729Y-13754960D01*
X5236729Y-13754960D02*
X5246253Y-13745436D01*
X5246253Y-13745436D02*
X5246253Y-13764484D01*
X5370063Y-13650198D02*
X5351015Y-13640674D01*
X5351015Y-13640674D02*
X5341491Y-13631150D01*
X5341491Y-13631150D02*
X5331967Y-13612103D01*
X5331967Y-13612103D02*
X5331967Y-13602579D01*
X5331967Y-13602579D02*
X5341491Y-13583531D01*
X5341491Y-13583531D02*
X5351015Y-13574008D01*
X5351015Y-13574008D02*
X5370063Y-13564484D01*
X5370063Y-13564484D02*
X5408158Y-13564484D01*
X5408158Y-13564484D02*
X5427205Y-13574008D01*
X5427205Y-13574008D02*
X5436729Y-13583531D01*
X5436729Y-13583531D02*
X5446253Y-13602579D01*
X5446253Y-13602579D02*
X5446253Y-13612103D01*
X5446253Y-13612103D02*
X5436729Y-13631150D01*
X5436729Y-13631150D02*
X5427205Y-13640674D01*
X5427205Y-13640674D02*
X5408158Y-13650198D01*
X5408158Y-13650198D02*
X5370063Y-13650198D01*
X5370063Y-13650198D02*
X5351015Y-13659722D01*
X5351015Y-13659722D02*
X5341491Y-13669246D01*
X5341491Y-13669246D02*
X5331967Y-13688293D01*
X5331967Y-13688293D02*
X5331967Y-13726388D01*
X5331967Y-13726388D02*
X5341491Y-13745436D01*
X5341491Y-13745436D02*
X5351015Y-13754960D01*
X5351015Y-13754960D02*
X5370063Y-13764484D01*
X5370063Y-13764484D02*
X5408158Y-13764484D01*
X5408158Y-13764484D02*
X5427205Y-13754960D01*
X5427205Y-13754960D02*
X5436729Y-13745436D01*
X5436729Y-13745436D02*
X5446253Y-13726388D01*
X5446253Y-13726388D02*
X5446253Y-13688293D01*
X5446253Y-13688293D02*
X5436729Y-13669246D01*
X5436729Y-13669246D02*
X5427205Y-13659722D01*
X5427205Y-13659722D02*
X5408158Y-13650198D01*
X5570063Y-13564484D02*
X5589110Y-13564484D01*
X5589110Y-13564484D02*
X5608158Y-13574008D01*
X5608158Y-13574008D02*
X5617682Y-13583531D01*
X5617682Y-13583531D02*
X5627205Y-13602579D01*
X5627205Y-13602579D02*
X5636729Y-13640674D01*
X5636729Y-13640674D02*
X5636729Y-13688293D01*
X5636729Y-13688293D02*
X5627205Y-13726388D01*
X5627205Y-13726388D02*
X5617682Y-13745436D01*
X5617682Y-13745436D02*
X5608158Y-13754960D01*
X5608158Y-13754960D02*
X5589110Y-13764484D01*
X5589110Y-13764484D02*
X5570063Y-13764484D01*
X5570063Y-13764484D02*
X5551015Y-13754960D01*
X5551015Y-13754960D02*
X5541491Y-13745436D01*
X5541491Y-13745436D02*
X5531967Y-13726388D01*
X5531967Y-13726388D02*
X5522444Y-13688293D01*
X5522444Y-13688293D02*
X5522444Y-13640674D01*
X5522444Y-13640674D02*
X5531967Y-13602579D01*
X5531967Y-13602579D02*
X5541491Y-13583531D01*
X5541491Y-13583531D02*
X5551015Y-13574008D01*
X5551015Y-13574008D02*
X5570063Y-13564484D01*
X5760539Y-13564484D02*
X5779586Y-13564484D01*
X5779586Y-13564484D02*
X5798634Y-13574008D01*
X5798634Y-13574008D02*
X5808158Y-13583531D01*
X5808158Y-13583531D02*
X5817682Y-13602579D01*
X5817682Y-13602579D02*
X5827205Y-13640674D01*
X5827205Y-13640674D02*
X5827205Y-13688293D01*
X5827205Y-13688293D02*
X5817682Y-13726388D01*
X5817682Y-13726388D02*
X5808158Y-13745436D01*
X5808158Y-13745436D02*
X5798634Y-13754960D01*
X5798634Y-13754960D02*
X5779586Y-13764484D01*
X5779586Y-13764484D02*
X5760539Y-13764484D01*
X5760539Y-13764484D02*
X5741491Y-13754960D01*
X5741491Y-13754960D02*
X5731967Y-13745436D01*
X5731967Y-13745436D02*
X5722443Y-13726388D01*
X5722443Y-13726388D02*
X5712920Y-13688293D01*
X5712920Y-13688293D02*
X5712920Y-13640674D01*
X5712920Y-13640674D02*
X5722443Y-13602579D01*
X5722443Y-13602579D02*
X5731967Y-13583531D01*
X5731967Y-13583531D02*
X5741491Y-13574008D01*
X5741491Y-13574008D02*
X5760539Y-13564484D01*
X5912920Y-13764484D02*
X5912920Y-13631150D01*
X5912920Y-13650198D02*
X5922443Y-13640674D01*
X5922443Y-13640674D02*
X5941491Y-13631150D01*
X5941491Y-13631150D02*
X5970063Y-13631150D01*
X5970063Y-13631150D02*
X5989110Y-13640674D01*
X5989110Y-13640674D02*
X5998634Y-13659722D01*
X5998634Y-13659722D02*
X5998634Y-13764484D01*
X5998634Y-13659722D02*
X6008158Y-13640674D01*
X6008158Y-13640674D02*
X6027205Y-13631150D01*
X6027205Y-13631150D02*
X6055777Y-13631150D01*
X6055777Y-13631150D02*
X6074824Y-13640674D01*
X6074824Y-13640674D02*
X6084348Y-13659722D01*
X6084348Y-13659722D02*
X6084348Y-13764484D01*
X6179586Y-13764484D02*
X6179586Y-13631150D01*
X6179586Y-13650198D02*
X6189110Y-13640674D01*
X6189110Y-13640674D02*
X6208158Y-13631150D01*
X6208158Y-13631150D02*
X6236729Y-13631150D01*
X6236729Y-13631150D02*
X6255777Y-13640674D01*
X6255777Y-13640674D02*
X6265301Y-13659722D01*
X6265301Y-13659722D02*
X6265301Y-13764484D01*
X6265301Y-13659722D02*
X6274824Y-13640674D01*
X6274824Y-13640674D02*
X6293872Y-13631150D01*
X6293872Y-13631150D02*
X6322443Y-13631150D01*
X6322443Y-13631150D02*
X6341491Y-13640674D01*
X6341491Y-13640674D02*
X6351015Y-13659722D01*
X6351015Y-13659722D02*
X6351015Y-13764484D01*
X6741491Y-13554960D02*
X6570063Y-13812103D01*
X6998634Y-13564484D02*
X7017682Y-13564484D01*
X7017682Y-13564484D02*
X7036729Y-13574008D01*
X7036729Y-13574008D02*
X7046253Y-13583531D01*
X7046253Y-13583531D02*
X7055777Y-13602579D01*
X7055777Y-13602579D02*
X7065301Y-13640674D01*
X7065301Y-13640674D02*
X7065301Y-13688293D01*
X7065301Y-13688293D02*
X7055777Y-13726388D01*
X7055777Y-13726388D02*
X7046253Y-13745436D01*
X7046253Y-13745436D02*
X7036729Y-13754960D01*
X7036729Y-13754960D02*
X7017682Y-13764484D01*
X7017682Y-13764484D02*
X6998634Y-13764484D01*
X6998634Y-13764484D02*
X6979586Y-13754960D01*
X6979586Y-13754960D02*
X6970063Y-13745436D01*
X6970063Y-13745436D02*
X6960539Y-13726388D01*
X6960539Y-13726388D02*
X6951015Y-13688293D01*
X6951015Y-13688293D02*
X6951015Y-13640674D01*
X6951015Y-13640674D02*
X6960539Y-13602579D01*
X6960539Y-13602579D02*
X6970063Y-13583531D01*
X6970063Y-13583531D02*
X6979586Y-13574008D01*
X6979586Y-13574008D02*
X6998634Y-13564484D01*
X7151015Y-13745436D02*
X7160539Y-13754960D01*
X7160539Y-13754960D02*
X7151015Y-13764484D01*
X7151015Y-13764484D02*
X7141491Y-13754960D01*
X7141491Y-13754960D02*
X7151015Y-13745436D01*
X7151015Y-13745436D02*
X7151015Y-13764484D01*
X7284348Y-13564484D02*
X7303396Y-13564484D01*
X7303396Y-13564484D02*
X7322444Y-13574008D01*
X7322444Y-13574008D02*
X7331967Y-13583531D01*
X7331967Y-13583531D02*
X7341491Y-13602579D01*
X7341491Y-13602579D02*
X7351015Y-13640674D01*
X7351015Y-13640674D02*
X7351015Y-13688293D01*
X7351015Y-13688293D02*
X7341491Y-13726388D01*
X7341491Y-13726388D02*
X7331967Y-13745436D01*
X7331967Y-13745436D02*
X7322444Y-13754960D01*
X7322444Y-13754960D02*
X7303396Y-13764484D01*
X7303396Y-13764484D02*
X7284348Y-13764484D01*
X7284348Y-13764484D02*
X7265301Y-13754960D01*
X7265301Y-13754960D02*
X7255777Y-13745436D01*
X7255777Y-13745436D02*
X7246253Y-13726388D01*
X7246253Y-13726388D02*
X7236729Y-13688293D01*
X7236729Y-13688293D02*
X7236729Y-13640674D01*
X7236729Y-13640674D02*
X7246253Y-13602579D01*
X7246253Y-13602579D02*
X7255777Y-13583531D01*
X7255777Y-13583531D02*
X7265301Y-13574008D01*
X7265301Y-13574008D02*
X7284348Y-13564484D01*
X7417682Y-13564484D02*
X7541491Y-13564484D01*
X7541491Y-13564484D02*
X7474825Y-13640674D01*
X7474825Y-13640674D02*
X7503396Y-13640674D01*
X7503396Y-13640674D02*
X7522444Y-13650198D01*
X7522444Y-13650198D02*
X7531967Y-13659722D01*
X7531967Y-13659722D02*
X7541491Y-13678769D01*
X7541491Y-13678769D02*
X7541491Y-13726388D01*
X7541491Y-13726388D02*
X7531967Y-13745436D01*
X7531967Y-13745436D02*
X7522444Y-13754960D01*
X7522444Y-13754960D02*
X7503396Y-13764484D01*
X7503396Y-13764484D02*
X7446253Y-13764484D01*
X7446253Y-13764484D02*
X7427206Y-13754960D01*
X7427206Y-13754960D02*
X7417682Y-13745436D01*
X7731967Y-13764484D02*
X7617682Y-13764484D01*
X7674825Y-13764484D02*
X7674825Y-13564484D01*
X7674825Y-13564484D02*
X7655777Y-13593055D01*
X7655777Y-13593055D02*
X7636729Y-13612103D01*
X7636729Y-13612103D02*
X7617682Y-13621627D01*
X7912920Y-13564484D02*
X7817682Y-13564484D01*
X7817682Y-13564484D02*
X7808158Y-13659722D01*
X7808158Y-13659722D02*
X7817682Y-13650198D01*
X7817682Y-13650198D02*
X7836729Y-13640674D01*
X7836729Y-13640674D02*
X7884348Y-13640674D01*
X7884348Y-13640674D02*
X7903396Y-13650198D01*
X7903396Y-13650198D02*
X7912920Y-13659722D01*
X7912920Y-13659722D02*
X7922444Y-13678769D01*
X7922444Y-13678769D02*
X7922444Y-13726388D01*
X7922444Y-13726388D02*
X7912920Y-13745436D01*
X7912920Y-13745436D02*
X7903396Y-13754960D01*
X7903396Y-13754960D02*
X7884348Y-13764484D01*
X7884348Y-13764484D02*
X7836729Y-13764484D01*
X7836729Y-13764484D02*
X7817682Y-13754960D01*
X7817682Y-13754960D02*
X7808158Y-13745436D01*
X7998634Y-13564484D02*
X7998634Y-13602579D01*
X8074825Y-13564484D02*
X8074825Y-13602579D01*
X8370063Y-13840674D02*
X8360539Y-13831150D01*
X8360539Y-13831150D02*
X8341491Y-13802579D01*
X8341491Y-13802579D02*
X8331968Y-13783531D01*
X8331968Y-13783531D02*
X8322444Y-13754960D01*
X8322444Y-13754960D02*
X8312920Y-13707341D01*
X8312920Y-13707341D02*
X8312920Y-13669246D01*
X8312920Y-13669246D02*
X8322444Y-13621627D01*
X8322444Y-13621627D02*
X8331968Y-13593055D01*
X8331968Y-13593055D02*
X8341491Y-13574008D01*
X8341491Y-13574008D02*
X8360539Y-13545436D01*
X8360539Y-13545436D02*
X8370063Y-13535912D01*
X8551015Y-13764484D02*
X8436730Y-13764484D01*
X8493872Y-13764484D02*
X8493872Y-13564484D01*
X8493872Y-13564484D02*
X8474825Y-13593055D01*
X8474825Y-13593055D02*
X8455777Y-13612103D01*
X8455777Y-13612103D02*
X8436730Y-13621627D01*
X8789111Y-13764484D02*
X8789111Y-13564484D01*
X8874825Y-13764484D02*
X8874825Y-13659722D01*
X8874825Y-13659722D02*
X8865301Y-13640674D01*
X8865301Y-13640674D02*
X8846253Y-13631150D01*
X8846253Y-13631150D02*
X8817682Y-13631150D01*
X8817682Y-13631150D02*
X8798634Y-13640674D01*
X8798634Y-13640674D02*
X8789111Y-13650198D01*
X8998634Y-13764484D02*
X8979587Y-13754960D01*
X8979587Y-13754960D02*
X8970063Y-13745436D01*
X8970063Y-13745436D02*
X8960539Y-13726388D01*
X8960539Y-13726388D02*
X8960539Y-13669246D01*
X8960539Y-13669246D02*
X8970063Y-13650198D01*
X8970063Y-13650198D02*
X8979587Y-13640674D01*
X8979587Y-13640674D02*
X8998634Y-13631150D01*
X8998634Y-13631150D02*
X9027206Y-13631150D01*
X9027206Y-13631150D02*
X9046253Y-13640674D01*
X9046253Y-13640674D02*
X9055777Y-13650198D01*
X9055777Y-13650198D02*
X9065301Y-13669246D01*
X9065301Y-13669246D02*
X9065301Y-13726388D01*
X9065301Y-13726388D02*
X9055777Y-13745436D01*
X9055777Y-13745436D02*
X9046253Y-13754960D01*
X9046253Y-13754960D02*
X9027206Y-13764484D01*
X9027206Y-13764484D02*
X8998634Y-13764484D01*
X9179587Y-13764484D02*
X9160539Y-13754960D01*
X9160539Y-13754960D02*
X9151015Y-13735912D01*
X9151015Y-13735912D02*
X9151015Y-13564484D01*
X9331968Y-13754960D02*
X9312920Y-13764484D01*
X9312920Y-13764484D02*
X9274825Y-13764484D01*
X9274825Y-13764484D02*
X9255777Y-13754960D01*
X9255777Y-13754960D02*
X9246253Y-13735912D01*
X9246253Y-13735912D02*
X9246253Y-13659722D01*
X9246253Y-13659722D02*
X9255777Y-13640674D01*
X9255777Y-13640674D02*
X9274825Y-13631150D01*
X9274825Y-13631150D02*
X9312920Y-13631150D01*
X9312920Y-13631150D02*
X9331968Y-13640674D01*
X9331968Y-13640674D02*
X9341492Y-13659722D01*
X9341492Y-13659722D02*
X9341492Y-13678769D01*
X9341492Y-13678769D02*
X9246253Y-13697817D01*
X9408158Y-13840674D02*
X9417682Y-13831150D01*
X9417682Y-13831150D02*
X9436730Y-13802579D01*
X9436730Y-13802579D02*
X9446253Y-13783531D01*
X9446253Y-13783531D02*
X9455777Y-13754960D01*
X9455777Y-13754960D02*
X9465301Y-13707341D01*
X9465301Y-13707341D02*
X9465301Y-13669246D01*
X9465301Y-13669246D02*
X9455777Y-13621627D01*
X9455777Y-13621627D02*
X9446253Y-13593055D01*
X9446253Y-13593055D02*
X9436730Y-13574008D01*
X9436730Y-13574008D02*
X9417682Y-13545436D01*
X9417682Y-13545436D02*
X9408158Y-13535912D01*
D14*
X4783285Y-13965284D02*
X4783285Y-13908715D01*
X4726716Y-13908715D01*
X4726716Y-13965284D01*
X4783285Y-13965284D01*
D11*
X5093872Y-13828484D02*
X5112920Y-13828484D01*
X5112920Y-13828484D02*
X5131967Y-13838008D01*
X5131967Y-13838008D02*
X5141491Y-13847531D01*
X5141491Y-13847531D02*
X5151015Y-13866579D01*
X5151015Y-13866579D02*
X5160539Y-13904674D01*
X5160539Y-13904674D02*
X5160539Y-13952293D01*
X5160539Y-13952293D02*
X5151015Y-13990388D01*
X5151015Y-13990388D02*
X5141491Y-14009436D01*
X5141491Y-14009436D02*
X5131967Y-14018960D01*
X5131967Y-14018960D02*
X5112920Y-14028484D01*
X5112920Y-14028484D02*
X5093872Y-14028484D01*
X5093872Y-14028484D02*
X5074824Y-14018960D01*
X5074824Y-14018960D02*
X5065301Y-14009436D01*
X5065301Y-14009436D02*
X5055777Y-13990388D01*
X5055777Y-13990388D02*
X5046253Y-13952293D01*
X5046253Y-13952293D02*
X5046253Y-13904674D01*
X5046253Y-13904674D02*
X5055777Y-13866579D01*
X5055777Y-13866579D02*
X5065301Y-13847531D01*
X5065301Y-13847531D02*
X5074824Y-13838008D01*
X5074824Y-13838008D02*
X5093872Y-13828484D01*
X5246253Y-14009436D02*
X5255777Y-14018960D01*
X5255777Y-14018960D02*
X5246253Y-14028484D01*
X5246253Y-14028484D02*
X5236729Y-14018960D01*
X5236729Y-14018960D02*
X5246253Y-14009436D01*
X5246253Y-14009436D02*
X5246253Y-14028484D01*
X5370063Y-13914198D02*
X5351015Y-13904674D01*
X5351015Y-13904674D02*
X5341491Y-13895150D01*
X5341491Y-13895150D02*
X5331967Y-13876103D01*
X5331967Y-13876103D02*
X5331967Y-13866579D01*
X5331967Y-13866579D02*
X5341491Y-13847531D01*
X5341491Y-13847531D02*
X5351015Y-13838008D01*
X5351015Y-13838008D02*
X5370063Y-13828484D01*
X5370063Y-13828484D02*
X5408158Y-13828484D01*
X5408158Y-13828484D02*
X5427205Y-13838008D01*
X5427205Y-13838008D02*
X5436729Y-13847531D01*
X5436729Y-13847531D02*
X5446253Y-13866579D01*
X5446253Y-13866579D02*
X5446253Y-13876103D01*
X5446253Y-13876103D02*
X5436729Y-13895150D01*
X5436729Y-13895150D02*
X5427205Y-13904674D01*
X5427205Y-13904674D02*
X5408158Y-13914198D01*
X5408158Y-13914198D02*
X5370063Y-13914198D01*
X5370063Y-13914198D02*
X5351015Y-13923722D01*
X5351015Y-13923722D02*
X5341491Y-13933246D01*
X5341491Y-13933246D02*
X5331967Y-13952293D01*
X5331967Y-13952293D02*
X5331967Y-13990388D01*
X5331967Y-13990388D02*
X5341491Y-14009436D01*
X5341491Y-14009436D02*
X5351015Y-14018960D01*
X5351015Y-14018960D02*
X5370063Y-14028484D01*
X5370063Y-14028484D02*
X5408158Y-14028484D01*
X5408158Y-14028484D02*
X5427205Y-14018960D01*
X5427205Y-14018960D02*
X5436729Y-14009436D01*
X5436729Y-14009436D02*
X5446253Y-13990388D01*
X5446253Y-13990388D02*
X5446253Y-13952293D01*
X5446253Y-13952293D02*
X5436729Y-13933246D01*
X5436729Y-13933246D02*
X5427205Y-13923722D01*
X5427205Y-13923722D02*
X5408158Y-13914198D01*
X5570063Y-13828484D02*
X5589110Y-13828484D01*
X5589110Y-13828484D02*
X5608158Y-13838008D01*
X5608158Y-13838008D02*
X5617682Y-13847531D01*
X5617682Y-13847531D02*
X5627205Y-13866579D01*
X5627205Y-13866579D02*
X5636729Y-13904674D01*
X5636729Y-13904674D02*
X5636729Y-13952293D01*
X5636729Y-13952293D02*
X5627205Y-13990388D01*
X5627205Y-13990388D02*
X5617682Y-14009436D01*
X5617682Y-14009436D02*
X5608158Y-14018960D01*
X5608158Y-14018960D02*
X5589110Y-14028484D01*
X5589110Y-14028484D02*
X5570063Y-14028484D01*
X5570063Y-14028484D02*
X5551015Y-14018960D01*
X5551015Y-14018960D02*
X5541491Y-14009436D01*
X5541491Y-14009436D02*
X5531967Y-13990388D01*
X5531967Y-13990388D02*
X5522444Y-13952293D01*
X5522444Y-13952293D02*
X5522444Y-13904674D01*
X5522444Y-13904674D02*
X5531967Y-13866579D01*
X5531967Y-13866579D02*
X5541491Y-13847531D01*
X5541491Y-13847531D02*
X5551015Y-13838008D01*
X5551015Y-13838008D02*
X5570063Y-13828484D01*
X5760539Y-13828484D02*
X5779586Y-13828484D01*
X5779586Y-13828484D02*
X5798634Y-13838008D01*
X5798634Y-13838008D02*
X5808158Y-13847531D01*
X5808158Y-13847531D02*
X5817682Y-13866579D01*
X5817682Y-13866579D02*
X5827205Y-13904674D01*
X5827205Y-13904674D02*
X5827205Y-13952293D01*
X5827205Y-13952293D02*
X5817682Y-13990388D01*
X5817682Y-13990388D02*
X5808158Y-14009436D01*
X5808158Y-14009436D02*
X5798634Y-14018960D01*
X5798634Y-14018960D02*
X5779586Y-14028484D01*
X5779586Y-14028484D02*
X5760539Y-14028484D01*
X5760539Y-14028484D02*
X5741491Y-14018960D01*
X5741491Y-14018960D02*
X5731967Y-14009436D01*
X5731967Y-14009436D02*
X5722443Y-13990388D01*
X5722443Y-13990388D02*
X5712920Y-13952293D01*
X5712920Y-13952293D02*
X5712920Y-13904674D01*
X5712920Y-13904674D02*
X5722443Y-13866579D01*
X5722443Y-13866579D02*
X5731967Y-13847531D01*
X5731967Y-13847531D02*
X5741491Y-13838008D01*
X5741491Y-13838008D02*
X5760539Y-13828484D01*
X5912920Y-14028484D02*
X5912920Y-13895150D01*
X5912920Y-13914198D02*
X5922443Y-13904674D01*
X5922443Y-13904674D02*
X5941491Y-13895150D01*
X5941491Y-13895150D02*
X5970063Y-13895150D01*
X5970063Y-13895150D02*
X5989110Y-13904674D01*
X5989110Y-13904674D02*
X5998634Y-13923722D01*
X5998634Y-13923722D02*
X5998634Y-14028484D01*
X5998634Y-13923722D02*
X6008158Y-13904674D01*
X6008158Y-13904674D02*
X6027205Y-13895150D01*
X6027205Y-13895150D02*
X6055777Y-13895150D01*
X6055777Y-13895150D02*
X6074824Y-13904674D01*
X6074824Y-13904674D02*
X6084348Y-13923722D01*
X6084348Y-13923722D02*
X6084348Y-14028484D01*
X6179586Y-14028484D02*
X6179586Y-13895150D01*
X6179586Y-13914198D02*
X6189110Y-13904674D01*
X6189110Y-13904674D02*
X6208158Y-13895150D01*
X6208158Y-13895150D02*
X6236729Y-13895150D01*
X6236729Y-13895150D02*
X6255777Y-13904674D01*
X6255777Y-13904674D02*
X6265301Y-13923722D01*
X6265301Y-13923722D02*
X6265301Y-14028484D01*
X6265301Y-13923722D02*
X6274824Y-13904674D01*
X6274824Y-13904674D02*
X6293872Y-13895150D01*
X6293872Y-13895150D02*
X6322443Y-13895150D01*
X6322443Y-13895150D02*
X6341491Y-13904674D01*
X6341491Y-13904674D02*
X6351015Y-13923722D01*
X6351015Y-13923722D02*
X6351015Y-14028484D01*
X6741491Y-13818960D02*
X6570063Y-14076103D01*
X6998634Y-13828484D02*
X7017682Y-13828484D01*
X7017682Y-13828484D02*
X7036729Y-13838008D01*
X7036729Y-13838008D02*
X7046253Y-13847531D01*
X7046253Y-13847531D02*
X7055777Y-13866579D01*
X7055777Y-13866579D02*
X7065301Y-13904674D01*
X7065301Y-13904674D02*
X7065301Y-13952293D01*
X7065301Y-13952293D02*
X7055777Y-13990388D01*
X7055777Y-13990388D02*
X7046253Y-14009436D01*
X7046253Y-14009436D02*
X7036729Y-14018960D01*
X7036729Y-14018960D02*
X7017682Y-14028484D01*
X7017682Y-14028484D02*
X6998634Y-14028484D01*
X6998634Y-14028484D02*
X6979586Y-14018960D01*
X6979586Y-14018960D02*
X6970063Y-14009436D01*
X6970063Y-14009436D02*
X6960539Y-13990388D01*
X6960539Y-13990388D02*
X6951015Y-13952293D01*
X6951015Y-13952293D02*
X6951015Y-13904674D01*
X6951015Y-13904674D02*
X6960539Y-13866579D01*
X6960539Y-13866579D02*
X6970063Y-13847531D01*
X6970063Y-13847531D02*
X6979586Y-13838008D01*
X6979586Y-13838008D02*
X6998634Y-13828484D01*
X7151015Y-14009436D02*
X7160539Y-14018960D01*
X7160539Y-14018960D02*
X7151015Y-14028484D01*
X7151015Y-14028484D02*
X7141491Y-14018960D01*
X7141491Y-14018960D02*
X7151015Y-14009436D01*
X7151015Y-14009436D02*
X7151015Y-14028484D01*
X7284348Y-13828484D02*
X7303396Y-13828484D01*
X7303396Y-13828484D02*
X7322444Y-13838008D01*
X7322444Y-13838008D02*
X7331967Y-13847531D01*
X7331967Y-13847531D02*
X7341491Y-13866579D01*
X7341491Y-13866579D02*
X7351015Y-13904674D01*
X7351015Y-13904674D02*
X7351015Y-13952293D01*
X7351015Y-13952293D02*
X7341491Y-13990388D01*
X7341491Y-13990388D02*
X7331967Y-14009436D01*
X7331967Y-14009436D02*
X7322444Y-14018960D01*
X7322444Y-14018960D02*
X7303396Y-14028484D01*
X7303396Y-14028484D02*
X7284348Y-14028484D01*
X7284348Y-14028484D02*
X7265301Y-14018960D01*
X7265301Y-14018960D02*
X7255777Y-14009436D01*
X7255777Y-14009436D02*
X7246253Y-13990388D01*
X7246253Y-13990388D02*
X7236729Y-13952293D01*
X7236729Y-13952293D02*
X7236729Y-13904674D01*
X7236729Y-13904674D02*
X7246253Y-13866579D01*
X7246253Y-13866579D02*
X7255777Y-13847531D01*
X7255777Y-13847531D02*
X7265301Y-13838008D01*
X7265301Y-13838008D02*
X7284348Y-13828484D01*
X7417682Y-13828484D02*
X7541491Y-13828484D01*
X7541491Y-13828484D02*
X7474825Y-13904674D01*
X7474825Y-13904674D02*
X7503396Y-13904674D01*
X7503396Y-13904674D02*
X7522444Y-13914198D01*
X7522444Y-13914198D02*
X7531967Y-13923722D01*
X7531967Y-13923722D02*
X7541491Y-13942769D01*
X7541491Y-13942769D02*
X7541491Y-13990388D01*
X7541491Y-13990388D02*
X7531967Y-14009436D01*
X7531967Y-14009436D02*
X7522444Y-14018960D01*
X7522444Y-14018960D02*
X7503396Y-14028484D01*
X7503396Y-14028484D02*
X7446253Y-14028484D01*
X7446253Y-14028484D02*
X7427206Y-14018960D01*
X7427206Y-14018960D02*
X7417682Y-14009436D01*
X7731967Y-14028484D02*
X7617682Y-14028484D01*
X7674825Y-14028484D02*
X7674825Y-13828484D01*
X7674825Y-13828484D02*
X7655777Y-13857055D01*
X7655777Y-13857055D02*
X7636729Y-13876103D01*
X7636729Y-13876103D02*
X7617682Y-13885627D01*
X7912920Y-13828484D02*
X7817682Y-13828484D01*
X7817682Y-13828484D02*
X7808158Y-13923722D01*
X7808158Y-13923722D02*
X7817682Y-13914198D01*
X7817682Y-13914198D02*
X7836729Y-13904674D01*
X7836729Y-13904674D02*
X7884348Y-13904674D01*
X7884348Y-13904674D02*
X7903396Y-13914198D01*
X7903396Y-13914198D02*
X7912920Y-13923722D01*
X7912920Y-13923722D02*
X7922444Y-13942769D01*
X7922444Y-13942769D02*
X7922444Y-13990388D01*
X7922444Y-13990388D02*
X7912920Y-14009436D01*
X7912920Y-14009436D02*
X7903396Y-14018960D01*
X7903396Y-14018960D02*
X7884348Y-14028484D01*
X7884348Y-14028484D02*
X7836729Y-14028484D01*
X7836729Y-14028484D02*
X7817682Y-14018960D01*
X7817682Y-14018960D02*
X7808158Y-14009436D01*
X7998634Y-13828484D02*
X7998634Y-13866579D01*
X8074825Y-13828484D02*
X8074825Y-13866579D01*
X8370063Y-14104674D02*
X8360539Y-14095150D01*
X8360539Y-14095150D02*
X8341491Y-14066579D01*
X8341491Y-14066579D02*
X8331968Y-14047531D01*
X8331968Y-14047531D02*
X8322444Y-14018960D01*
X8322444Y-14018960D02*
X8312920Y-13971341D01*
X8312920Y-13971341D02*
X8312920Y-13933246D01*
X8312920Y-13933246D02*
X8322444Y-13885627D01*
X8322444Y-13885627D02*
X8331968Y-13857055D01*
X8331968Y-13857055D02*
X8341491Y-13838008D01*
X8341491Y-13838008D02*
X8360539Y-13809436D01*
X8360539Y-13809436D02*
X8370063Y-13799912D01*
X8531968Y-13895150D02*
X8531968Y-14028484D01*
X8484349Y-13818960D02*
X8436730Y-13961817D01*
X8436730Y-13961817D02*
X8560539Y-13961817D01*
X8674825Y-13828484D02*
X8693872Y-13828484D01*
X8693872Y-13828484D02*
X8712920Y-13838008D01*
X8712920Y-13838008D02*
X8722444Y-13847531D01*
X8722444Y-13847531D02*
X8731968Y-13866579D01*
X8731968Y-13866579D02*
X8741491Y-13904674D01*
X8741491Y-13904674D02*
X8741491Y-13952293D01*
X8741491Y-13952293D02*
X8731968Y-13990388D01*
X8731968Y-13990388D02*
X8722444Y-14009436D01*
X8722444Y-14009436D02*
X8712920Y-14018960D01*
X8712920Y-14018960D02*
X8693872Y-14028484D01*
X8693872Y-14028484D02*
X8674825Y-14028484D01*
X8674825Y-14028484D02*
X8655777Y-14018960D01*
X8655777Y-14018960D02*
X8646253Y-14009436D01*
X8646253Y-14009436D02*
X8636730Y-13990388D01*
X8636730Y-13990388D02*
X8627206Y-13952293D01*
X8627206Y-13952293D02*
X8627206Y-13904674D01*
X8627206Y-13904674D02*
X8636730Y-13866579D01*
X8636730Y-13866579D02*
X8646253Y-13847531D01*
X8646253Y-13847531D02*
X8655777Y-13838008D01*
X8655777Y-13838008D02*
X8674825Y-13828484D01*
X8979587Y-14028484D02*
X8979587Y-13828484D01*
X9065301Y-14028484D02*
X9065301Y-13923722D01*
X9065301Y-13923722D02*
X9055777Y-13904674D01*
X9055777Y-13904674D02*
X9036730Y-13895150D01*
X9036730Y-13895150D02*
X9008158Y-13895150D01*
X9008158Y-13895150D02*
X8989111Y-13904674D01*
X8989111Y-13904674D02*
X8979587Y-13914198D01*
X9189111Y-14028484D02*
X9170063Y-14018960D01*
X9170063Y-14018960D02*
X9160539Y-14009436D01*
X9160539Y-14009436D02*
X9151015Y-13990388D01*
X9151015Y-13990388D02*
X9151015Y-13933246D01*
X9151015Y-13933246D02*
X9160539Y-13914198D01*
X9160539Y-13914198D02*
X9170063Y-13904674D01*
X9170063Y-13904674D02*
X9189111Y-13895150D01*
X9189111Y-13895150D02*
X9217682Y-13895150D01*
X9217682Y-13895150D02*
X9236730Y-13904674D01*
X9236730Y-13904674D02*
X9246253Y-13914198D01*
X9246253Y-13914198D02*
X9255777Y-13933246D01*
X9255777Y-13933246D02*
X9255777Y-13990388D01*
X9255777Y-13990388D02*
X9246253Y-14009436D01*
X9246253Y-14009436D02*
X9236730Y-14018960D01*
X9236730Y-14018960D02*
X9217682Y-14028484D01*
X9217682Y-14028484D02*
X9189111Y-14028484D01*
X9370063Y-14028484D02*
X9351015Y-14018960D01*
X9351015Y-14018960D02*
X9341492Y-13999912D01*
X9341492Y-13999912D02*
X9341492Y-13828484D01*
X9522444Y-14018960D02*
X9503396Y-14028484D01*
X9503396Y-14028484D02*
X9465301Y-14028484D01*
X9465301Y-14028484D02*
X9446253Y-14018960D01*
X9446253Y-14018960D02*
X9436730Y-13999912D01*
X9436730Y-13999912D02*
X9436730Y-13923722D01*
X9436730Y-13923722D02*
X9446253Y-13904674D01*
X9446253Y-13904674D02*
X9465301Y-13895150D01*
X9465301Y-13895150D02*
X9503396Y-13895150D01*
X9503396Y-13895150D02*
X9522444Y-13904674D01*
X9522444Y-13904674D02*
X9531968Y-13923722D01*
X9531968Y-13923722D02*
X9531968Y-13942769D01*
X9531968Y-13942769D02*
X9436730Y-13961817D01*
X9608158Y-14018960D02*
X9627206Y-14028484D01*
X9627206Y-14028484D02*
X9665301Y-14028484D01*
X9665301Y-14028484D02*
X9684349Y-14018960D01*
X9684349Y-14018960D02*
X9693873Y-13999912D01*
X9693873Y-13999912D02*
X9693873Y-13990388D01*
X9693873Y-13990388D02*
X9684349Y-13971341D01*
X9684349Y-13971341D02*
X9665301Y-13961817D01*
X9665301Y-13961817D02*
X9636730Y-13961817D01*
X9636730Y-13961817D02*
X9617682Y-13952293D01*
X9617682Y-13952293D02*
X9608158Y-13933246D01*
X9608158Y-13933246D02*
X9608158Y-13923722D01*
X9608158Y-13923722D02*
X9617682Y-13904674D01*
X9617682Y-13904674D02*
X9636730Y-13895150D01*
X9636730Y-13895150D02*
X9665301Y-13895150D01*
X9665301Y-13895150D02*
X9684349Y-13904674D01*
X9760539Y-14104674D02*
X9770063Y-14095150D01*
X9770063Y-14095150D02*
X9789111Y-14066579D01*
X9789111Y-14066579D02*
X9798634Y-14047531D01*
X9798634Y-14047531D02*
X9808158Y-14018960D01*
X9808158Y-14018960D02*
X9817682Y-13971341D01*
X9817682Y-13971341D02*
X9817682Y-13933246D01*
X9817682Y-13933246D02*
X9808158Y-13885627D01*
X9808158Y-13885627D02*
X9798634Y-13857055D01*
X9798634Y-13857055D02*
X9789111Y-13838008D01*
X9789111Y-13838008D02*
X9770063Y-13809436D01*
X9770063Y-13809436D02*
X9760539Y-13799912D01*
D10*
X4745000Y-14251000D02*
X4795000Y-14201000D01*
X4745000Y-14151000D01*
X4695000Y-14201000D01*
X4745000Y-14251000D01*
D11*
X5160539Y-14292484D02*
X5046253Y-14292484D01*
X5103396Y-14292484D02*
X5103396Y-14092484D01*
X5103396Y-14092484D02*
X5084348Y-14121055D01*
X5084348Y-14121055D02*
X5065301Y-14140103D01*
X5065301Y-14140103D02*
X5046253Y-14149627D01*
X5246253Y-14273436D02*
X5255777Y-14282960D01*
X5255777Y-14282960D02*
X5246253Y-14292484D01*
X5246253Y-14292484D02*
X5236729Y-14282960D01*
X5236729Y-14282960D02*
X5246253Y-14273436D01*
X5246253Y-14273436D02*
X5246253Y-14292484D01*
X5379586Y-14092484D02*
X5398634Y-14092484D01*
X5398634Y-14092484D02*
X5417682Y-14102008D01*
X5417682Y-14102008D02*
X5427205Y-14111531D01*
X5427205Y-14111531D02*
X5436729Y-14130579D01*
X5436729Y-14130579D02*
X5446253Y-14168674D01*
X5446253Y-14168674D02*
X5446253Y-14216293D01*
X5446253Y-14216293D02*
X5436729Y-14254388D01*
X5436729Y-14254388D02*
X5427205Y-14273436D01*
X5427205Y-14273436D02*
X5417682Y-14282960D01*
X5417682Y-14282960D02*
X5398634Y-14292484D01*
X5398634Y-14292484D02*
X5379586Y-14292484D01*
X5379586Y-14292484D02*
X5360539Y-14282960D01*
X5360539Y-14282960D02*
X5351015Y-14273436D01*
X5351015Y-14273436D02*
X5341491Y-14254388D01*
X5341491Y-14254388D02*
X5331967Y-14216293D01*
X5331967Y-14216293D02*
X5331967Y-14168674D01*
X5331967Y-14168674D02*
X5341491Y-14130579D01*
X5341491Y-14130579D02*
X5351015Y-14111531D01*
X5351015Y-14111531D02*
X5360539Y-14102008D01*
X5360539Y-14102008D02*
X5379586Y-14092484D01*
X5570063Y-14092484D02*
X5589110Y-14092484D01*
X5589110Y-14092484D02*
X5608158Y-14102008D01*
X5608158Y-14102008D02*
X5617682Y-14111531D01*
X5617682Y-14111531D02*
X5627205Y-14130579D01*
X5627205Y-14130579D02*
X5636729Y-14168674D01*
X5636729Y-14168674D02*
X5636729Y-14216293D01*
X5636729Y-14216293D02*
X5627205Y-14254388D01*
X5627205Y-14254388D02*
X5617682Y-14273436D01*
X5617682Y-14273436D02*
X5608158Y-14282960D01*
X5608158Y-14282960D02*
X5589110Y-14292484D01*
X5589110Y-14292484D02*
X5570063Y-14292484D01*
X5570063Y-14292484D02*
X5551015Y-14282960D01*
X5551015Y-14282960D02*
X5541491Y-14273436D01*
X5541491Y-14273436D02*
X5531967Y-14254388D01*
X5531967Y-14254388D02*
X5522444Y-14216293D01*
X5522444Y-14216293D02*
X5522444Y-14168674D01*
X5522444Y-14168674D02*
X5531967Y-14130579D01*
X5531967Y-14130579D02*
X5541491Y-14111531D01*
X5541491Y-14111531D02*
X5551015Y-14102008D01*
X5551015Y-14102008D02*
X5570063Y-14092484D01*
X5760539Y-14092484D02*
X5779586Y-14092484D01*
X5779586Y-14092484D02*
X5798634Y-14102008D01*
X5798634Y-14102008D02*
X5808158Y-14111531D01*
X5808158Y-14111531D02*
X5817682Y-14130579D01*
X5817682Y-14130579D02*
X5827205Y-14168674D01*
X5827205Y-14168674D02*
X5827205Y-14216293D01*
X5827205Y-14216293D02*
X5817682Y-14254388D01*
X5817682Y-14254388D02*
X5808158Y-14273436D01*
X5808158Y-14273436D02*
X5798634Y-14282960D01*
X5798634Y-14282960D02*
X5779586Y-14292484D01*
X5779586Y-14292484D02*
X5760539Y-14292484D01*
X5760539Y-14292484D02*
X5741491Y-14282960D01*
X5741491Y-14282960D02*
X5731967Y-14273436D01*
X5731967Y-14273436D02*
X5722443Y-14254388D01*
X5722443Y-14254388D02*
X5712920Y-14216293D01*
X5712920Y-14216293D02*
X5712920Y-14168674D01*
X5712920Y-14168674D02*
X5722443Y-14130579D01*
X5722443Y-14130579D02*
X5731967Y-14111531D01*
X5731967Y-14111531D02*
X5741491Y-14102008D01*
X5741491Y-14102008D02*
X5760539Y-14092484D01*
X5912920Y-14292484D02*
X5912920Y-14159150D01*
X5912920Y-14178198D02*
X5922443Y-14168674D01*
X5922443Y-14168674D02*
X5941491Y-14159150D01*
X5941491Y-14159150D02*
X5970063Y-14159150D01*
X5970063Y-14159150D02*
X5989110Y-14168674D01*
X5989110Y-14168674D02*
X5998634Y-14187722D01*
X5998634Y-14187722D02*
X5998634Y-14292484D01*
X5998634Y-14187722D02*
X6008158Y-14168674D01*
X6008158Y-14168674D02*
X6027205Y-14159150D01*
X6027205Y-14159150D02*
X6055777Y-14159150D01*
X6055777Y-14159150D02*
X6074824Y-14168674D01*
X6074824Y-14168674D02*
X6084348Y-14187722D01*
X6084348Y-14187722D02*
X6084348Y-14292484D01*
X6179586Y-14292484D02*
X6179586Y-14159150D01*
X6179586Y-14178198D02*
X6189110Y-14168674D01*
X6189110Y-14168674D02*
X6208158Y-14159150D01*
X6208158Y-14159150D02*
X6236729Y-14159150D01*
X6236729Y-14159150D02*
X6255777Y-14168674D01*
X6255777Y-14168674D02*
X6265301Y-14187722D01*
X6265301Y-14187722D02*
X6265301Y-14292484D01*
X6265301Y-14187722D02*
X6274824Y-14168674D01*
X6274824Y-14168674D02*
X6293872Y-14159150D01*
X6293872Y-14159150D02*
X6322443Y-14159150D01*
X6322443Y-14159150D02*
X6341491Y-14168674D01*
X6341491Y-14168674D02*
X6351015Y-14187722D01*
X6351015Y-14187722D02*
X6351015Y-14292484D01*
X6741491Y-14082960D02*
X6570063Y-14340103D01*
X6998634Y-14092484D02*
X7017682Y-14092484D01*
X7017682Y-14092484D02*
X7036729Y-14102008D01*
X7036729Y-14102008D02*
X7046253Y-14111531D01*
X7046253Y-14111531D02*
X7055777Y-14130579D01*
X7055777Y-14130579D02*
X7065301Y-14168674D01*
X7065301Y-14168674D02*
X7065301Y-14216293D01*
X7065301Y-14216293D02*
X7055777Y-14254388D01*
X7055777Y-14254388D02*
X7046253Y-14273436D01*
X7046253Y-14273436D02*
X7036729Y-14282960D01*
X7036729Y-14282960D02*
X7017682Y-14292484D01*
X7017682Y-14292484D02*
X6998634Y-14292484D01*
X6998634Y-14292484D02*
X6979586Y-14282960D01*
X6979586Y-14282960D02*
X6970063Y-14273436D01*
X6970063Y-14273436D02*
X6960539Y-14254388D01*
X6960539Y-14254388D02*
X6951015Y-14216293D01*
X6951015Y-14216293D02*
X6951015Y-14168674D01*
X6951015Y-14168674D02*
X6960539Y-14130579D01*
X6960539Y-14130579D02*
X6970063Y-14111531D01*
X6970063Y-14111531D02*
X6979586Y-14102008D01*
X6979586Y-14102008D02*
X6998634Y-14092484D01*
X7151015Y-14273436D02*
X7160539Y-14282960D01*
X7160539Y-14282960D02*
X7151015Y-14292484D01*
X7151015Y-14292484D02*
X7141491Y-14282960D01*
X7141491Y-14282960D02*
X7151015Y-14273436D01*
X7151015Y-14273436D02*
X7151015Y-14292484D01*
X7284348Y-14092484D02*
X7303396Y-14092484D01*
X7303396Y-14092484D02*
X7322444Y-14102008D01*
X7322444Y-14102008D02*
X7331967Y-14111531D01*
X7331967Y-14111531D02*
X7341491Y-14130579D01*
X7341491Y-14130579D02*
X7351015Y-14168674D01*
X7351015Y-14168674D02*
X7351015Y-14216293D01*
X7351015Y-14216293D02*
X7341491Y-14254388D01*
X7341491Y-14254388D02*
X7331967Y-14273436D01*
X7331967Y-14273436D02*
X7322444Y-14282960D01*
X7322444Y-14282960D02*
X7303396Y-14292484D01*
X7303396Y-14292484D02*
X7284348Y-14292484D01*
X7284348Y-14292484D02*
X7265301Y-14282960D01*
X7265301Y-14282960D02*
X7255777Y-14273436D01*
X7255777Y-14273436D02*
X7246253Y-14254388D01*
X7246253Y-14254388D02*
X7236729Y-14216293D01*
X7236729Y-14216293D02*
X7236729Y-14168674D01*
X7236729Y-14168674D02*
X7246253Y-14130579D01*
X7246253Y-14130579D02*
X7255777Y-14111531D01*
X7255777Y-14111531D02*
X7265301Y-14102008D01*
X7265301Y-14102008D02*
X7284348Y-14092484D01*
X7417682Y-14092484D02*
X7541491Y-14092484D01*
X7541491Y-14092484D02*
X7474825Y-14168674D01*
X7474825Y-14168674D02*
X7503396Y-14168674D01*
X7503396Y-14168674D02*
X7522444Y-14178198D01*
X7522444Y-14178198D02*
X7531967Y-14187722D01*
X7531967Y-14187722D02*
X7541491Y-14206769D01*
X7541491Y-14206769D02*
X7541491Y-14254388D01*
X7541491Y-14254388D02*
X7531967Y-14273436D01*
X7531967Y-14273436D02*
X7522444Y-14282960D01*
X7522444Y-14282960D02*
X7503396Y-14292484D01*
X7503396Y-14292484D02*
X7446253Y-14292484D01*
X7446253Y-14292484D02*
X7427206Y-14282960D01*
X7427206Y-14282960D02*
X7417682Y-14273436D01*
X7636729Y-14292484D02*
X7674825Y-14292484D01*
X7674825Y-14292484D02*
X7693872Y-14282960D01*
X7693872Y-14282960D02*
X7703396Y-14273436D01*
X7703396Y-14273436D02*
X7722444Y-14244865D01*
X7722444Y-14244865D02*
X7731967Y-14206769D01*
X7731967Y-14206769D02*
X7731967Y-14130579D01*
X7731967Y-14130579D02*
X7722444Y-14111531D01*
X7722444Y-14111531D02*
X7712920Y-14102008D01*
X7712920Y-14102008D02*
X7693872Y-14092484D01*
X7693872Y-14092484D02*
X7655777Y-14092484D01*
X7655777Y-14092484D02*
X7636729Y-14102008D01*
X7636729Y-14102008D02*
X7627206Y-14111531D01*
X7627206Y-14111531D02*
X7617682Y-14130579D01*
X7617682Y-14130579D02*
X7617682Y-14178198D01*
X7617682Y-14178198D02*
X7627206Y-14197246D01*
X7627206Y-14197246D02*
X7636729Y-14206769D01*
X7636729Y-14206769D02*
X7655777Y-14216293D01*
X7655777Y-14216293D02*
X7693872Y-14216293D01*
X7693872Y-14216293D02*
X7712920Y-14206769D01*
X7712920Y-14206769D02*
X7722444Y-14197246D01*
X7722444Y-14197246D02*
X7731967Y-14178198D01*
X7903396Y-14159150D02*
X7903396Y-14292484D01*
X7855777Y-14082960D02*
X7808158Y-14225817D01*
X7808158Y-14225817D02*
X7931967Y-14225817D01*
X7998634Y-14092484D02*
X7998634Y-14130579D01*
X8074825Y-14092484D02*
X8074825Y-14130579D01*
X8370063Y-14368674D02*
X8360539Y-14359150D01*
X8360539Y-14359150D02*
X8341491Y-14330579D01*
X8341491Y-14330579D02*
X8331968Y-14311531D01*
X8331968Y-14311531D02*
X8322444Y-14282960D01*
X8322444Y-14282960D02*
X8312920Y-14235341D01*
X8312920Y-14235341D02*
X8312920Y-14197246D01*
X8312920Y-14197246D02*
X8322444Y-14149627D01*
X8322444Y-14149627D02*
X8331968Y-14121055D01*
X8331968Y-14121055D02*
X8341491Y-14102008D01*
X8341491Y-14102008D02*
X8360539Y-14073436D01*
X8360539Y-14073436D02*
X8370063Y-14063912D01*
X8427206Y-14092484D02*
X8551015Y-14092484D01*
X8551015Y-14092484D02*
X8484349Y-14168674D01*
X8484349Y-14168674D02*
X8512920Y-14168674D01*
X8512920Y-14168674D02*
X8531968Y-14178198D01*
X8531968Y-14178198D02*
X8541491Y-14187722D01*
X8541491Y-14187722D02*
X8551015Y-14206769D01*
X8551015Y-14206769D02*
X8551015Y-14254388D01*
X8551015Y-14254388D02*
X8541491Y-14273436D01*
X8541491Y-14273436D02*
X8531968Y-14282960D01*
X8531968Y-14282960D02*
X8512920Y-14292484D01*
X8512920Y-14292484D02*
X8455777Y-14292484D01*
X8455777Y-14292484D02*
X8436730Y-14282960D01*
X8436730Y-14282960D02*
X8427206Y-14273436D01*
X8722444Y-14159150D02*
X8722444Y-14292484D01*
X8674825Y-14082960D02*
X8627206Y-14225817D01*
X8627206Y-14225817D02*
X8751015Y-14225817D01*
X8979587Y-14292484D02*
X8979587Y-14092484D01*
X9065301Y-14292484D02*
X9065301Y-14187722D01*
X9065301Y-14187722D02*
X9055777Y-14168674D01*
X9055777Y-14168674D02*
X9036730Y-14159150D01*
X9036730Y-14159150D02*
X9008158Y-14159150D01*
X9008158Y-14159150D02*
X8989111Y-14168674D01*
X8989111Y-14168674D02*
X8979587Y-14178198D01*
X9189111Y-14292484D02*
X9170063Y-14282960D01*
X9170063Y-14282960D02*
X9160539Y-14273436D01*
X9160539Y-14273436D02*
X9151015Y-14254388D01*
X9151015Y-14254388D02*
X9151015Y-14197246D01*
X9151015Y-14197246D02*
X9160539Y-14178198D01*
X9160539Y-14178198D02*
X9170063Y-14168674D01*
X9170063Y-14168674D02*
X9189111Y-14159150D01*
X9189111Y-14159150D02*
X9217682Y-14159150D01*
X9217682Y-14159150D02*
X9236730Y-14168674D01*
X9236730Y-14168674D02*
X9246253Y-14178198D01*
X9246253Y-14178198D02*
X9255777Y-14197246D01*
X9255777Y-14197246D02*
X9255777Y-14254388D01*
X9255777Y-14254388D02*
X9246253Y-14273436D01*
X9246253Y-14273436D02*
X9236730Y-14282960D01*
X9236730Y-14282960D02*
X9217682Y-14292484D01*
X9217682Y-14292484D02*
X9189111Y-14292484D01*
X9370063Y-14292484D02*
X9351015Y-14282960D01*
X9351015Y-14282960D02*
X9341492Y-14263912D01*
X9341492Y-14263912D02*
X9341492Y-14092484D01*
X9522444Y-14282960D02*
X9503396Y-14292484D01*
X9503396Y-14292484D02*
X9465301Y-14292484D01*
X9465301Y-14292484D02*
X9446253Y-14282960D01*
X9446253Y-14282960D02*
X9436730Y-14263912D01*
X9436730Y-14263912D02*
X9436730Y-14187722D01*
X9436730Y-14187722D02*
X9446253Y-14168674D01*
X9446253Y-14168674D02*
X9465301Y-14159150D01*
X9465301Y-14159150D02*
X9503396Y-14159150D01*
X9503396Y-14159150D02*
X9522444Y-14168674D01*
X9522444Y-14168674D02*
X9531968Y-14187722D01*
X9531968Y-14187722D02*
X9531968Y-14206769D01*
X9531968Y-14206769D02*
X9436730Y-14225817D01*
X9608158Y-14282960D02*
X9627206Y-14292484D01*
X9627206Y-14292484D02*
X9665301Y-14292484D01*
X9665301Y-14292484D02*
X9684349Y-14282960D01*
X9684349Y-14282960D02*
X9693873Y-14263912D01*
X9693873Y-14263912D02*
X9693873Y-14254388D01*
X9693873Y-14254388D02*
X9684349Y-14235341D01*
X9684349Y-14235341D02*
X9665301Y-14225817D01*
X9665301Y-14225817D02*
X9636730Y-14225817D01*
X9636730Y-14225817D02*
X9617682Y-14216293D01*
X9617682Y-14216293D02*
X9608158Y-14197246D01*
X9608158Y-14197246D02*
X9608158Y-14187722D01*
X9608158Y-14187722D02*
X9617682Y-14168674D01*
X9617682Y-14168674D02*
X9636730Y-14159150D01*
X9636730Y-14159150D02*
X9665301Y-14159150D01*
X9665301Y-14159150D02*
X9684349Y-14168674D01*
X9760539Y-14368674D02*
X9770063Y-14359150D01*
X9770063Y-14359150D02*
X9789111Y-14330579D01*
X9789111Y-14330579D02*
X9798634Y-14311531D01*
X9798634Y-14311531D02*
X9808158Y-14282960D01*
X9808158Y-14282960D02*
X9817682Y-14235341D01*
X9817682Y-14235341D02*
X9817682Y-14197246D01*
X9817682Y-14197246D02*
X9808158Y-14149627D01*
X9808158Y-14149627D02*
X9798634Y-14121055D01*
X9798634Y-14121055D02*
X9789111Y-14102008D01*
X9789111Y-14102008D02*
X9770063Y-14073436D01*
X9770063Y-14073436D02*
X9760539Y-14063912D01*
M02*
