%TF.GenerationSoftware,KiCad,Pcbnew,7.0.6*%
%TF.CreationDate,2023-08-02T15:10:34-04:00*%
%TF.ProjectId,Turing Machine State,54757269-6e67-4204-9d61-6368696e6520,rev?*%
%TF.SameCoordinates,Original*%
%TF.FileFunction,Drillmap*%
%TF.FilePolarity,Positive*%
%FSLAX45Y45*%
G04 Gerber Fmt 4.5, Leading zero omitted, Abs format (unit mm)*
G04 Created by KiCad (PCBNEW 7.0.6) date 2023-08-02 15:10:34*
%MOMM*%
%LPD*%
G01*
G04 APERTURE LIST*
%ADD10C,0.100000*%
%ADD11C,0.200000*%
G04 APERTURE END LIST*
D10*
X4800000Y-3500000D02*
X13500000Y-3500000D01*
X13500000Y-12500000D01*
X4800000Y-12500000D01*
X4800000Y-3500000D01*
D11*
X5055777Y-12816484D02*
X5055777Y-12616484D01*
X5055777Y-12616484D02*
X5103396Y-12616484D01*
X5103396Y-12616484D02*
X5131967Y-12626008D01*
X5131967Y-12626008D02*
X5151015Y-12645055D01*
X5151015Y-12645055D02*
X5160539Y-12664103D01*
X5160539Y-12664103D02*
X5170063Y-12702198D01*
X5170063Y-12702198D02*
X5170063Y-12730769D01*
X5170063Y-12730769D02*
X5160539Y-12768865D01*
X5160539Y-12768865D02*
X5151015Y-12787912D01*
X5151015Y-12787912D02*
X5131967Y-12806960D01*
X5131967Y-12806960D02*
X5103396Y-12816484D01*
X5103396Y-12816484D02*
X5055777Y-12816484D01*
X5255777Y-12816484D02*
X5255777Y-12683150D01*
X5255777Y-12721246D02*
X5265301Y-12702198D01*
X5265301Y-12702198D02*
X5274824Y-12692674D01*
X5274824Y-12692674D02*
X5293872Y-12683150D01*
X5293872Y-12683150D02*
X5312920Y-12683150D01*
X5379586Y-12816484D02*
X5379586Y-12683150D01*
X5379586Y-12616484D02*
X5370063Y-12626008D01*
X5370063Y-12626008D02*
X5379586Y-12635531D01*
X5379586Y-12635531D02*
X5389110Y-12626008D01*
X5389110Y-12626008D02*
X5379586Y-12616484D01*
X5379586Y-12616484D02*
X5379586Y-12635531D01*
X5503396Y-12816484D02*
X5484348Y-12806960D01*
X5484348Y-12806960D02*
X5474824Y-12787912D01*
X5474824Y-12787912D02*
X5474824Y-12616484D01*
X5608158Y-12816484D02*
X5589110Y-12806960D01*
X5589110Y-12806960D02*
X5579586Y-12787912D01*
X5579586Y-12787912D02*
X5579586Y-12616484D01*
X5836729Y-12816484D02*
X5836729Y-12616484D01*
X5836729Y-12616484D02*
X5903396Y-12759341D01*
X5903396Y-12759341D02*
X5970062Y-12616484D01*
X5970062Y-12616484D02*
X5970062Y-12816484D01*
X6151015Y-12816484D02*
X6151015Y-12711722D01*
X6151015Y-12711722D02*
X6141491Y-12692674D01*
X6141491Y-12692674D02*
X6122443Y-12683150D01*
X6122443Y-12683150D02*
X6084348Y-12683150D01*
X6084348Y-12683150D02*
X6065301Y-12692674D01*
X6151015Y-12806960D02*
X6131967Y-12816484D01*
X6131967Y-12816484D02*
X6084348Y-12816484D01*
X6084348Y-12816484D02*
X6065301Y-12806960D01*
X6065301Y-12806960D02*
X6055777Y-12787912D01*
X6055777Y-12787912D02*
X6055777Y-12768865D01*
X6055777Y-12768865D02*
X6065301Y-12749817D01*
X6065301Y-12749817D02*
X6084348Y-12740293D01*
X6084348Y-12740293D02*
X6131967Y-12740293D01*
X6131967Y-12740293D02*
X6151015Y-12730769D01*
X6246253Y-12683150D02*
X6246253Y-12883150D01*
X6246253Y-12692674D02*
X6265301Y-12683150D01*
X6265301Y-12683150D02*
X6303396Y-12683150D01*
X6303396Y-12683150D02*
X6322443Y-12692674D01*
X6322443Y-12692674D02*
X6331967Y-12702198D01*
X6331967Y-12702198D02*
X6341491Y-12721246D01*
X6341491Y-12721246D02*
X6341491Y-12778388D01*
X6341491Y-12778388D02*
X6331967Y-12797436D01*
X6331967Y-12797436D02*
X6322443Y-12806960D01*
X6322443Y-12806960D02*
X6303396Y-12816484D01*
X6303396Y-12816484D02*
X6265301Y-12816484D01*
X6265301Y-12816484D02*
X6246253Y-12806960D01*
X6427205Y-12797436D02*
X6436729Y-12806960D01*
X6436729Y-12806960D02*
X6427205Y-12816484D01*
X6427205Y-12816484D02*
X6417682Y-12806960D01*
X6417682Y-12806960D02*
X6427205Y-12797436D01*
X6427205Y-12797436D02*
X6427205Y-12816484D01*
X6427205Y-12692674D02*
X6436729Y-12702198D01*
X6436729Y-12702198D02*
X6427205Y-12711722D01*
X6427205Y-12711722D02*
X6417682Y-12702198D01*
X6417682Y-12702198D02*
X6427205Y-12692674D01*
X6427205Y-12692674D02*
X6427205Y-12711722D01*
M02*
