G04 #@! TF.GenerationSoftware,KiCad,Pcbnew,7.0.6*
G04 #@! TF.CreationDate,2023-08-02T15:09:40-04:00*
G04 #@! TF.ProjectId,Turing Machine State,54757269-6e67-4204-9d61-6368696e6520,rev?*
G04 #@! TF.SameCoordinates,Original*
G04 #@! TF.FileFunction,Legend,Top*
G04 #@! TF.FilePolarity,Positive*
%FSLAX46Y46*%
G04 Gerber Fmt 4.6, Leading zero omitted, Abs format (unit mm)*
G04 Created by KiCad (PCBNEW 7.0.6) date 2023-08-02 15:09:40*
%MOMM*%
%LPD*%
G01*
G04 APERTURE LIST*
%ADD10C,0.050000*%
%ADD11C,0.600000*%
%ADD12C,0.150000*%
%ADD13C,0.120000*%
%ADD14C,1.300000*%
%ADD15O,1.600000X1.600000*%
%ADD16R,1.600000X1.600000*%
%ADD17O,1.700000X1.700000*%
%ADD18R,1.700000X1.700000*%
%ADD19R,1.300000X1.300000*%
G04 APERTURE END LIST*
D10*
X132878132Y-83912400D02*
X132949560Y-83936209D01*
X132949560Y-83936209D02*
X133068608Y-83936209D01*
X133068608Y-83936209D02*
X133116227Y-83912400D01*
X133116227Y-83912400D02*
X133140036Y-83888590D01*
X133140036Y-83888590D02*
X133163846Y-83840971D01*
X133163846Y-83840971D02*
X133163846Y-83793352D01*
X133163846Y-83793352D02*
X133140036Y-83745733D01*
X133140036Y-83745733D02*
X133116227Y-83721923D01*
X133116227Y-83721923D02*
X133068608Y-83698114D01*
X133068608Y-83698114D02*
X132973370Y-83674304D01*
X132973370Y-83674304D02*
X132925751Y-83650495D01*
X132925751Y-83650495D02*
X132901941Y-83626685D01*
X132901941Y-83626685D02*
X132878132Y-83579066D01*
X132878132Y-83579066D02*
X132878132Y-83531447D01*
X132878132Y-83531447D02*
X132901941Y-83483828D01*
X132901941Y-83483828D02*
X132925751Y-83460019D01*
X132925751Y-83460019D02*
X132973370Y-83436209D01*
X132973370Y-83436209D02*
X133092417Y-83436209D01*
X133092417Y-83436209D02*
X133163846Y-83460019D01*
X133473369Y-83436209D02*
X133520988Y-83436209D01*
X133520988Y-83436209D02*
X133568607Y-83460019D01*
X133568607Y-83460019D02*
X133592417Y-83483828D01*
X133592417Y-83483828D02*
X133616226Y-83531447D01*
X133616226Y-83531447D02*
X133640036Y-83626685D01*
X133640036Y-83626685D02*
X133640036Y-83745733D01*
X133640036Y-83745733D02*
X133616226Y-83840971D01*
X133616226Y-83840971D02*
X133592417Y-83888590D01*
X133592417Y-83888590D02*
X133568607Y-83912400D01*
X133568607Y-83912400D02*
X133520988Y-83936209D01*
X133520988Y-83936209D02*
X133473369Y-83936209D01*
X133473369Y-83936209D02*
X133425750Y-83912400D01*
X133425750Y-83912400D02*
X133401941Y-83888590D01*
X133401941Y-83888590D02*
X133378131Y-83840971D01*
X133378131Y-83840971D02*
X133354322Y-83745733D01*
X133354322Y-83745733D02*
X133354322Y-83626685D01*
X133354322Y-83626685D02*
X133378131Y-83531447D01*
X133378131Y-83531447D02*
X133401941Y-83483828D01*
X133401941Y-83483828D02*
X133425750Y-83460019D01*
X133425750Y-83460019D02*
X133473369Y-83436209D01*
D11*
X78680450Y-103701657D02*
X80394736Y-103701657D01*
X79537593Y-106701657D02*
X79537593Y-103701657D01*
X81394735Y-106701657D02*
X81394735Y-103701657D01*
X81394735Y-103701657D02*
X82394735Y-105844514D01*
X82394735Y-105844514D02*
X83394735Y-103701657D01*
X83394735Y-103701657D02*
X83394735Y-106701657D01*
X84823306Y-106701657D02*
X84823306Y-103701657D01*
X84823306Y-103701657D02*
X85537592Y-103701657D01*
X85537592Y-103701657D02*
X85966163Y-103844514D01*
X85966163Y-103844514D02*
X86251878Y-104130228D01*
X86251878Y-104130228D02*
X86394735Y-104415942D01*
X86394735Y-104415942D02*
X86537592Y-104987371D01*
X86537592Y-104987371D02*
X86537592Y-105415942D01*
X86537592Y-105415942D02*
X86394735Y-105987371D01*
X86394735Y-105987371D02*
X86251878Y-106273085D01*
X86251878Y-106273085D02*
X85966163Y-106558800D01*
X85966163Y-106558800D02*
X85537592Y-106701657D01*
X85537592Y-106701657D02*
X84823306Y-106701657D01*
X87823306Y-105558800D02*
X90109021Y-105558800D01*
X91251878Y-103701657D02*
X93109021Y-103701657D01*
X93109021Y-103701657D02*
X92109021Y-104844514D01*
X92109021Y-104844514D02*
X92537592Y-104844514D01*
X92537592Y-104844514D02*
X92823307Y-104987371D01*
X92823307Y-104987371D02*
X92966164Y-105130228D01*
X92966164Y-105130228D02*
X93109021Y-105415942D01*
X93109021Y-105415942D02*
X93109021Y-106130228D01*
X93109021Y-106130228D02*
X92966164Y-106415942D01*
X92966164Y-106415942D02*
X92823307Y-106558800D01*
X92823307Y-106558800D02*
X92537592Y-106701657D01*
X92537592Y-106701657D02*
X91680449Y-106701657D01*
X91680449Y-106701657D02*
X91394735Y-106558800D01*
X91394735Y-106558800D02*
X91251878Y-106415942D01*
D10*
X132901941Y-78674304D02*
X133068608Y-78674304D01*
X133140036Y-78936209D02*
X132901941Y-78936209D01*
X132901941Y-78936209D02*
X132901941Y-78436209D01*
X132901941Y-78436209D02*
X133140036Y-78436209D01*
X133330513Y-78483828D02*
X133354322Y-78460019D01*
X133354322Y-78460019D02*
X133401941Y-78436209D01*
X133401941Y-78436209D02*
X133520989Y-78436209D01*
X133520989Y-78436209D02*
X133568608Y-78460019D01*
X133568608Y-78460019D02*
X133592417Y-78483828D01*
X133592417Y-78483828D02*
X133616227Y-78531447D01*
X133616227Y-78531447D02*
X133616227Y-78579066D01*
X133616227Y-78579066D02*
X133592417Y-78650495D01*
X133592417Y-78650495D02*
X133306703Y-78936209D01*
X133306703Y-78936209D02*
X133616227Y-78936209D01*
D12*
X109214819Y-52798094D02*
X108214819Y-52798094D01*
X108214819Y-52798094D02*
X108929104Y-52464761D01*
X108929104Y-52464761D02*
X108214819Y-52131428D01*
X108214819Y-52131428D02*
X109214819Y-52131428D01*
X109119580Y-51083809D02*
X109167200Y-51131428D01*
X109167200Y-51131428D02*
X109214819Y-51274285D01*
X109214819Y-51274285D02*
X109214819Y-51369523D01*
X109214819Y-51369523D02*
X109167200Y-51512380D01*
X109167200Y-51512380D02*
X109071961Y-51607618D01*
X109071961Y-51607618D02*
X108976723Y-51655237D01*
X108976723Y-51655237D02*
X108786247Y-51702856D01*
X108786247Y-51702856D02*
X108643390Y-51702856D01*
X108643390Y-51702856D02*
X108452914Y-51655237D01*
X108452914Y-51655237D02*
X108357676Y-51607618D01*
X108357676Y-51607618D02*
X108262438Y-51512380D01*
X108262438Y-51512380D02*
X108214819Y-51369523D01*
X108214819Y-51369523D02*
X108214819Y-51274285D01*
X108214819Y-51274285D02*
X108262438Y-51131428D01*
X108262438Y-51131428D02*
X108310057Y-51083809D01*
X109214819Y-50655237D02*
X108214819Y-50655237D01*
X108214819Y-50655237D02*
X108214819Y-50274285D01*
X108214819Y-50274285D02*
X108262438Y-50179047D01*
X108262438Y-50179047D02*
X108310057Y-50131428D01*
X108310057Y-50131428D02*
X108405295Y-50083809D01*
X108405295Y-50083809D02*
X108548152Y-50083809D01*
X108548152Y-50083809D02*
X108643390Y-50131428D01*
X108643390Y-50131428D02*
X108691009Y-50179047D01*
X108691009Y-50179047D02*
X108738628Y-50274285D01*
X108738628Y-50274285D02*
X108738628Y-50655237D01*
X108214819Y-49750475D02*
X108214819Y-49131428D01*
X108214819Y-49131428D02*
X108595771Y-49464761D01*
X108595771Y-49464761D02*
X108595771Y-49321904D01*
X108595771Y-49321904D02*
X108643390Y-49226666D01*
X108643390Y-49226666D02*
X108691009Y-49179047D01*
X108691009Y-49179047D02*
X108786247Y-49131428D01*
X108786247Y-49131428D02*
X109024342Y-49131428D01*
X109024342Y-49131428D02*
X109119580Y-49179047D01*
X109119580Y-49179047D02*
X109167200Y-49226666D01*
X109167200Y-49226666D02*
X109214819Y-49321904D01*
X109214819Y-49321904D02*
X109214819Y-49607618D01*
X109214819Y-49607618D02*
X109167200Y-49702856D01*
X109167200Y-49702856D02*
X109119580Y-49750475D01*
X108214819Y-48512380D02*
X108214819Y-48417142D01*
X108214819Y-48417142D02*
X108262438Y-48321904D01*
X108262438Y-48321904D02*
X108310057Y-48274285D01*
X108310057Y-48274285D02*
X108405295Y-48226666D01*
X108405295Y-48226666D02*
X108595771Y-48179047D01*
X108595771Y-48179047D02*
X108833866Y-48179047D01*
X108833866Y-48179047D02*
X109024342Y-48226666D01*
X109024342Y-48226666D02*
X109119580Y-48274285D01*
X109119580Y-48274285D02*
X109167200Y-48321904D01*
X109167200Y-48321904D02*
X109214819Y-48417142D01*
X109214819Y-48417142D02*
X109214819Y-48512380D01*
X109214819Y-48512380D02*
X109167200Y-48607618D01*
X109167200Y-48607618D02*
X109119580Y-48655237D01*
X109119580Y-48655237D02*
X109024342Y-48702856D01*
X109024342Y-48702856D02*
X108833866Y-48750475D01*
X108833866Y-48750475D02*
X108595771Y-48750475D01*
X108595771Y-48750475D02*
X108405295Y-48702856D01*
X108405295Y-48702856D02*
X108310057Y-48655237D01*
X108310057Y-48655237D02*
X108262438Y-48607618D01*
X108262438Y-48607618D02*
X108214819Y-48512380D01*
X108214819Y-47559999D02*
X108214819Y-47464761D01*
X108214819Y-47464761D02*
X108262438Y-47369523D01*
X108262438Y-47369523D02*
X108310057Y-47321904D01*
X108310057Y-47321904D02*
X108405295Y-47274285D01*
X108405295Y-47274285D02*
X108595771Y-47226666D01*
X108595771Y-47226666D02*
X108833866Y-47226666D01*
X108833866Y-47226666D02*
X109024342Y-47274285D01*
X109024342Y-47274285D02*
X109119580Y-47321904D01*
X109119580Y-47321904D02*
X109167200Y-47369523D01*
X109167200Y-47369523D02*
X109214819Y-47464761D01*
X109214819Y-47464761D02*
X109214819Y-47559999D01*
X109214819Y-47559999D02*
X109167200Y-47655237D01*
X109167200Y-47655237D02*
X109119580Y-47702856D01*
X109119580Y-47702856D02*
X109024342Y-47750475D01*
X109024342Y-47750475D02*
X108833866Y-47798094D01*
X108833866Y-47798094D02*
X108595771Y-47798094D01*
X108595771Y-47798094D02*
X108405295Y-47750475D01*
X108405295Y-47750475D02*
X108310057Y-47702856D01*
X108310057Y-47702856D02*
X108262438Y-47655237D01*
X108262438Y-47655237D02*
X108214819Y-47559999D01*
X108643390Y-46655237D02*
X108595771Y-46750475D01*
X108595771Y-46750475D02*
X108548152Y-46798094D01*
X108548152Y-46798094D02*
X108452914Y-46845713D01*
X108452914Y-46845713D02*
X108405295Y-46845713D01*
X108405295Y-46845713D02*
X108310057Y-46798094D01*
X108310057Y-46798094D02*
X108262438Y-46750475D01*
X108262438Y-46750475D02*
X108214819Y-46655237D01*
X108214819Y-46655237D02*
X108214819Y-46464761D01*
X108214819Y-46464761D02*
X108262438Y-46369523D01*
X108262438Y-46369523D02*
X108310057Y-46321904D01*
X108310057Y-46321904D02*
X108405295Y-46274285D01*
X108405295Y-46274285D02*
X108452914Y-46274285D01*
X108452914Y-46274285D02*
X108548152Y-46321904D01*
X108548152Y-46321904D02*
X108595771Y-46369523D01*
X108595771Y-46369523D02*
X108643390Y-46464761D01*
X108643390Y-46464761D02*
X108643390Y-46655237D01*
X108643390Y-46655237D02*
X108691009Y-46750475D01*
X108691009Y-46750475D02*
X108738628Y-46798094D01*
X108738628Y-46798094D02*
X108833866Y-46845713D01*
X108833866Y-46845713D02*
X109024342Y-46845713D01*
X109024342Y-46845713D02*
X109119580Y-46798094D01*
X109119580Y-46798094D02*
X109167200Y-46750475D01*
X109167200Y-46750475D02*
X109214819Y-46655237D01*
X109214819Y-46655237D02*
X109214819Y-46464761D01*
X109214819Y-46464761D02*
X109167200Y-46369523D01*
X109167200Y-46369523D02*
X109119580Y-46321904D01*
X109119580Y-46321904D02*
X109024342Y-46274285D01*
X109024342Y-46274285D02*
X108833866Y-46274285D01*
X108833866Y-46274285D02*
X108738628Y-46321904D01*
X108738628Y-46321904D02*
X108691009Y-46369523D01*
X108691009Y-46369523D02*
X108643390Y-46464761D01*
X49321428Y-68711009D02*
X49464285Y-68758628D01*
X49464285Y-68758628D02*
X49511904Y-68806247D01*
X49511904Y-68806247D02*
X49559523Y-68901485D01*
X49559523Y-68901485D02*
X49559523Y-69044342D01*
X49559523Y-69044342D02*
X49511904Y-69139580D01*
X49511904Y-69139580D02*
X49464285Y-69187200D01*
X49464285Y-69187200D02*
X49369047Y-69234819D01*
X49369047Y-69234819D02*
X48988095Y-69234819D01*
X48988095Y-69234819D02*
X48988095Y-68234819D01*
X48988095Y-68234819D02*
X49321428Y-68234819D01*
X49321428Y-68234819D02*
X49416666Y-68282438D01*
X49416666Y-68282438D02*
X49464285Y-68330057D01*
X49464285Y-68330057D02*
X49511904Y-68425295D01*
X49511904Y-68425295D02*
X49511904Y-68520533D01*
X49511904Y-68520533D02*
X49464285Y-68615771D01*
X49464285Y-68615771D02*
X49416666Y-68663390D01*
X49416666Y-68663390D02*
X49321428Y-68711009D01*
X49321428Y-68711009D02*
X48988095Y-68711009D01*
X49988095Y-68234819D02*
X49988095Y-69044342D01*
X49988095Y-69044342D02*
X50035714Y-69139580D01*
X50035714Y-69139580D02*
X50083333Y-69187200D01*
X50083333Y-69187200D02*
X50178571Y-69234819D01*
X50178571Y-69234819D02*
X50369047Y-69234819D01*
X50369047Y-69234819D02*
X50464285Y-69187200D01*
X50464285Y-69187200D02*
X50511904Y-69139580D01*
X50511904Y-69139580D02*
X50559523Y-69044342D01*
X50559523Y-69044342D02*
X50559523Y-68234819D01*
X50988095Y-69187200D02*
X51130952Y-69234819D01*
X51130952Y-69234819D02*
X51369047Y-69234819D01*
X51369047Y-69234819D02*
X51464285Y-69187200D01*
X51464285Y-69187200D02*
X51511904Y-69139580D01*
X51511904Y-69139580D02*
X51559523Y-69044342D01*
X51559523Y-69044342D02*
X51559523Y-68949104D01*
X51559523Y-68949104D02*
X51511904Y-68853866D01*
X51511904Y-68853866D02*
X51464285Y-68806247D01*
X51464285Y-68806247D02*
X51369047Y-68758628D01*
X51369047Y-68758628D02*
X51178571Y-68711009D01*
X51178571Y-68711009D02*
X51083333Y-68663390D01*
X51083333Y-68663390D02*
X51035714Y-68615771D01*
X51035714Y-68615771D02*
X50988095Y-68520533D01*
X50988095Y-68520533D02*
X50988095Y-68425295D01*
X50988095Y-68425295D02*
X51035714Y-68330057D01*
X51035714Y-68330057D02*
X51083333Y-68282438D01*
X51083333Y-68282438D02*
X51178571Y-68234819D01*
X51178571Y-68234819D02*
X51416666Y-68234819D01*
X51416666Y-68234819D02*
X51559523Y-68282438D01*
X70521180Y-52755419D02*
X70568800Y-52803038D01*
X70568800Y-52803038D02*
X70616419Y-52945895D01*
X70616419Y-52945895D02*
X70616419Y-53041133D01*
X70616419Y-53041133D02*
X70568800Y-53183990D01*
X70568800Y-53183990D02*
X70473561Y-53279228D01*
X70473561Y-53279228D02*
X70378323Y-53326847D01*
X70378323Y-53326847D02*
X70187847Y-53374466D01*
X70187847Y-53374466D02*
X70044990Y-53374466D01*
X70044990Y-53374466D02*
X69854514Y-53326847D01*
X69854514Y-53326847D02*
X69759276Y-53279228D01*
X69759276Y-53279228D02*
X69664038Y-53183990D01*
X69664038Y-53183990D02*
X69616419Y-53041133D01*
X69616419Y-53041133D02*
X69616419Y-52945895D01*
X69616419Y-52945895D02*
X69664038Y-52803038D01*
X69664038Y-52803038D02*
X69711657Y-52755419D01*
X70616419Y-52326847D02*
X69616419Y-52326847D01*
X69616419Y-52326847D02*
X69616419Y-52088752D01*
X69616419Y-52088752D02*
X69664038Y-51945895D01*
X69664038Y-51945895D02*
X69759276Y-51850657D01*
X69759276Y-51850657D02*
X69854514Y-51803038D01*
X69854514Y-51803038D02*
X70044990Y-51755419D01*
X70044990Y-51755419D02*
X70187847Y-51755419D01*
X70187847Y-51755419D02*
X70378323Y-51803038D01*
X70378323Y-51803038D02*
X70473561Y-51850657D01*
X70473561Y-51850657D02*
X70568800Y-51945895D01*
X70568800Y-51945895D02*
X70616419Y-52088752D01*
X70616419Y-52088752D02*
X70616419Y-52326847D01*
X69949752Y-50898276D02*
X70616419Y-50898276D01*
X69568800Y-51136371D02*
X70283085Y-51374466D01*
X70283085Y-51374466D02*
X70283085Y-50755419D01*
X69616419Y-50183990D02*
X69616419Y-50088752D01*
X69616419Y-50088752D02*
X69664038Y-49993514D01*
X69664038Y-49993514D02*
X69711657Y-49945895D01*
X69711657Y-49945895D02*
X69806895Y-49898276D01*
X69806895Y-49898276D02*
X69997371Y-49850657D01*
X69997371Y-49850657D02*
X70235466Y-49850657D01*
X70235466Y-49850657D02*
X70425942Y-49898276D01*
X70425942Y-49898276D02*
X70521180Y-49945895D01*
X70521180Y-49945895D02*
X70568800Y-49993514D01*
X70568800Y-49993514D02*
X70616419Y-50088752D01*
X70616419Y-50088752D02*
X70616419Y-50183990D01*
X70616419Y-50183990D02*
X70568800Y-50279228D01*
X70568800Y-50279228D02*
X70521180Y-50326847D01*
X70521180Y-50326847D02*
X70425942Y-50374466D01*
X70425942Y-50374466D02*
X70235466Y-50422085D01*
X70235466Y-50422085D02*
X69997371Y-50422085D01*
X69997371Y-50422085D02*
X69806895Y-50374466D01*
X69806895Y-50374466D02*
X69711657Y-50326847D01*
X69711657Y-50326847D02*
X69664038Y-50279228D01*
X69664038Y-50279228D02*
X69616419Y-50183990D01*
X69616419Y-48993514D02*
X69616419Y-49183990D01*
X69616419Y-49183990D02*
X69664038Y-49279228D01*
X69664038Y-49279228D02*
X69711657Y-49326847D01*
X69711657Y-49326847D02*
X69854514Y-49422085D01*
X69854514Y-49422085D02*
X70044990Y-49469704D01*
X70044990Y-49469704D02*
X70425942Y-49469704D01*
X70425942Y-49469704D02*
X70521180Y-49422085D01*
X70521180Y-49422085D02*
X70568800Y-49374466D01*
X70568800Y-49374466D02*
X70616419Y-49279228D01*
X70616419Y-49279228D02*
X70616419Y-49088752D01*
X70616419Y-49088752D02*
X70568800Y-48993514D01*
X70568800Y-48993514D02*
X70521180Y-48945895D01*
X70521180Y-48945895D02*
X70425942Y-48898276D01*
X70425942Y-48898276D02*
X70187847Y-48898276D01*
X70187847Y-48898276D02*
X70092609Y-48945895D01*
X70092609Y-48945895D02*
X70044990Y-48993514D01*
X70044990Y-48993514D02*
X69997371Y-49088752D01*
X69997371Y-49088752D02*
X69997371Y-49279228D01*
X69997371Y-49279228D02*
X70044990Y-49374466D01*
X70044990Y-49374466D02*
X70092609Y-49422085D01*
X70092609Y-49422085D02*
X70187847Y-49469704D01*
X69616419Y-48564942D02*
X69616419Y-47898276D01*
X69616419Y-47898276D02*
X70616419Y-48326847D01*
X70092609Y-47183990D02*
X70140228Y-47041133D01*
X70140228Y-47041133D02*
X70187847Y-46993514D01*
X70187847Y-46993514D02*
X70283085Y-46945895D01*
X70283085Y-46945895D02*
X70425942Y-46945895D01*
X70425942Y-46945895D02*
X70521180Y-46993514D01*
X70521180Y-46993514D02*
X70568800Y-47041133D01*
X70568800Y-47041133D02*
X70616419Y-47136371D01*
X70616419Y-47136371D02*
X70616419Y-47517323D01*
X70616419Y-47517323D02*
X69616419Y-47517323D01*
X69616419Y-47517323D02*
X69616419Y-47183990D01*
X69616419Y-47183990D02*
X69664038Y-47088752D01*
X69664038Y-47088752D02*
X69711657Y-47041133D01*
X69711657Y-47041133D02*
X69806895Y-46993514D01*
X69806895Y-46993514D02*
X69902133Y-46993514D01*
X69902133Y-46993514D02*
X69997371Y-47041133D01*
X69997371Y-47041133D02*
X70044990Y-47088752D01*
X70044990Y-47088752D02*
X70092609Y-47183990D01*
X70092609Y-47183990D02*
X70092609Y-47517323D01*
X70092609Y-46517323D02*
X70092609Y-46183990D01*
X70616419Y-46041133D02*
X70616419Y-46517323D01*
X70616419Y-46517323D02*
X69616419Y-46517323D01*
X69616419Y-46517323D02*
X69616419Y-46041133D01*
X132071428Y-68211009D02*
X132214285Y-68258628D01*
X132214285Y-68258628D02*
X132261904Y-68306247D01*
X132261904Y-68306247D02*
X132309523Y-68401485D01*
X132309523Y-68401485D02*
X132309523Y-68544342D01*
X132309523Y-68544342D02*
X132261904Y-68639580D01*
X132261904Y-68639580D02*
X132214285Y-68687200D01*
X132214285Y-68687200D02*
X132119047Y-68734819D01*
X132119047Y-68734819D02*
X131738095Y-68734819D01*
X131738095Y-68734819D02*
X131738095Y-67734819D01*
X131738095Y-67734819D02*
X132071428Y-67734819D01*
X132071428Y-67734819D02*
X132166666Y-67782438D01*
X132166666Y-67782438D02*
X132214285Y-67830057D01*
X132214285Y-67830057D02*
X132261904Y-67925295D01*
X132261904Y-67925295D02*
X132261904Y-68020533D01*
X132261904Y-68020533D02*
X132214285Y-68115771D01*
X132214285Y-68115771D02*
X132166666Y-68163390D01*
X132166666Y-68163390D02*
X132071428Y-68211009D01*
X132071428Y-68211009D02*
X131738095Y-68211009D01*
X132738095Y-67734819D02*
X132738095Y-68544342D01*
X132738095Y-68544342D02*
X132785714Y-68639580D01*
X132785714Y-68639580D02*
X132833333Y-68687200D01*
X132833333Y-68687200D02*
X132928571Y-68734819D01*
X132928571Y-68734819D02*
X133119047Y-68734819D01*
X133119047Y-68734819D02*
X133214285Y-68687200D01*
X133214285Y-68687200D02*
X133261904Y-68639580D01*
X133261904Y-68639580D02*
X133309523Y-68544342D01*
X133309523Y-68544342D02*
X133309523Y-67734819D01*
X133738095Y-68687200D02*
X133880952Y-68734819D01*
X133880952Y-68734819D02*
X134119047Y-68734819D01*
X134119047Y-68734819D02*
X134214285Y-68687200D01*
X134214285Y-68687200D02*
X134261904Y-68639580D01*
X134261904Y-68639580D02*
X134309523Y-68544342D01*
X134309523Y-68544342D02*
X134309523Y-68449104D01*
X134309523Y-68449104D02*
X134261904Y-68353866D01*
X134261904Y-68353866D02*
X134214285Y-68306247D01*
X134214285Y-68306247D02*
X134119047Y-68258628D01*
X134119047Y-68258628D02*
X133928571Y-68211009D01*
X133928571Y-68211009D02*
X133833333Y-68163390D01*
X133833333Y-68163390D02*
X133785714Y-68115771D01*
X133785714Y-68115771D02*
X133738095Y-68020533D01*
X133738095Y-68020533D02*
X133738095Y-67925295D01*
X133738095Y-67925295D02*
X133785714Y-67830057D01*
X133785714Y-67830057D02*
X133833333Y-67782438D01*
X133833333Y-67782438D02*
X133928571Y-67734819D01*
X133928571Y-67734819D02*
X134166666Y-67734819D01*
X134166666Y-67734819D02*
X134309523Y-67782438D01*
X106634819Y-41499999D02*
X105634819Y-41499999D01*
X105634819Y-41499999D02*
X105634819Y-41119047D01*
X105634819Y-41119047D02*
X105682438Y-41023809D01*
X105682438Y-41023809D02*
X105730057Y-40976190D01*
X105730057Y-40976190D02*
X105825295Y-40928571D01*
X105825295Y-40928571D02*
X105968152Y-40928571D01*
X105968152Y-40928571D02*
X106063390Y-40976190D01*
X106063390Y-40976190D02*
X106111009Y-41023809D01*
X106111009Y-41023809D02*
X106158628Y-41119047D01*
X106158628Y-41119047D02*
X106158628Y-41499999D01*
X106634819Y-40499999D02*
X105634819Y-40499999D01*
D13*
X109700000Y-54700000D02*
X130260000Y-54700000D01*
X130260000Y-54700000D02*
X130260000Y-44420000D01*
X109760000Y-52210000D02*
X130200000Y-52210000D01*
X130200000Y-52210000D02*
X130200000Y-46910000D01*
X109760000Y-50560000D02*
X109760000Y-52210000D01*
X109760000Y-46910000D02*
X109760000Y-48560000D01*
X130200000Y-46910000D02*
X109760000Y-46910000D01*
X109700000Y-44420000D02*
X109700000Y-54700000D01*
X130260000Y-44420000D02*
X109700000Y-44420000D01*
X109760000Y-50560000D02*
G75*
G03*
X109760000Y-48560000I0J1000000D01*
G01*
X48920000Y-72820000D02*
X48920000Y-100820000D01*
X48920000Y-72820000D02*
X51580000Y-72820000D01*
X48920000Y-100820000D02*
X51580000Y-100820000D01*
X50250000Y-70220000D02*
X51580000Y-70220000D01*
X51580000Y-70220000D02*
X51580000Y-71550000D01*
X51580000Y-72820000D02*
X51580000Y-100820000D01*
X71101600Y-58657800D02*
X101821600Y-58657800D01*
X101821600Y-58657800D02*
X101821600Y-40757800D01*
X71161600Y-56167800D02*
X101761600Y-56167800D01*
X101761600Y-56167800D02*
X101761600Y-43247800D01*
X71161600Y-50707800D02*
X71161600Y-56167800D01*
X71161600Y-43247800D02*
X71161600Y-48707800D01*
X101761600Y-43247800D02*
X71161600Y-43247800D01*
X71101600Y-40757800D02*
X71101600Y-58657800D01*
X101821600Y-40757800D02*
X71101600Y-40757800D01*
X71161600Y-50707800D02*
G75*
G03*
X71161600Y-48707800I0J1000000D01*
G01*
X131670000Y-72320000D02*
X131670000Y-100320000D01*
X131670000Y-72320000D02*
X134330000Y-72320000D01*
X131670000Y-100320000D02*
X134330000Y-100320000D01*
X133000000Y-69720000D02*
X134330000Y-69720000D01*
X134330000Y-69720000D02*
X134330000Y-71050000D01*
X134330000Y-72320000D02*
X134330000Y-100320000D01*
X107180000Y-42330000D02*
X107180000Y-41000000D01*
X108510000Y-42330000D02*
X107180000Y-42330000D01*
X109780000Y-42330000D02*
X132700000Y-42330000D01*
X109780000Y-42330000D02*
X109780000Y-39670000D01*
X132700000Y-42330000D02*
X132700000Y-39670000D01*
X109780000Y-39670000D02*
X132700000Y-39670000D01*
%LPC*%
D14*
X58771400Y-94139600D03*
X109771400Y-94139600D03*
X74501400Y-117409600D03*
X126771400Y-94139600D03*
X92771400Y-116139600D03*
X108501400Y-73409600D03*
X125501400Y-73409600D03*
X75771400Y-94139600D03*
X91501400Y-73409600D03*
X57501400Y-51409600D03*
X57501400Y-117409600D03*
X57501400Y-95409600D03*
X125501400Y-117409600D03*
X109771400Y-116139600D03*
X91501400Y-117409600D03*
X108501400Y-95409600D03*
D15*
X116170000Y-45750000D03*
D16*
X111090000Y-53370000D03*
D15*
X113630000Y-53370000D03*
X116170000Y-53370000D03*
X118710000Y-53370000D03*
X121250000Y-53370000D03*
X123790000Y-53370000D03*
X126330000Y-53370000D03*
X128870000Y-53370000D03*
X118710000Y-45750000D03*
X126330000Y-45750000D03*
X128870000Y-45750000D03*
X123790000Y-45750000D03*
X121250000Y-45750000D03*
X111090000Y-45750000D03*
X113630000Y-45750000D03*
D14*
X74501400Y-95409600D03*
X75771400Y-116139600D03*
D17*
X50250000Y-74090000D03*
X50250000Y-76630000D03*
X50250000Y-79170000D03*
X50250000Y-81710000D03*
X50250000Y-84250000D03*
X50250000Y-86790000D03*
X50250000Y-99490000D03*
D18*
X50250000Y-71550000D03*
D17*
X50250000Y-89330000D03*
X50250000Y-91870000D03*
X50250000Y-94410000D03*
X50250000Y-96950000D03*
D14*
X74501400Y-73409600D03*
X58771400Y-50139600D03*
D16*
X72491600Y-57327800D03*
D15*
X95351600Y-42087800D03*
X100431600Y-57327800D03*
X92811600Y-57327800D03*
X90271600Y-57327800D03*
X87731600Y-57327800D03*
X85191600Y-57327800D03*
X82651600Y-57327800D03*
X80111600Y-57327800D03*
X77571600Y-57327800D03*
X75031600Y-57327800D03*
X75031600Y-42087800D03*
X77571600Y-42087800D03*
X80111600Y-42087800D03*
X82651600Y-42087800D03*
X85191600Y-42087800D03*
X87731600Y-42087800D03*
X90271600Y-42087800D03*
X92811600Y-42087800D03*
X95351600Y-57327800D03*
X97891600Y-57327800D03*
X97891600Y-42087800D03*
X100431600Y-42087800D03*
X72491600Y-42087800D03*
D14*
X108501400Y-117409600D03*
D17*
X133000000Y-73590000D03*
X133000000Y-76130000D03*
X133000000Y-78670000D03*
X133000000Y-81210000D03*
X133000000Y-83750000D03*
X133000000Y-86290000D03*
X133000000Y-98990000D03*
D18*
X133000000Y-71050000D03*
D17*
X133000000Y-88830000D03*
X133000000Y-91370000D03*
X133000000Y-93910000D03*
X133000000Y-96450000D03*
D14*
X58771400Y-72139600D03*
D17*
X121210000Y-41000000D03*
X128830000Y-41000000D03*
X126290000Y-41000000D03*
X123750000Y-41000000D03*
X131370000Y-41000000D03*
D18*
X108510000Y-41000000D03*
D17*
X118670000Y-41000000D03*
X116130000Y-41000000D03*
X113590000Y-41000000D03*
X111050000Y-41000000D03*
D14*
X92771400Y-94139600D03*
X91501400Y-95409600D03*
X109771400Y-72139600D03*
X58771400Y-116139600D03*
X57501400Y-73409600D03*
X92771400Y-72139600D03*
X75771400Y-72139600D03*
X126771400Y-72139600D03*
X125501400Y-95409600D03*
X126771400Y-116139600D03*
D19*
X56231400Y-72139600D03*
X90231400Y-94139600D03*
X107231400Y-116139600D03*
X56231400Y-50139600D03*
X73231400Y-116139600D03*
X56231400Y-116139600D03*
X56231400Y-94139600D03*
X124231400Y-94139600D03*
X124231400Y-72139600D03*
X90231400Y-116139600D03*
X73231400Y-72139600D03*
X73231400Y-94139600D03*
X90231400Y-72139600D03*
X107231400Y-72139600D03*
X124231400Y-116139600D03*
X107231400Y-94139600D03*
%LPD*%
M02*
