G04 #@! TF.GenerationSoftware,KiCad,Pcbnew,7.0.6*
G04 #@! TF.CreationDate,2023-08-02T15:09:40-04:00*
G04 #@! TF.ProjectId,Turing Machine State,54757269-6e67-4204-9d61-6368696e6520,rev?*
G04 #@! TF.SameCoordinates,Original*
G04 #@! TF.FileFunction,Copper,L2,Bot*
G04 #@! TF.FilePolarity,Positive*
%FSLAX46Y46*%
G04 Gerber Fmt 4.6, Leading zero omitted, Abs format (unit mm)*
G04 Created by KiCad (PCBNEW 7.0.6) date 2023-08-02 15:09:40*
%MOMM*%
%LPD*%
G01*
G04 APERTURE LIST*
G04 #@! TA.AperFunction,ComponentPad*
%ADD10C,1.300000*%
G04 #@! TD*
G04 #@! TA.AperFunction,ComponentPad*
%ADD11O,1.600000X1.600000*%
G04 #@! TD*
G04 #@! TA.AperFunction,ComponentPad*
%ADD12R,1.600000X1.600000*%
G04 #@! TD*
G04 #@! TA.AperFunction,ComponentPad*
%ADD13O,1.700000X1.700000*%
G04 #@! TD*
G04 #@! TA.AperFunction,ComponentPad*
%ADD14R,1.700000X1.700000*%
G04 #@! TD*
G04 #@! TA.AperFunction,ComponentPad*
%ADD15R,1.300000X1.300000*%
G04 #@! TD*
G04 #@! TA.AperFunction,ViaPad*
%ADD16C,0.800000*%
G04 #@! TD*
G04 #@! TA.AperFunction,ViaPad*
%ADD17C,1.600000*%
G04 #@! TD*
G04 #@! TA.AperFunction,Conductor*
%ADD18C,0.250000*%
G04 #@! TD*
G04 APERTURE END LIST*
D10*
X58771400Y-94139600D03*
X109771400Y-94139600D03*
X74501400Y-117409600D03*
X126771400Y-94139600D03*
X92771400Y-116139600D03*
X108501400Y-73409600D03*
X125501400Y-73409600D03*
X75771400Y-94139600D03*
X91501400Y-73409600D03*
X57501400Y-51409600D03*
X57501400Y-117409600D03*
X57501400Y-95409600D03*
X125501400Y-117409600D03*
X109771400Y-116139600D03*
X91501400Y-117409600D03*
X108501400Y-95409600D03*
D11*
X116170000Y-45750000D03*
D12*
X111090000Y-53370000D03*
D11*
X113630000Y-53370000D03*
X116170000Y-53370000D03*
X118710000Y-53370000D03*
X121250000Y-53370000D03*
X123790000Y-53370000D03*
X126330000Y-53370000D03*
X128870000Y-53370000D03*
X118710000Y-45750000D03*
X126330000Y-45750000D03*
X128870000Y-45750000D03*
X123790000Y-45750000D03*
X121250000Y-45750000D03*
X111090000Y-45750000D03*
X113630000Y-45750000D03*
D10*
X74501400Y-95409600D03*
X75771400Y-116139600D03*
D13*
X50250000Y-74090000D03*
X50250000Y-76630000D03*
X50250000Y-79170000D03*
X50250000Y-81710000D03*
X50250000Y-84250000D03*
X50250000Y-86790000D03*
X50250000Y-99490000D03*
D14*
X50250000Y-71550000D03*
D13*
X50250000Y-89330000D03*
X50250000Y-91870000D03*
X50250000Y-94410000D03*
X50250000Y-96950000D03*
D10*
X74501400Y-73409600D03*
X58771400Y-50139600D03*
D12*
X72491600Y-57327800D03*
D11*
X95351600Y-42087800D03*
X100431600Y-57327800D03*
X92811600Y-57327800D03*
X90271600Y-57327800D03*
X87731600Y-57327800D03*
X85191600Y-57327800D03*
X82651600Y-57327800D03*
X80111600Y-57327800D03*
X77571600Y-57327800D03*
X75031600Y-57327800D03*
X75031600Y-42087800D03*
X77571600Y-42087800D03*
X80111600Y-42087800D03*
X82651600Y-42087800D03*
X85191600Y-42087800D03*
X87731600Y-42087800D03*
X90271600Y-42087800D03*
X92811600Y-42087800D03*
X95351600Y-57327800D03*
X97891600Y-57327800D03*
X97891600Y-42087800D03*
X100431600Y-42087800D03*
X72491600Y-42087800D03*
D10*
X108501400Y-117409600D03*
D13*
X133000000Y-73590000D03*
X133000000Y-76130000D03*
X133000000Y-78670000D03*
X133000000Y-81210000D03*
X133000000Y-83750000D03*
X133000000Y-86290000D03*
X133000000Y-98990000D03*
D14*
X133000000Y-71050000D03*
D13*
X133000000Y-88830000D03*
X133000000Y-91370000D03*
X133000000Y-93910000D03*
X133000000Y-96450000D03*
D10*
X58771400Y-72139600D03*
D13*
X121210000Y-41000000D03*
X128830000Y-41000000D03*
X126290000Y-41000000D03*
X123750000Y-41000000D03*
X131370000Y-41000000D03*
D14*
X108510000Y-41000000D03*
D13*
X118670000Y-41000000D03*
X116130000Y-41000000D03*
X113590000Y-41000000D03*
X111050000Y-41000000D03*
D10*
X92771400Y-94139600D03*
X91501400Y-95409600D03*
X109771400Y-72139600D03*
X58771400Y-116139600D03*
X57501400Y-73409600D03*
X92771400Y-72139600D03*
X75771400Y-72139600D03*
X126771400Y-72139600D03*
X125501400Y-95409600D03*
X126771400Y-116139600D03*
D15*
X56231400Y-72139600D03*
X90231400Y-94139600D03*
X107231400Y-116139600D03*
X56231400Y-50139600D03*
X73231400Y-116139600D03*
X56231400Y-116139600D03*
X56231400Y-94139600D03*
X124231400Y-94139600D03*
X124231400Y-72139600D03*
X90231400Y-116139600D03*
X73231400Y-72139600D03*
X73231400Y-94139600D03*
X90231400Y-72139600D03*
X107231400Y-72139600D03*
X124231400Y-116139600D03*
X107231400Y-94139600D03*
D16*
X94250000Y-76750000D03*
X118750000Y-78750000D03*
D17*
X72500000Y-62500000D03*
D16*
X60750000Y-76750000D03*
X77250000Y-76750000D03*
X119750000Y-79750000D03*
X121750000Y-81750000D03*
X115500000Y-86750000D03*
X117750000Y-77750000D03*
X111250000Y-76750000D03*
X116750000Y-85750000D03*
X113500000Y-83750000D03*
X122750000Y-82750000D03*
X120750000Y-80750000D03*
X128250000Y-76750000D03*
X114500000Y-84750000D03*
D18*
X129750000Y-57327800D02*
X130750000Y-57327800D01*
X51750000Y-87000000D02*
X55000000Y-83750000D01*
X54000000Y-77750000D02*
X50340000Y-74090000D01*
X128250000Y-43750000D02*
X96763800Y-43750000D01*
X108501400Y-119998600D02*
X108500000Y-120000000D01*
X119750000Y-79750000D02*
X50830000Y-79750000D01*
X54290000Y-82750000D02*
X50250000Y-86790000D01*
X134250000Y-59250000D02*
X132250000Y-57250000D01*
X118170000Y-43750000D02*
X116170000Y-45750000D01*
X132950000Y-71300000D02*
X132950000Y-71050000D01*
X122911000Y-120000000D02*
X125501400Y-117409600D01*
X126380000Y-84750000D02*
X133000000Y-91370000D01*
X74500000Y-75000000D02*
X57500000Y-75000000D01*
X129000000Y-92450000D02*
X133000000Y-96450000D01*
X55000000Y-75000000D02*
X52750000Y-72750000D01*
X100431600Y-42087800D02*
X103119400Y-39400000D01*
X53750000Y-95990000D02*
X53750000Y-89750000D01*
X74500000Y-98000000D02*
X57500000Y-98000000D01*
X94250000Y-76750000D02*
X111250000Y-76750000D01*
X75031600Y-70339400D02*
X73231400Y-72139600D01*
X57501400Y-95409600D02*
X57501400Y-97998600D01*
X50250000Y-96950000D02*
X53250000Y-93950000D01*
X96000000Y-70676200D02*
X96000000Y-70750000D01*
X94923400Y-72139600D02*
X80111600Y-57327800D01*
X132250000Y-45000000D02*
X131000000Y-43750000D01*
X111250000Y-76750000D02*
X128250000Y-76750000D01*
X52250000Y-89870000D02*
X52250000Y-87250000D01*
X131920000Y-79750000D02*
X133000000Y-78670000D01*
X50335000Y-89330000D02*
X50250000Y-89330000D01*
X54000000Y-86750000D02*
X52750000Y-88000000D01*
X52750000Y-56161000D02*
X57501400Y-51409600D01*
X108750000Y-98000000D02*
X108500000Y-98000000D01*
X52750000Y-88000000D02*
X52750000Y-91910000D01*
X50250000Y-76750000D02*
X52250000Y-78750000D01*
X91501400Y-97998600D02*
X91500000Y-98000000D01*
X55750000Y-87750000D02*
X126500000Y-87750000D01*
X103119400Y-39400000D02*
X109450000Y-39400000D01*
X128500000Y-94490000D02*
X133000000Y-98990000D01*
X108501400Y-73409600D02*
X108501400Y-74998600D01*
X125501400Y-97998600D02*
X125500000Y-98000000D01*
X74501400Y-95409600D02*
X74501400Y-97998600D01*
X82651600Y-57327800D02*
X96000000Y-70676200D01*
X125500000Y-98000000D02*
X108750000Y-98000000D01*
X119750000Y-79750000D02*
X131920000Y-79750000D01*
X111250000Y-50000000D02*
X111090000Y-49840000D01*
X129000000Y-89375000D02*
X129000000Y-92450000D01*
X50250000Y-89330000D02*
X51750000Y-87830000D01*
X53250000Y-88750000D02*
X55250000Y-86750000D01*
X74501400Y-119998600D02*
X74500000Y-120000000D01*
X130990000Y-98990000D02*
X133000000Y-98990000D01*
X128250000Y-77750000D02*
X132410000Y-73590000D01*
X117750000Y-77750000D02*
X54000000Y-77750000D01*
X129460000Y-82750000D02*
X133000000Y-86290000D01*
X74501400Y-97998600D02*
X74500000Y-98000000D01*
X131000000Y-43750000D02*
X128250000Y-43750000D01*
X111090000Y-49840000D02*
X111090000Y-45750000D01*
X74750000Y-50000000D02*
X111250000Y-50000000D01*
X52250000Y-87250000D02*
X54750000Y-84750000D01*
X74501400Y-73409600D02*
X74501400Y-74998600D01*
X108500000Y-75000000D02*
X91500000Y-75000000D01*
X58911000Y-50000000D02*
X75000000Y-50000000D01*
X52750000Y-91910000D02*
X50250000Y-94410000D01*
X52250000Y-78750000D02*
X130250000Y-78750000D01*
X120750000Y-80750000D02*
X51210000Y-80750000D01*
X108501400Y-97998600D02*
X108500000Y-98000000D01*
X132870000Y-76130000D02*
X133000000Y-76130000D01*
X74501400Y-117409600D02*
X74501400Y-119998600D01*
X132700000Y-71050000D02*
X133000000Y-71050000D01*
X132410000Y-73590000D02*
X133000000Y-73590000D01*
X54000000Y-86750000D02*
X55000000Y-85750000D01*
X108501400Y-117409600D02*
X108501400Y-119998600D01*
X50250000Y-91870000D02*
X52250000Y-89870000D01*
X107231400Y-72139600D02*
X94923400Y-72139600D01*
X52750000Y-72750000D02*
X52750000Y-56161000D01*
X130000000Y-98000000D02*
X125500000Y-98000000D01*
X56500000Y-120000000D02*
X57500000Y-120000000D01*
X127920000Y-83750000D02*
X133000000Y-88830000D01*
X127500000Y-76750000D02*
X132950000Y-71300000D01*
X53750000Y-89750000D02*
X55750000Y-87750000D01*
X122750000Y-82750000D02*
X54290000Y-82750000D01*
X129500000Y-90410000D02*
X133000000Y-93910000D01*
X55250000Y-86750000D02*
X126375000Y-86750000D01*
X125500000Y-75000000D02*
X108500000Y-75000000D01*
X125502800Y-75000000D02*
X127500000Y-75000000D01*
X90231400Y-69987600D02*
X77571600Y-57327800D01*
X128500000Y-89750000D02*
X128500000Y-94490000D01*
X108500000Y-98000000D02*
X91500000Y-98000000D01*
X57501400Y-117409600D02*
X57501400Y-119998600D01*
X122750000Y-82750000D02*
X129460000Y-82750000D01*
X91501400Y-73409600D02*
X91501400Y-74998600D01*
X133000000Y-83750000D02*
X131000000Y-81750000D01*
X109450000Y-39400000D02*
X111050000Y-41000000D01*
X126375000Y-85750000D02*
X129500000Y-88875000D01*
X57500000Y-98000000D02*
X56000000Y-98000000D01*
X50250000Y-76630000D02*
X50250000Y-76750000D01*
X113630000Y-47620000D02*
X113630000Y-45750000D01*
X57501400Y-97998600D02*
X57500000Y-98000000D01*
X77250000Y-76750000D02*
X60750000Y-76750000D01*
X57500000Y-120000000D02*
X74500000Y-120000000D01*
X122500000Y-70750000D02*
X123889600Y-72139600D01*
X126500000Y-87750000D02*
X128500000Y-89750000D01*
X50830000Y-79750000D02*
X50250000Y-79170000D01*
X56000000Y-98000000D02*
X54500000Y-99500000D01*
X125501400Y-74998600D02*
X125500000Y-75000000D01*
X129500000Y-88875000D02*
X129500000Y-90410000D01*
X132250000Y-45750000D02*
X132250000Y-45000000D01*
X91500000Y-120000000D02*
X108500000Y-120000000D01*
X55500000Y-76750000D02*
X50300000Y-71550000D01*
X130750000Y-57327800D02*
X132181600Y-57327800D01*
X91501400Y-119998600D02*
X91500000Y-120000000D01*
X117750000Y-77750000D02*
X128250000Y-77750000D01*
X57501400Y-73409600D02*
X57501400Y-74998600D01*
X120750000Y-80750000D02*
X132540000Y-80750000D01*
X127500000Y-75000000D02*
X129750000Y-72750000D01*
X57501400Y-119998600D02*
X57500000Y-120000000D01*
X50250000Y-99490000D02*
X53750000Y-95990000D01*
X77250000Y-76750000D02*
X94250000Y-76750000D01*
X75031600Y-41781600D02*
X75031600Y-42087800D01*
X57501400Y-74998600D02*
X57500000Y-75000000D01*
X52750000Y-81750000D02*
X50250000Y-84250000D01*
X134250000Y-97740000D02*
X134250000Y-59250000D01*
X132250000Y-57250000D02*
X132250000Y-45750000D01*
X91501400Y-74998600D02*
X91500000Y-75000000D01*
X129750000Y-72750000D02*
X129750000Y-57327800D01*
X60750000Y-76750000D02*
X55500000Y-76750000D01*
X111250000Y-50000000D02*
X113630000Y-47620000D01*
X72500000Y-50000000D02*
X72500000Y-42096200D01*
X51210000Y-80750000D02*
X50250000Y-81710000D01*
X132250000Y-45750000D02*
X128870000Y-45750000D01*
X91500000Y-98000000D02*
X74500000Y-98000000D01*
X91501400Y-117409600D02*
X91501400Y-119998600D01*
X91500000Y-75000000D02*
X74500000Y-75000000D01*
X125501400Y-95409600D02*
X125501400Y-97998600D01*
X55000000Y-85750000D02*
X126375000Y-85750000D01*
X53250000Y-93950000D02*
X53250000Y-88750000D01*
X91501400Y-95409600D02*
X91501400Y-97998600D01*
X90231400Y-72139600D02*
X90231400Y-69987600D01*
X130250000Y-78750000D02*
X132870000Y-76130000D01*
X132540000Y-80750000D02*
X133000000Y-81210000D01*
X130000000Y-98000000D02*
X130990000Y-98990000D01*
X125501400Y-74998600D02*
X125502800Y-75000000D01*
X118250000Y-43750000D02*
X118170000Y-43750000D01*
X108500000Y-120000000D02*
X122911000Y-120000000D01*
X54750000Y-84750000D02*
X126380000Y-84750000D01*
X51750000Y-87830000D02*
X51750000Y-87000000D01*
X133000000Y-98990000D02*
X134250000Y-97740000D01*
X108501400Y-95409600D02*
X108501400Y-97998600D01*
X131000000Y-81750000D02*
X52750000Y-81750000D01*
X50300000Y-71550000D02*
X50250000Y-71550000D01*
X55000000Y-83750000D02*
X127920000Y-83750000D01*
X108501400Y-74998600D02*
X108500000Y-75000000D01*
X50340000Y-74090000D02*
X50250000Y-74090000D01*
X72500000Y-42096200D02*
X72491600Y-42087800D01*
X96763800Y-43750000D02*
X96263800Y-43250000D01*
X54500000Y-118000000D02*
X56500000Y-120000000D01*
X126375000Y-86750000D02*
X129000000Y-89375000D01*
X95351600Y-42351600D02*
X95351600Y-42087800D01*
X123889600Y-72139600D02*
X124231400Y-72139600D01*
X74501400Y-74998600D02*
X74500000Y-75000000D01*
X58771400Y-50139600D02*
X58911000Y-50000000D01*
X96000000Y-70750000D02*
X122500000Y-70750000D01*
X54500000Y-99500000D02*
X54500000Y-118000000D01*
X100431600Y-57327800D02*
X130750000Y-57327800D01*
X96250000Y-43250000D02*
X95351600Y-42351600D01*
X125501400Y-73409600D02*
X125501400Y-74998600D01*
X74500000Y-120000000D02*
X91500000Y-120000000D01*
X75031600Y-57327800D02*
X75031600Y-70339400D01*
X57500000Y-75000000D02*
X55000000Y-75000000D01*
M02*
