M48
; DRILL file {KiCad 7.0.6} date Wed Aug  2 15:10:30 2023
; FORMAT={-:-/ absolute / metric / decimal}
; #@! TF.CreationDate,2023-08-02T15:10:30-04:00
; #@! TF.GenerationSoftware,Kicad,Pcbnew,7.0.6
; #@! TF.FileFunction,Plated,1,2,PTH
FMAT,2
METRIC
; #@! TA.AperFunction,Plated,PTH,ViaDrill
T1C0.400
; #@! TA.AperFunction,Plated,PTH,ComponentDrill
T2C0.750
; #@! TA.AperFunction,Plated,PTH,ViaDrill
T3C0.800
; #@! TA.AperFunction,Plated,PTH,ComponentDrill
T4C0.800
; #@! TA.AperFunction,Plated,PTH,ComponentDrill
T5C1.000
%
G90
G05
T1
X60.75Y-76.75
X77.25Y-76.75
X94.25Y-76.75
X111.25Y-76.75
X113.5Y-83.75
X114.5Y-84.75
X115.5Y-86.75
X116.75Y-85.75
X117.75Y-77.75
X118.75Y-78.75
X119.75Y-79.75
X120.75Y-80.75
X121.75Y-81.75
X122.75Y-82.75
X128.25Y-76.75
T2
X56.231Y-50.14
X56.231Y-72.14
X56.231Y-94.14
X56.231Y-116.14
X57.501Y-51.41
X57.501Y-73.41
X57.501Y-95.41
X57.501Y-117.41
X58.771Y-50.14
X58.771Y-72.14
X58.771Y-94.14
X58.771Y-116.14
X73.231Y-72.14
X73.231Y-94.14
X73.231Y-116.14
X74.501Y-73.41
X74.501Y-95.41
X74.501Y-117.41
X75.771Y-72.14
X75.771Y-94.14
X75.771Y-116.14
X90.231Y-72.14
X90.231Y-94.14
X90.231Y-116.14
X91.501Y-73.41
X91.501Y-95.41
X91.501Y-117.41
X92.771Y-72.14
X92.771Y-94.14
X92.771Y-116.14
X107.231Y-72.14
X107.231Y-94.14
X107.231Y-116.14
X108.501Y-73.41
X108.501Y-95.41
X108.501Y-117.41
X109.771Y-72.14
X109.771Y-94.14
X109.771Y-116.14
X124.231Y-72.14
X124.231Y-94.14
X124.231Y-116.14
X125.501Y-73.41
X125.501Y-95.41
X125.501Y-117.41
X126.771Y-72.14
X126.771Y-94.14
X126.771Y-116.14
T3
X72.5Y-62.5
T4
X72.492Y-42.088
X72.492Y-57.328
X75.032Y-42.088
X75.032Y-57.328
X77.572Y-42.088
X77.572Y-57.328
X80.112Y-42.088
X80.112Y-57.328
X82.652Y-42.088
X82.652Y-57.328
X85.192Y-42.088
X85.192Y-57.328
X87.732Y-42.088
X87.732Y-57.328
X90.272Y-42.088
X90.272Y-57.328
X92.812Y-42.088
X92.812Y-57.328
X95.352Y-42.088
X95.352Y-57.328
X97.892Y-42.088
X97.892Y-57.328
X100.432Y-42.088
X100.432Y-57.328
X111.09Y-45.75
X111.09Y-53.37
X113.63Y-45.75
X113.63Y-53.37
X116.17Y-45.75
X116.17Y-53.37
X118.71Y-45.75
X118.71Y-53.37
X121.25Y-45.75
X121.25Y-53.37
X123.79Y-45.75
X123.79Y-53.37
X126.33Y-45.75
X126.33Y-53.37
X128.87Y-45.75
X128.87Y-53.37
T5
X50.25Y-71.55
X50.25Y-74.09
X50.25Y-76.63
X50.25Y-79.17
X50.25Y-81.71
X50.25Y-84.25
X50.25Y-86.79
X50.25Y-89.33
X50.25Y-91.87
X50.25Y-94.41
X50.25Y-96.95
X50.25Y-99.49
X108.51Y-41.0
X111.05Y-41.0
X113.59Y-41.0
X116.13Y-41.0
X118.67Y-41.0
X121.21Y-41.0
X123.75Y-41.0
X126.29Y-41.0
X128.83Y-41.0
X131.37Y-41.0
X133.0Y-71.05
X133.0Y-73.59
X133.0Y-76.13
X133.0Y-78.67
X133.0Y-81.21
X133.0Y-83.75
X133.0Y-86.29
X133.0Y-88.83
X133.0Y-91.37
X133.0Y-93.91
X133.0Y-96.45
X133.0Y-98.99
T0
M30
